<svg width="14" height="14" fill="none" xmlns="http://www.w3.org/2000/svg"><path fill-rule="evenodd" clip-rule="evenodd" d="M14 6.727c-.014 2.464-1.307 4.737-3.403 5.98a6.779 6.779 0 01-6.803.074L0 14l1.24-3.706a6.913 6.913 0 01-.984-3.567C.382 2.975 3.415 0 7.112 0s6.73 2.975 6.856 6.727H14z" fill="#26D366"/><path fill-rule="evenodd" clip-rule="evenodd" d="M14 6.727c-.014 2.464-1.307 4.737-3.403 5.98a6.779 6.779 0 01-6.803.074L0 14l1.24-3.706a6.913 6.913 0 01-.984-3.567C.382 2.975 3.415 0 7.112 0s6.73 2.975 6.856 6.727H14zM7.108.924c-3.17-.009-5.75 2.591-5.763 5.81a5.805 5.805 0 001.096 3.414l-.72 2.154 2.217-.716a5.67 5.67 0 006.695-.194c1.96-1.517 2.746-4.135 1.955-6.504C11.797 2.518 9.604.927 7.14.932L7.108.924zm3.23 7.249c.122.056.203.095.236.155l.024.032c.048.275.015.558-.096.813a1.695 1.695 0 01-1.137.812c-.05.006-.092.016-.135.027-.216.054-.453.114-1.882-.45a6.901 6.901 0 01-2.874-2.559 3.278 3.278 0 01-.688-1.747 1.908 1.908 0 01.584-1.414.613.613 0 01.449-.212h.32l.036-.001c.093-.006.213-.015.34.286.065.154.17.41.269.653.119.291.23.562.251.606a.313.313 0 010 .293 1.166 1.166 0 01-.168.284l-.159.181-.097.112-.013.015c-.07.077-.15.166-.059.326.254.435.57.83.937 1.17.401.348.859.623 1.352.813.168.09.256.073.36-.04.105-.114.425-.504.537-.667.112-.162.216-.138.376-.081.124.044.646.302.953.454l.2.099.084.04z" fill="#fff"/></svg>