<?xml version="1.0" encoding="utf-8"?>
<!-- Generator: Adobe Illustrator 22.0.1, SVG Export Plug-In . SVG Version: 6.00 Build 0)  -->
<svg version="1.1" id="Слой_1" xmlns="http://www.w3.org/2000/svg" xmlns:xlink="http://www.w3.org/1999/xlink" x="0px" y="0px"
	 viewBox="0 0 592.6 497.6" style="enable-background:new 0 0 592.6 497.6;color: red" xml:space="preserve">
<style type="text/css">
	.st0{fill:#1c3963;}
</style>
<g>
	<path fill="#111" class="st0" d="M300.8,267.3c0,0.5-0.1,1.1-0.1,1.6c-12,0-24.1-0.3-36.1,0c-59.8,1.5-104.5,40.8-110.5,100.4
		c-3.1,31.5-1.7,63.4-1.5,95.1c0,3.3,5.6,8.3,9.5,9.5c47.5,14.6,96.1,23.5,146,23.6c44.6,0,88.1-5.7,129.8-22.7
		c7.6-3.1,11.2-6.9,11-15.8c-0.7-25,0.1-50-0.3-75c-1-55.3-32.3-98.3-83.4-110.8C344.4,268.2,322.3,269.1,300.8,267.3z M192.8,180.3
		c-32.4,0-63.8-2.3-94.7,0.5c-52.8,4.8-93,46.9-96.6,99.7c-2.1,30.6-1.4,61.4-1.4,92.1c0,3.7,3.2,9.9,6.2,10.9
		c40.3,12.5,81.4,21.3,125.4,23.6c-4.7-73,22.9-126.4,93.9-154C204.9,232.1,195.3,207.6,192.8,180.3z M469,406.5
		c29.9,2.1,91.7-9.8,115.1-22.8c4.1-2.3,7.7-9.4,7.9-14.4c0.8-24.5,0.8-49,0.3-73.5c-1.3-60-37.2-106.7-91.6-113.8
		c-30.1-3.9-61.1-0.7-92.8-0.7c-2.1,26.7-12.3,51-32.5,71.7C445.7,280.8,473.8,333.5,469,406.5z M300.5,89.6
		c-47.5,0-86,38-86.8,85.7c-0.8,47.2,39.2,87.6,86.7,87.6c47.6,0,87.4-40.2,86.7-87.6C386.5,127.7,348,89.6,300.5,89.6z M61.6,86.7
		c0.2,63,66,105.2,122.4,78.1c5.2-2.5,10.6-8.6,12.1-14.1c5.9-20.9,16.3-38.7,32-53.7c3.4-3.2,6.4-8.8,6.3-13.3
		C233.9,37.3,194.3-0.4,147.3,0C99.6,0.4,61.5,38.9,61.6,86.7z M450.2,0c-47.7,0-83.8,30-91.1,69.9c-2,10.8,0.1,17.6,9.3,24.3
		c19.7,14.4,32,35,36.5,58.5c2.2,11.7,8.3,15.3,17.4,17.3c34.3,7.8,64.2-0.6,87.2-27.4c23.5-27.3,27.9-59,13.4-91.6
		C508.1,17.9,480.7,1.3,450.2,0z"/>
	<path fill="#1c3963" d="M300.8,267.3c21.5,1.8,43.7,0.9,64.4,6c51.2,12.5,82.4,55.5,83.4,110.8c0.5,25-0.3,50,0.3,75c0.2,8.9-3.4,12.7-11,15.8
		c-41.7,16.9-85.2,22.7-129.8,22.7c-50,0-98.5-8.9-146-23.6c-3.9-1.2-9.5-6.2-9.5-9.5c-0.3-31.7-1.7-63.7,1.5-95.1
		c6-59.6,50.6-98.9,110.5-100.4c12-0.3,24.1,0,36.1,0C300.7,268.4,300.7,267.9,300.8,267.3z"/>
	<path fill="#1c3963" d="M192.8,180.3c2.5,27.3,12.1,51.8,32.9,72.8c-71,27.6-98.7,81-93.9,154c-44-2.3-85.1-11.1-125.4-23.6
		c-3-0.9-6.2-7.1-6.2-10.9c-0.1-30.7-0.8-61.5,1.4-92.1c3.7-52.8,43.8-94.9,96.6-99.7C129.1,178,160.4,180.3,192.8,180.3z"/>
	<path fill="#1c3963" d="M469,406.5c4.8-73-23.2-125.7-93.7-153.4c20.2-20.7,30.4-45,32.5-71.7c31.7,0,62.7-3.2,92.8,0.7
		c54.4,7.1,90.3,53.8,91.6,113.8c0.5,24.5,0.5,49-0.3,73.5c-0.2,5-3.7,12.1-7.9,14.4C560.7,396.7,498.9,408.6,469,406.5z"/>
	<path fill="#1c3963" d="M300.5,89.6c47.5,0,86,38.1,86.7,85.7c0.7,47.4-39.1,87.6-86.7,87.6c-47.5,0-87.5-40.4-86.7-87.6
		C214.5,127.6,253,89.6,300.5,89.6z"/>
	<path fill="#1c3963" d="M61.6,86.7C61.5,38.9,99.6,0.4,147.3,0c47-0.4,86.6,37.3,87.2,83.8c0.1,4.5-3,10.1-6.3,13.3c-15.8,15-26.1,32.8-32,53.7
		c-1.6,5.5-6.9,11.6-12.1,14.1C127.6,191.9,61.8,149.7,61.6,86.7z"/>
	<path fill="#1c3963" d="M450.2,0c30.5,1.3,57.9,17.9,72.7,51.1c14.5,32.5,10.1,64.3-13.4,91.6c-23,26.8-52.9,35.2-87.2,27.4
		c-9.1-2.1-15.2-5.6-17.4-17.3c-4.5-23.6-16.8-44.1-36.5-58.5c-9.2-6.7-11.2-13.5-9.3-24.3C366.4,30,402.5,0,450.2,0z"/>
</g>
</svg>
