<?xml version="1.0" encoding="utf-8"?>
<!-- Generator: Adobe Illustrator 22.0.1, SVG Export Plug-In . SVG Version: 6.00 Build 0)  -->
<svg version="1.1" id="Слой_1" xmlns="http://www.w3.org/2000/svg" xmlns:xlink="http://www.w3.org/1999/xlink" x="0px" y="0px"
	 viewBox="0 0 857 634.4" style="enable-background:new 0 0 857 634.4;" xml:space="preserve">
<style type="text/css">
	.st0{fill:#FFFFFF;}
</style>
<g>
	<path fill="#1c3963" class="st0" d="M582.5,414c80.3,0,160.5,0,240.8,0c21.6,0,33.5-11.9,33.5-33.5c0-106.4,0.4-212.8-0.2-319.2
		c-0.2-38.6-22.3-60.8-60.8-60.9c-134.4-0.5-268.7-0.5-403.1,0c-38.1,0.2-60.1,22.2-60.3,60.4c-0.6,114.4-0.1,228.8-0.4,343.2
		c0,8.4,2.7,10.2,10.6,10.2C422.6,413.9,502.6,414,582.5,414z M520.5,551.7c-2.9-21.2-0.2-40.6,8.3-58.4
		c8.3-17.4,19.3-33.5,29.2-50.5c-83.7,0-168.9,0-254.9,0c0-5.2,0-9.1,0-13.1c0-91.3,0.1-182.7-0.1-274c0-6.9-1.1-14.1-3.5-20.5
		c-6.5-17.6-21.1-23.9-38.5-24.2c-29.8-0.5-59.7,0.9-89.5-0.5c-22.5-1-36.8,6-47.8,26.9c-24.8,46.8-51.7,92.6-79,138
		c-12.9,21.4-18,43.5-17.2,68.1c1,30.4,0.1,60.9,0.3,91.3c0,5.8-1.6,8.7-7.5,10.3c-9.4,2.6-17.2,9-18.1,18.7
		C0.4,481.9,0.7,500,0,518.1c-1.1,29.1,22.9,39.7,49.5,32.4c-6.2-69.1,43.5-135.8,122.7-141.5c34.1-2.5,65.4,8.6,91.5,31.3
		c33.5,29.2,48.2,66.5,45.6,111.5C379.5,551.7,449.6,551.7,520.5,551.7z M644.1,445c-47.3,1-96,43.9-88.2,107.5
		c5.1,41.9,42.2,88.1,107.2,80.9c42-4.7,88.2-42.3,81-107C738.9,480.6,698,441.1,644.1,445z M179.3,444.2
		c-57.2,1.8-95.7,42.9-95.1,95.2c0.6,56.5,40,95,95.1,95c55.6,0,94.6-38.9,95.1-95C274.9,486.5,236.2,446.1,179.3,444.2z
		 M779.7,551.6c2.6,0.3,5.2,0.7,7.8,0.7c12.6,0.1,25.2,0.1,37.8,0c19.1-0.2,31.5-12.5,31.6-31.6c0.1-14.7,0-29.5,0-44.2
		c0-21.9-11.5-33.3-33.5-33.3c-25.2,0-50.4,0-75.5,0c-2.6,0-5.2,0.3-8.3,0.6C774.7,490.6,783.1,513.2,779.7,551.6z"/>
	<path fill="#1c3963" d="M582.5,414c-79.9,0-159.9-0.1-239.8,0.2c-7.9,0-10.6-1.8-10.6-10.2c0.3-114.4-0.2-228.8,0.4-343.2
		c0.2-38.2,22.2-60.2,60.3-60.4c134.4-0.6,268.7-0.5,403.1,0c38.4,0.1,60.6,22.3,60.8,60.9c0.5,106.4,0.2,212.8,0.2,319.2
		c0,21.6-11.9,33.5-33.5,33.5C743,414,662.8,414,582.5,414z M386.4,110.1c139.3,0,277.6,0,416,0c0-9.7,0-18.5,0-27.5
		c-139,0-277.3,0-416,0C386.4,92,386.4,100.6,386.4,110.1z M802.4,193.3c-138.9,0-277.3,0-415.7,0c0,9.6,0,18.4,0,27.5
		c138.9,0,277.3,0,415.7,0C802.4,211.2,802.4,202.4,802.4,193.3z M802.4,303.8c-138.8,0-277,0-415.7,0c0,9.6,0,18.6,0,28.1
		c138.8,0,276.9,0,415.7,0C802.4,322.5,802.4,313.7,802.4,303.8z"/>
	<path fill="#1c3963" d="M520.5,551.7c-70.8,0-141,0-211.1,0c2.6-45-12.1-82.3-45.6-111.5c-26.1-22.7-57.4-33.8-91.5-31.3
		c-79.2,5.7-128.9,72.4-122.7,141.5C23,557.7-1.1,547.2,0,518.1c0.7-18,0.4-36.2,2.1-54.1c0.9-9.7,8.7-16.2,18.1-18.7
		c6-1.6,7.6-4.5,7.5-10.3c-0.2-30.4,0.6-60.9-0.3-91.3c-0.8-24.6,4.3-46.7,17.2-68.1c27.3-45.4,54.2-91.2,79-138
		c11.1-20.9,25.4-27.9,47.8-26.9c29.8,1.3,59.6,0,89.5,0.5c17.4,0.3,32,6.6,38.5,24.2c2.4,6.4,3.5,13.7,3.5,20.5
		c0.2,91.3,0.1,182.7,0.1,274c0,3.9,0,7.9,0,13.1c86,0,171.2,0,254.9,0c-9.9,16.9-20.9,33.1-29.2,50.5
		C520.3,511.1,517.6,530.5,520.5,551.7z M177.5,277.1c20.6,0,41.2-0.3,61.8,0.1c7.7,0.1,10.2-2.6,10.1-10.2
		c-0.3-30.7-0.3-61.4,0-92.2c0.1-7.6-2.4-10.3-10.1-10.2c-20.3,0.4-40.6,0.7-60.8-0.1c-9.4-0.4-14.8,3.1-19.1,10.8
		c-16.5,29.4-33.3,58.6-49.8,87.9c-5.8,10.4-3.7,13.8,8.1,13.8C137.6,277.1,157.6,277.1,177.5,277.1z"/>
	<path fill="#1c3963" d="M644.1,445c53.9-3.9,94.9,35.6,99.9,81.3c7.2,64.8-39,102.4-81,107c-65,7.2-102.1-39-107.2-80.9
		C548.1,488.9,596.8,446,644.1,445z M607.6,538.8c-1.2,24.2,18.8,42.6,41.4,43c24.6,0.5,43.7-19.2,43.3-42.1
		c-0.4-25-17.1-42.1-41.4-42.9C626.2,496.1,606.8,516,607.6,538.8z"/>
	<path fill="#1c3963" d="M179.3,444.2c56.9,1.9,95.6,42.3,95.1,95.2c-0.5,56.1-39.5,95-95.1,95c-55.2,0-94.5-38.5-95.1-95
		C83.6,487.1,122,446,179.3,444.2z M221.6,539.1c2.2-22.5-19.4-42.9-41.9-42.2c-24.9,0.8-42.1,17.4-42.8,41.7
		c-0.7,24.4,19,43.6,42.3,43.2C204.4,581.3,221.5,564.5,221.6,539.1z"/>
	<path fill="#1c3963" d="M779.7,551.6c3.5-38.5-5-61.1-40.1-107.9c3.1-0.2,5.7-0.5,8.3-0.6c25.2,0,50.4,0,75.5,0c21.9,0,33.4,11.5,33.5,33.3
		c0,14.7,0.1,29.5,0,44.2c-0.1,19.1-12.5,31.5-31.6,31.6c-12.6,0.1-25.2,0.1-37.8,0C784.8,552.4,782.2,551.9,779.7,551.6z"/>
	<path fill="#1c3963" class="st0" d="M386.4,110.1c0-9.5,0-18,0-27.5c138.6,0,277,0,416,0c0,9,0,17.8,0,27.5C664.1,110.1,525.7,110.1,386.4,110.1z"
		/>
	<path fill="#1c3963" class="st0" d="M802.4,193.3c0,9.1,0,17.9,0,27.5c-138.4,0-276.8,0-415.7,0c0-9.1,0-17.9,0-27.5
		C525.1,193.3,663.5,193.3,802.4,193.3z"/>
	<path fill="#1c3963" class="st0" d="M802.4,303.8c0,9.9,0,18.7,0,28.1c-138.7,0-276.9,0-415.7,0c0-9.5,0-18.5,0-28.1
		C525.4,303.8,663.6,303.8,802.4,303.8z"/>
	<path fill="#1c3963" class="st0" d="M177.5,277.1c-20,0-39.9,0.1-59.9,0c-11.8,0-13.9-3.4-8.1-13.8c16.5-29.4,33.3-58.6,49.8-87.9
		c4.3-7.6,9.7-11.2,19.1-10.8c20.2,0.8,40.5,0.5,60.8,0.1c7.7-0.1,10.1,2.6,10.1,10.2c-0.3,30.7-0.3,61.4,0,92.2
		c0.1,7.6-2.4,10.3-10.1,10.2C218.7,276.8,198.1,277.1,177.5,277.1z"/>
	<path fill="#1c3963" class="st0" d="M607.6,538.8c-0.8-22.8,18.6-42.7,43.3-41.9c24.2,0.8,40.9,17.8,41.4,42.9c0.4,22.9-18.7,42.6-43.3,42.1
		C626.4,581.4,606.5,563,607.6,538.8z"/>
	<path fill="#1c3963" class="st0" d="M221.6,539.1c0,25.4-17.2,42.1-42.4,42.6c-23.2,0.5-43-18.8-42.3-43.2c0.7-24.3,17.9-41,42.8-41.7
		C202.2,496.2,223.7,516.6,221.6,539.1z"/>
</g>
</svg>
