<?xml version="1.0" encoding="utf-8"?>
<!-- Generator: Adobe Illustrator 22.0.1, SVG Export Plug-In . SVG Version: 6.00 Build 0)  -->
<svg version="1.1" id="Слой_1" xmlns="http://www.w3.org/2000/svg" xmlns:xlink="http://www.w3.org/1999/xlink" x="0px" y="0px"
	 viewBox="0 0 516.2 515.6" style="enable-background:new 0 0 516.2 515.6;" xml:space="preserve">
<style type="text/css">
	.st0{fill:#FFFFFF;}
</style>
<g>
	<path fill="#1c3963" class="st0" d="M473.1,515.6c0-2.7,0-4.9,0-7.1c0-88.4,0-176.9,0.1-265.3c0-5.1-1.6-8.1-5.5-11.2
		c-58.1-46.3-116.1-92.8-174.1-139.2c-11.8-9.5-23.7-18.9-35.3-28.2c-1,0.6-1.4,0.7-1.8,1c-69.7,55.8-139.4,111.6-209.2,167.2
		c-3.4,2.7-4.3,5.6-4.3,9.7c0.1,88.7,0.1,177.3,0.1,266c0,2.3,0,4.7,0,6.9c50.7,0,100.3,0,150.6,0c0-57.3,0-114.3,0-171.1
		c43.3,0,86,0,129.1,0c0,57.3,0,114.1,0,171.2C372.9,515.6,422.5,515.6,473.1,515.6z M0.1,233.9c86.7-69.4,172.3-137.8,258-206.4
		c86,68.8,171.5,137.2,258,206.4c0-8.3-0.2-15,0.1-21.7c0.2-4.2-1.2-6.8-4.5-9.5C438.7,144.5,365.9,86.2,293,27.9
		c-11.6-9.3-23.3-18.6-35-27.9c-43,34.4-85.5,68.4-129.4,103.4c0-21.5,0-40.8,0-60.1c-28.7,0-56.9,0-85.6,0c0,2.7,0,5.2,0,7.6
		c0,38.3-0.1,76.6,0.1,114.8c0,4.5-1.2,7.4-4.8,10.2c-11.7,9-23.2,18.3-34.6,27.7c-1.8,1.5-3.4,4.2-3.6,6.4
		C-0.2,217.3,0.1,224.7,0.1,233.9z"/>
	<path fill="#1c3963" d="M473.1,515.6c-50.6,0-100.2,0-150.3,0c0-57.1,0-113.9,0-171.2c-43.1,0-85.7,0-129.1,0c0,56.9,0,113.8,0,171.1
		c-50.3,0-100,0-150.6,0c0-2.2,0-4.6,0-6.9c0-88.7,0-177.3-0.1-266c0-4.1,0.8-7,4.3-9.7c69.8-55.7,139.5-111.5,209.2-167.2
		c0.3-0.3,0.8-0.4,1.8-1c11.6,9.3,23.5,18.7,35.3,28.2c58,46.4,116,92.9,174.1,139.2c3.8,3.1,5.5,6.1,5.5,11.2
		c-0.2,88.4-0.1,176.9-0.1,265.3C473.1,510.7,473.1,512.9,473.1,515.6z"/>
	<path fill="#1c3963" d="M0.1,233.9c0-9.2-0.3-16.6,0.2-23.9c0.1-2.2,1.8-4.9,3.6-6.4c11.4-9.4,22.9-18.6,34.6-27.7c3.5-2.7,4.8-5.7,4.8-10.2
		c-0.2-38.3-0.1-76.6-0.1-114.8c0-2.4,0-4.8,0-7.6c28.7,0,56.9,0,85.6,0c0,19.3,0,38.6,0,60.1C172.5,68.4,215,34.4,258.1,0
		c11.6,9.3,23.3,18.5,35,27.9c72.9,58.3,145.7,116.6,218.6,174.8c3.4,2.7,4.7,5.3,4.5,9.5c-0.3,6.7-0.1,13.4-0.1,21.7
		c-86.5-69.2-172-137.6-258-206.4C172.3,96.1,86.8,164.5,0.1,233.9z"/>
</g>
</svg>
