<?xml version="1.0" encoding="utf-8"?>
<!-- Generator: Adobe Illustrator 22.0.1, SVG Export Plug-In . SVG Version: 6.00 Build 0)  -->
<svg version="1.1" id="Слой_1" xmlns="http://www.w3.org/2000/svg" xmlns:xlink="http://www.w3.org/1999/xlink" x="0px" y="0px"
	 viewBox="0 0 792 792.1" style="enable-background:new 0 0 792 792.1;" xml:space="preserve">
<style type="text/css">
	.st0{fill:#1c3963;}
	.st1{fill:#ececec;}
	.st2{fill:#ececec;}
	.st3{fill:#ececec;}
	.st4{fill:#ececec;}
	.st5{fill:#51A8B1;}
</style>
<g>
	<path fill="#1c3963" class="st0" d="M426.4,0c7.6,3.2,15.8,2.5,23.7,3.7c81.1,11.5,152.2,44.6,212.7,99.8c66.7,60.9,108.8,136.1,123.4,225.2
		c19.6,120.1-9.3,228.3-87.3,322.1C637.2,724.7,558,770.5,463.1,786.1c-120.1,19.7-228.3-9.3-322-87.4C67.2,637,22.8,557.6,5.6,463
		c-1.9-10.4-2.8-20.9-4.2-31.3c-0.2-1.4,0.4-3.2-1.5-4c0-4.4,0-8.8,0-13.2c1.1-2.6,1.1-5.3,0-7.9c0-7,0-14.1,0-21.1
		c1.1-2.6,1.1-5.3,0-7.9c0-4.4,0-8.8,0-13.2c1.5-17.9,3.5-35.7,7.4-53.3c14.1-63.4,41.8-120.1,83.4-170
		c36.9-44.2,81.4-78.7,133.1-103.7C262.4,18.7,303,6.9,345.5,1.5c6.2-0.8,12.6-0.1,18.9-1.5c3.1,0,6.2,0,9.2,0
		c2.6,1.4,5.4,0.3,8,0.7c3-0.3,6.2,0.8,9.1-0.7c3.5,0,7,0,10.6,0c2.9,1.4,6.1,0.3,9.1,0.7c2.7-0.3,5.5,0.8,8.1-0.7
		C421.1,0,423.7,0,426.4,0z"/>
	<path fill="#1c3963" class="st1" d="M390.7,0c-2.8,2.5-6.2,0.9-9.3,1.3C381,1,380.9,0.7,381,0.4c0.1-0.3,0.3-0.4,0.4-0.4C384.6,0,387.6,0,390.7,0z
		"/>
	<path fill="#1c3963" class="st1" d="M410.6,1.3c-3.1-0.4-6.5,1.2-9.3-1.3c3.1,0,6.2,0,9.2,0c0.4,0.3,0.6,0.5,0.4,0.8
		C410.8,1.1,410.7,1.3,410.6,1.3z"/>
	<path fill="#1c3963" class="st2" d="M381.5,0c0,0.4,0,0.9,0,1.3c-2.6-0.5-5.6,1.2-7.9-1.3C376.2,0,378.8,0,381.5,0z"/>
	<path class="st2" d="M410.6,1.3c0-0.4-0.1-0.9,0-1.3c2.6,0,5.3,0,7.9,0C416.2,2.5,413.2,0.8,410.6,1.3z"/>
	<path fill="#1c3963" class="st3" d="M0,377.5c2.1,2.6,1.9,5.3,0,7.9C0,382.8,0,380.2,0,377.5z"/>
	<path fill="#1c3963" class="st3" d="M0,406.6c1.9,2.6,2.1,5.3,0,7.9C0,411.8,0,409.2,0,406.6z"/>
	<path fill="#1c3963" class="st4" d="M756.8,396.2C756.6,596,595.6,756.8,395.9,756.8C196,756.7,34.8,595.2,35.2,395.4
		C35.6,195.6,196.8,34.9,396.4,35.2C596.2,35.5,757,196.6,756.8,396.2z"/>
	<path fill="#1c3963" class="st0" d="M546.9,474.7c1.3,1.5,1.5,1.7,1.5,1.8c0,40.9,0.7,81.8-0.3,122.7c-0.5,21.8-15.3,34.2-37.1,34.2
		c-53.9,0-107.8,0-161.7,0c-36.1,0-72.1,0-108.2,0c-23.7,0-37.9-14.1-37.9-37.6c0-118.1,0-236.2,0-354.3c0-22.9,14.1-37,36.9-37.1
		c7.9,0,15.8-0.2,23.8,0.1c4.2,0.1,6-0.9,5.7-5.5c-0.4-4.6-0.2-9.2,0-13.8c0.2-6.5,3.5-10,8.9-9.9c5.2,0.1,8,3.4,8.2,9.8
		c0,0.4,0,0.9,0,1.3c0.5,5.8-2.6,13.4,1.4,17.1c3.6,3.3,10.9,0.9,16.6,1c8.8,0.1,17.6-0.1,26.4,0.1c3.9,0.1,5.6-1,5.3-5.2
		c-0.3-5-0.1-10.1,0-15.2c0-5.1,2.4-8.5,7.7-8.9c5.6-0.4,8.7,2.9,9.2,8.2c0.5,5.5,0.3,11,0.2,16.5c-0.1,3.5,1.3,4.6,4.6,4.5
		c11.2-0.2,22.4-0.2,33.7,0c3.6,0.1,4.6-1.3,4.4-4.7c-0.2-5.1-0.2-10.1,0-15.2c0.2-6.1,3.4-9.5,8.7-9.4c5.3,0.1,8.3,3.4,8.4,9.6
		c0.1,4.8,0.3,9.7-0.1,14.5c-0.3,4.2,1.4,5.2,5.3,5.1c12.3-0.2,24.6-0.2,36.9,0c4,0.1,5.5-1.1,5.2-5.2c-0.3-5-0.1-10.1,0-15.2
		c0.1-5.5,2.9-8.8,8.5-8.8c5.7-0.1,8.3,3.5,8.6,8.8c0.2,5,0.3,10.1,0,15.2c-0.2,4,1.1,5.4,5.2,5.3c10.1-0.3,20.2-0.1,30.4-0.1
		c20,0.1,33.9,13.5,35,33.5c0.1,2.2,0.3,4.4,0.4,6.6c0.9,28.9,0.3,30.3-24.9,51.9c-2-1.2-1-3.2-1-4.7c-0.1-16.7,0-33.4-0.1-50.1
		c0-8.5-3-11.6-11.4-11.7c-9.7-0.1-19.4,0.1-29-0.1c-3.4-0.1-4.8,1.1-4.6,4.5c0.2,3.3,0.3,6.6-0.1,9.9c-0.6,5-3.7,8-8.9,7.8
		c-4.9-0.2-7.5-3.2-8.1-8c0-0.2,0-0.4,0-0.7c-0.5-4.3,2-9.9-1.2-12.6c-3.3-2.8-8.9-0.8-13.4-0.9c-8.8-0.1-17.6,0.3-26.4-0.2
		c-5.5-0.3-7,1.7-6.4,6.7c0.3,2.4,0.2,4.8,0,7.3c-0.4,5.2-3.2,8.2-8.4,8.3c-5.2,0.1-7.9-3.1-8.7-8.1c-0.1-0.6,0-1.3-0.1-2
		c-0.4-12.1-0.4-12.1-12.8-12.1c-7.9,0-15.9,0.3-23.7-0.1c-5.1-0.3-6.7,1.6-6.1,6.4c0.3,2.4,0.3,4.9-0.1,7.2
		c-0.7,5.1-3.3,8.8-8.9,8.6c-5.6-0.2-7.9-3.8-8.2-9.2c-0.6-13-0.6-13-14-13c-10.1,0-20.2,0.1-30.4-0.1c-4-0.1-5.7,1.3-5.3,5.3
		c0.2,2.6,0,5.3,0,7.9c0,5.5-2.8,8.8-8.3,9c-5.3,0.2-8-3.4-8.7-8.2c-0.5-3-0.3-6.2-0.1-9.2c0.3-3.9-1.4-4.9-5-4.8
		c-8.4,0.2-16.7,0-25.1,0.1c-7.2,0.1-10.3,3.2-10.8,10.5c-0.1,1.5,0,3.1,0,4.6c0,115.9,0,231.8,0,347.7c0,12.6,2,14.6,14.4,14.6
		c23.3,0,46.6,0,69.9,0c2.9,0,5.5,0.2,8.1,1.8c7.5,4.8,15.7,5.6,24,2.3c9.2-3.6,18.6-4.3,28.4-4.3c45.5,0.2,91.1,0.1,136.6,0.1
		c10.5,0,12.6-2.1,12.6-12.8c0-29.7,0.1-59.4-0.1-89.1c0-4,1-7,4-9.8C533.5,489,540,481.9,546.9,474.7z"/>
	<path fill="#1c3963" class="st0" d="M395.8,456.7c-7.9,0-13.8,0-19.7,0c-27.9,0-55.9,0-83.8,0c-2,0-4,0.2-5.9-0.3c-4.1-1-6.6-3.7-6.4-8
		c0.2-3.9,2.6-6.5,6.5-7.3c1.9-0.4,3.9-0.2,5.9-0.2c37.6,0,75.2-0.1,112.9,0.1c4.3,0,7.3-1.3,10.3-4.3c37.4-37.6,75-75,112.3-112.6
		c4-4,6.2-4.8,10.6-0.3c20.4,21,41.2,41.6,62,62.1c3.2,3.1,3.5,4.8,0.1,8.1c-54.9,54.6-109.6,109.4-164.3,164.2
		c-2.7,2.7-5.6,4.7-9.4,5.9c-28.7,9.1-57.3,18.2-86,27.4c-2.8,0.9-5.6,1.6-8-0.6c-2.8-2.5-2.1-5.6-1.1-8.6
		c9.1-28.7,18.2-57.3,27.4-86c1.2-3.6,3.2-6.7,5.9-9.4C375,477.4,384.6,467.8,395.8,456.7z"/>
	<path fill="#1c3963" class="st0" d="M585.6,274.6c6.2,0,10.3,2.5,14,6.3c14.2,14.3,28.6,28.6,42.8,42.9c8,8,8.7,18.6,1,27.1
		c-7.8,8.6-16.4,16.5-24.5,24.9c-2.2,2.3-3.5,1.5-5.3-0.3c-21.9-21.9-43.7-43.8-65.7-65.6c-2.4-2.4-2-3.7,0.2-5.7
		c7.9-7.7,15.5-15.5,23.4-23.2C575.6,276.8,580.7,274.8,585.6,274.6z"/>
	<path fill="#1c3963" class="st5" d="M372.3,307.3c26.4,0,52.8,0,79.1,0c2,0,4-0.2,5.9,0.2c3.6,0.8,5.8,3.1,6,6.9c0.2,3.7-1.3,6.4-4.8,7.8
		c-2.5,1-5.2,0.9-7.8,0.9c-52.8,0-105.5,0-158.3,0c-1.3,0-2.7,0.1-4-0.1c-4.9-0.6-8.7-3-8.4-8.3c0.3-5.2,3.9-7.4,9.1-7.4
		C316.9,307.4,344.6,307.3,372.3,307.3z"/>
	<path fill="#1c3963" class="st5" d="M372,370.7c26.2,0,52.3,0,78.5,0c2,0,4-0.1,5.9,0.1c4,0.4,6.5,2.8,6.9,6.7c0.4,4.3-1.5,7.3-5.8,8.3
		c-1.9,0.5-3.9,0.6-5.9,0.6c-53.2,0-106.4,0-159.6,0c-2,0-4,0-5.9-0.6c-4-1.2-6.6-3.9-6.1-8.2c0.5-4.1,3-6.8,7.5-6.9
		c3.7-0.1,7.5-0.1,11.2-0.1C323.2,370.7,347.6,370.7,372,370.7z"/>
	<path fill="#1c3963" class="st4" d="M393.8,490.1c-5.1-0.2-7.8-4.7-5.6-8.9c0.9-1.7,2.5-3.1,3.8-4.5c42.1-42.2,84.3-84.3,126.4-126.4
		c1.2-1.2,2.4-2.6,3.9-3.6c2.9-1.9,6-1.9,8.4,0.7c2.2,2.4,2.1,5.3,0.4,7.9c-0.8,1.3-2,2.3-3.1,3.4c-42.4,42.5-84.9,84.9-127.4,127.4
		C398.7,488.1,396.8,490.4,393.8,490.1z"/>
	<path fill="#1c3963" class="st4" d="M369.5,509.2c6,6.6,10.8,12.2,16,17.6c7.8,8,15.7,16,23.8,23.7c3.1,3,2.8,4.2-1.3,5.4
		c-9.2,2.7-18.4,5.7-27.5,8.8c-3.2,1.1-5.3,0.4-7.5-2c-4.8-5.4-12.6-9.8-14.2-15.9c-1.5-5.7,3.2-13.2,5.3-19.9
		C365.5,521.9,367.2,516.7,369.5,509.2z"/>
</g>
</svg>
