<?xml version="1.0" encoding="utf-8"?>
<!-- Generator: Adobe Illustrator 22.0.1, SVG Export Plug-In . SVG Version: 6.00 Build 0)  -->
<svg version="1.1" id="Слой_1" xmlns="http://www.w3.org/2000/svg" xmlns:xlink="http://www.w3.org/1999/xlink" x="0px" y="0px"
	 viewBox="0 0 857.5 856.9" style="enable-background:new 0 0 857.5 856.9;" xml:space="preserve">
<style type="text/css">
	.st0{fill:#FFFFFF;}
</style>
<g>
	<path fill="#1c3963" class="st0" d="M657.3,199.5c5-2.5,9.5-5.2,13.3-9.1c22.1-22.1,44.3-44.2,66.4-66.4c14-14,13.9-34.3-0.1-48.3
		c-21.8-21.8-43.9-43.4-65.3-65.5c-9.5-9.8-20.8-11.5-32.9-9.4c-18.6,3.2-29.9,22.4-25,40.7c1.6,5.9,4.5,10.9,8.8,15.2
		c3.2,3.2,6.4,6.3,9.6,9.5c-0.1,0.2-0.3,0.4-0.4,0.6c-1.1,0-2.1,0-3.2,0c-65.9,0-131.8,0-197.6,0c-1.9,0-3.8,0.1-5.7,0.4
		c-16.8,2.3-29.7,17.8-28.5,34.3c1.3,18.2,15.6,31.7,33.4,31.7c66.4,0,132.9,0,199.3-0.1c0.9,0,1.7,0.1,2.6,0.1
		c0.1,0.2,0.3,0.5,0.4,0.7c-3.3,3.1-6.8,6.1-9.9,9.4c-16,17.2-9.6,45.5,12.3,54.1c1.6,0.6,3.2,1.2,4.8,1.7c0,0.1,0,0.2-0.1,0.3
		c-1,0-1.9,0-2.9,0c-108.7,0-217.3,0-326,0c-2.9,0-5.8,0.2-8.7,0.7c-3.5,0.5-6.9,1.4-10.4,2.1c-0.2-0.6-0.5-1.1-0.6-1.6
		c-9.7-33.5-19.4-66.9-29.2-100.4c-4.5-15.5-8.8-31-16.3-45.4c-8.3-16.1-19.5-29.7-35.2-39.2C192.5,5.1,173,0.7,152.6,0.5
		C111.7,0.2,70.8,0.4,30,0.4C17,0.4,7.6,6.5,1.1,17.5c-0.7,1.1-1,2.6-1,3.9C0,29,0.2,36.6,0,44.3c-0.1,2.8,0.6,5.1,2.2,7.4
		c4,5.8,9.1,10.1,15.6,12.8c5.6,2.3,11.3,2.3,17.2,2.3c36-0.1,71.9-0.1,107.9,0c5.2,0,10.4,0.2,15.6,0.5
		c10.5,0.7,19.1,4.8,25.1,13.8c4.3,6.5,7.5,13.5,9.8,20.9c8.6,28.8,17.1,57.6,25.6,86.4c23.7,80.6,47.4,161.3,71.2,242
		c17.7,60.1,35.4,120.3,53.1,180.4c2.9,9.7,5.1,19.6,8.9,28.9c6.5,16,16.3,30.1,27.7,43c27.5,30.9,61.3,47.8,103.2,47.8
		c85.4-0.2,170.8-0.1,256.2-0.1c1.6,0,3.1,0,4.7-0.1c12.4-1,21.9-6.9,27.5-17.9c5.8-11.3,5.1-22.7-1.8-33.3c-6.7-10.3-16.7-15-29-15
		c-87.2,0-174.5,0-261.7-0.1c-9.5,0-18.7-2.2-27.1-6.7c-21.1-11.2-34.8-28.5-41.7-51.4c-0.8-2.6-1.6-5.3-2.4-8.2c1.7,0,2.9,0,4,0
		c87.4,0,174.8,0,262.2,0c1.6,0,3.3,0,4.9,0c16.4-0.6,29.8-7.4,40.3-20c5.1-6.1,8.2-13.2,11.4-20.4c17.9-39,36.2-77.9,54.3-116.9
		c20.6-44.2,41.2-88.4,61.8-132.6c8.8-18.8,13.1-38.4,9.5-59.2c-3.5-20.2-14.2-35.1-33.4-43.2c-10.2-4.3-21-5.8-32-5.8
		c-43.5,0-87,0-130.6,0C659.3,199.5,658.3,199.5,657.3,199.5z M663.5,856.9c32.8,0.2,60.1-26.6,60.3-59.4
		c0.2-33.4-26.4-60.5-59.8-60.7c-33.2-0.2-60.2,26.5-60.5,59.8C603.3,829.5,630.2,856.6,663.5,856.9z M464.6,856.9
		c33.1,0,60-26.7,60.1-59.9c0.1-33.3-26.7-60.2-60-60.3c-33.3-0.1-60.2,26.7-60.2,60C404.5,829.9,431.3,856.8,464.6,856.9z"/>
	<path fill="#1c3963" d="M657.3,199.5c1,0,2,0,3,0c43.5,0,87,0,130.6,0c11,0,21.8,1.5,32,5.8c19.2,8.1,29.9,23,33.4,43.2
		c3.6,20.7-0.7,40.3-9.5,59.2c-20.7,44.2-41.2,88.4-61.8,132.6c-18.1,38.9-36.4,77.8-54.3,116.9c-3.3,7.1-6.4,14.3-11.4,20.4
		c-10.5,12.6-23.9,19.4-40.3,20c-1.6,0.1-3.3,0-4.9,0c-87.4,0-174.8,0-262.2,0c-1.2,0-2.4,0-4,0c0.9,2.9,1.6,5.5,2.4,8.2
		c6.9,22.8,20.6,40.1,41.7,51.4c8.4,4.5,17.6,6.7,27.1,6.7c87.2,0.1,174.5,0.1,261.7,0.1c12.3,0,22.3,4.7,29,15
		c6.9,10.6,7.5,22,1.8,33.3c-5.7,11.1-15.1,16.9-27.5,17.9c-1.5,0.1-3.1,0.1-4.7,0.1c-85.4,0-170.8-0.1-256.2,0.1
		c-41.9,0.1-75.8-16.9-103.2-47.8c-11.4-12.9-21.2-27-27.7-43c-3.8-9.3-6-19.3-8.9-28.9c-17.7-60.1-35.4-120.3-53.1-180.4
		c-23.7-80.7-47.4-161.3-71.2-242c-8.5-28.8-17-57.6-25.6-86.4c-2.2-7.4-5.4-14.4-9.8-20.9c-6-9-14.6-13.2-25.1-13.8
		c-5.2-0.3-10.4-0.5-15.6-0.5c-36,0-71.9-0.1-107.9,0c-5.9,0-11.6,0-17.2-2.3c-6.5-2.7-11.7-7-15.6-12.8c-1.5-2.3-2.3-4.6-2.2-7.4
		c0.2-7.7,0-15.3,0.1-23c0-1.3,0.3-2.8,1-3.9C7.6,6.5,17,0.4,30,0.4c40.9,0,81.8-0.2,122.6,0.1c20.4,0.2,40,4.5,57.7,15.3
		c15.6,9.5,26.8,23.1,35.2,39.2c7.5,14.4,11.8,29.9,16.3,45.4c9.7,33.5,19.4,66.9,29.2,100.4c0.1,0.5,0.4,1,0.6,1.6
		c3.5-0.7,6.9-1.6,10.4-2.1c2.9-0.4,5.8-0.7,8.7-0.7c108.7,0,217.3,0,326,0c1,0,1.9,0,2.9,0c0-0.1,0-0.2,0.1-0.3
		c-1.6-0.6-3.2-1.1-4.8-1.7c-21.9-8.6-28.4-36.9-12.3-54.1c3.1-3.3,6.6-6.3,9.9-9.4c-0.1-0.2-0.3-0.5-0.4-0.7
		c-0.9,0-1.7-0.1-2.6-0.1c-66.4,0-132.9,0-199.3,0.1c-17.8,0-32.1-13.5-33.4-31.7c-1.2-16.4,11.7-31.9,28.5-34.3
		c1.9-0.3,3.8-0.4,5.7-0.4c65.9,0,131.8,0,197.6,0c1.1,0,2.1,0,3.2,0c0.1-0.2,0.3-0.4,0.4-0.6c-3.2-3.2-6.4-6.3-9.6-9.5
		c-4.3-4.3-7.2-9.3-8.8-15.2c-4.8-18.2,6.5-37.4,25-40.7c12-2.1,23.4-0.5,32.9,9.4c21.4,22.2,43.5,43.7,65.3,65.5
		c14,14,14.1,34.3,0.1,48.3c-22.1,22.2-44.3,44.3-66.4,66.4C666.8,194.3,662.3,197.1,657.3,199.5z M635.8,326.9
		c0.9,0,1.5,0.1,2.1,0.1c41,0,82.1,0,123.1,0c1.8,0,2.6-0.7,3.3-2.2c7.3-15.9,14.6-31.7,21.8-47.6c1.3-2.9,2.1-5.9,3.3-9.1
		c-51.5,0-102.5,0-153.6,0C635.8,287.8,635.8,307.2,635.8,326.9z M319.5,268.1c0.3,1.2,0.5,1.9,0.8,2.7
		c5.6,17.8,11.3,35.5,16.9,53.3c0.7,2.2,1.5,3,3.9,2.9c38.4-0.1,76.8-0.1,115.2-0.1c1,0,2,0,3,0c0-19.8,0-39.3,0-58.9
		C412.7,268.1,366.3,268.1,319.5,268.1z M351.8,370.6c0.2,0.8,0.3,1.6,0.5,2.2c5.4,17,10.8,34,16,51c0.7,2.2,1.6,2.7,3.8,2.7
		c28.1-0.1,56.2-0.1,84.3-0.1c1,0,1.9,0,2.9,0c0-18.9,0-37.4,0-55.9C423.4,370.6,387.6,370.6,351.8,370.6z M503.2,268.1
		c0,19.8,0,39.2,0,58.8c29.6,0,59.1,0,88.6,0c0-19.7,0-39.2,0-58.8C562.2,268.1,532.8,268.1,503.2,268.1z M503.2,529.1
		c29.6,0,59.1,0,88.7,0c0-19.7,0-39.2,0-58.8c-29.7,0-59.2,0-88.7,0C503.2,490,503.2,509.5,503.2,529.1z M742.4,370.7
		c-35.8,0-71.2,0-106.6,0c0,18.7,0,37.1,0,55.7c0.7,0.1,1.2,0.1,1.7,0.1c25.6,0,51.2,0,76.9,0.1c1.8,0,2.5-0.8,3.2-2.3
		c6.1-13.3,12.3-26.6,18.4-39.9C738.2,379.9,740.3,375.4,742.4,370.7z M591.9,426.4c0-18.8,0-37.2,0-55.7c-29.7,0-59.2,0-88.6,0
		c0,18.7,0,37.1,0,55.7C532.9,426.4,562.3,426.4,591.9,426.4z M382.8,470.2c0.3,1,0.4,1.7,0.7,2.4c5.7,17.7,11.4,35.3,17,53
		c0.9,2.8,2.4,3.7,5.1,3.7c17.2-0.1,34.3,0,51.5,0c0.7,0,1.4,0,2.2,0c0-19.8,0-39.4,0-59C433.7,470.2,408.4,470.2,382.8,470.2z
		 M635.8,529.1c0.5,0.1,0.8,0.1,1.2,0.1c10,0,20.1,0,30.1,0.1c1.6,0,2.1-0.8,2.7-2c7.8-16.4,15.6-32.9,23.4-49.3
		c1.2-2.5,2.3-5.1,3.5-7.6c-20.5,0-40.7,0-60.8,0C635.8,490.1,635.8,509.5,635.8,529.1z"/>
	<path fill="#1c3963" d="M663.5,856.9c-33.3-0.3-60.2-27.3-60-60.3c0.3-33.3,27.3-60.1,60.5-59.8c33.4,0.2,60.1,27.3,59.8,60.7
		C723.6,830.2,696.3,857.1,663.5,856.9z"/>
	<path fill="#1c3963" d="M464.6,856.9c-33.3,0-60.1-26.9-60.1-60.2c0.1-33.3,26.9-60.1,60.2-60c33.3,0.1,60.1,27,60,60.3
		C524.6,830.1,497.7,856.9,464.6,856.9z"/>
	<path fill="#1c3963" class="st0" d="M635.8,326.9c0-19.7,0-39.1,0-58.7c51.1,0,102.1,0,153.6,0c-1.1,3.2-2,6.3-3.3,9.1
		c-7.2,15.9-14.6,31.7-21.8,47.6c-0.7,1.5-1.5,2.2-3.3,2.2c-41-0.1-82.1,0-123.1,0C637.3,327.1,636.7,327,635.8,326.9z"/>
	<path fill="#1c3963" class="st0" d="M319.5,268.1c46.8,0,93.2,0,139.8,0c0,19.6,0,39.1,0,58.9c-1,0-2,0-3,0c-38.4,0-76.8,0-115.2,0.1
		c-2.4,0-3.2-0.8-3.9-2.9c-5.5-17.8-11.2-35.6-16.9-53.3C320,270.1,319.8,269.3,319.5,268.1z"/>
	<path fill="#1c3963" class="st0" d="M351.8,370.6c35.9,0,71.6,0,107.5,0c0,18.5,0,37,0,55.9c-1,0-1.9,0-2.9,0c-28.1,0-56.2,0-84.3,0.1
		c-2.2,0-3.1-0.5-3.8-2.7c-5.3-17-10.7-34-16-51C352.1,372.2,352,371.4,351.8,370.6z"/>
	<path fill="#1c3963" class="st0" d="M503.2,268.1c29.6,0,59,0,88.6,0c0,19.6,0,39.1,0,58.8c-29.6,0-59,0-88.6,0
		C503.2,307.4,503.2,287.9,503.2,268.1z"/>
	<path fill="#1c3963" class="st0" d="M503.2,529.1c0-19.6,0-39.1,0-58.8c29.5,0,59,0,88.7,0c0,19.6,0,39.1,0,58.8
		C562.3,529.1,532.8,529.1,503.2,529.1z"/>
	<path fill="#1c3963" class="st0" d="M742.4,370.7c-2.2,4.7-4.3,9.2-6.4,13.7c-6.1,13.3-12.3,26.6-18.4,39.9c-0.7,1.4-1.4,2.3-3.2,2.3
		c-25.6-0.1-51.2,0-76.9-0.1c-0.5,0-1.1-0.1-1.7-0.1c0-18.6,0-37,0-55.7C671.3,370.7,706.7,370.7,742.4,370.7z"/>
	<path fill="#1c3963" class="st0" d="M591.9,426.4c-29.6,0-59,0-88.6,0c0-18.5,0-37,0-55.7c29.4,0,58.9,0,88.6,0
		C591.9,389.1,591.9,407.6,591.9,426.4z"/>
	<path fill="#1c3963" class="st0" d="M382.8,470.2c25.6,0,50.9,0,76.4,0c0,19.7,0,39.2,0,59c-0.8,0-1.5,0-2.2,0c-17.2,0-34.3,0-51.5,0
		c-2.7,0-4.3-0.9-5.1-3.7c-5.6-17.7-11.3-35.4-17-53C383.2,471.9,383.1,471.2,382.8,470.2z"/>
	<path fill="#1c3963" class="st0" d="M635.8,529.1c0-19.6,0-39.1,0-58.8c20.1,0,40.3,0,60.8,0c-1.2,2.6-2.3,5.1-3.5,7.6
		c-7.8,16.4-15.6,32.8-23.4,49.3c-0.6,1.2-1.1,2.1-2.7,2c-10-0.1-20.1,0-30.1-0.1C636.7,529.3,636.3,529.2,635.8,529.1z"/>
</g>
</svg>
