<?xml version="1.0" encoding="utf-8"?>
<!-- Generator: Adobe Illustrator 22.0.1, SVG Export Plug-In . SVG Version: 6.00 Build 0)  -->
<svg version="1.1" id="Слой_1" xmlns="http://www.w3.org/2000/svg" xmlns:xlink="http://www.w3.org/1999/xlink" x="0px" y="0px"
	 viewBox="0 0 512 512" style="enable-background:new 0 0 512 512;" xml:space="preserve">
<style type="text/css">
	.st0{fill:#FFFFFF;}
</style>
<g>
	<path fill="#1c3963" d="M102,0c4.3,0,8.7,0,13,0c21.7,3.7,37.4,17,51.9,32.3c17.9,19,32.9,40.1,46.2,62.5c3.2,5.4,5.7,11.4,7.2,17.4
		c4.7,18.4,1.1,34.6-13.8,47.5c-8.1,7-16.3,13.7-24.2,20.9c-14.1,12.9-14.9,27.9-1.5,41.4c36.1,36.5,72.5,72.6,108.7,108.9
		c13.6,13.6,29.5,11.4,42.1-1.7c7.2-7.6,13.3-16.3,20.6-23.7c4.7-4.8,10.1-9.4,16.2-12.1c17.3-7.6,34.3-3.9,49.4,5.9
		c17.3,11.2,34.4,22.9,50.4,35.8c20.1,16.3,38.9,34.2,43.7,61.7c0,4.3,0,8.7,0,13c-2.7,12.7-7.6,24.4-17.1,33.7
		c-9,8.9-17.8,18-27,26.7c-17.5,16.6-37.4,29.3-60.8,35.9c-8.6,2.4-17.4,3.8-26.2,5.7c-7.3,0-14.7,0-22,0c-0.9-0.3-1.8-0.6-2.8-0.9
		c-13.4-3.3-27.2-5.3-40-10c-35.7-13-65.5-35.4-92.3-61.8c-48-47.2-95.6-94.8-142.9-142.6c-13.4-13.6-25.9-28.2-37.7-43.3
		c-18-23.2-31.9-48.7-39-77.5c-1.9-7.6-2.9-15.3-4.4-23c0-6.7,0-13.3,0-20c0.3-1.4,0.8-2.8,0.9-4.3C3,105.5,11.5,84.6,24.4,65.4
		C37.7,45.8,54.9,29.8,72.2,14c5.3-4.9,12.6-7.8,19.3-11.1C94.7,1.3,98.5,0.9,102,0z"/>
	<path fill="#1c3963" class="st0" d="M438.6,234.5c3.7,0.2,6.3,0.4,9,0.4c6.5-0.1,12.1-2.4,16.3-7.4c5.5-6.6,6.8-14.1,3.6-22
		c-3.7-9-11-13.2-20.5-13.4c-16-0.3-31.5-2.9-46.3-9.1c-38.5-16-64.3-43.9-75.8-84.1c-3.2-11.2-3.9-23.2-5.1-34.9
		c-1.4-13.2-10.4-21.8-23.1-21.1c-11.7,0.6-20.6,10.6-19.6,23.2c1,12.7,2.1,25.6,5,38c9.5,40.1,31.3,72.4,64.3,97
		C374.2,221.8,405.3,232.7,438.6,234.5z M444,149.2c13.9,0.7,23.8-6.8,25-18.7c1.3-13.3-9.5-23.7-21.8-23.9
		c-6-0.1-12.3-1.8-17.7-4.4c-16.2-7.6-23.3-21.4-24.5-38.8c-0.8-12.6-10.2-21-22.4-20.5c-11.6,0.5-20.2,10.1-20,22.5
		C363.5,110.9,398.6,146.9,444,149.2z"/>
	<path fill="#1c3963" class="st0" d="M381,512c8.7-1.9,17.6-3.3,26.2-5.7c23.4-6.6,43.3-19.3,60.8-35.9c9.2-8.7,18-17.8,27-26.7
		c9.4-9.3,14.4-21,17.1-33.7c0,34,0,68,0,102C468.3,512,424.7,512,381,512z"/>
	<path fill="#1c3963" d="M438.6,234.5c-33.3-1.8-64.5-12.7-92.1-33.3c-33-24.6-54.8-56.9-64.3-97c-2.9-12.4-4-25.3-5-38c-1-12.6,7.9-22.6,19.6-23.2
		c12.6-0.7,21.7,7.9,23.1,21.1c1.2,11.7,1.9,23.7,5.1,34.9c11.5,40.1,37.3,68,75.8,84.1c14.8,6.2,30.3,8.8,46.3,9.1
		c9.5,0.2,16.8,4.4,20.5,13.4c3.2,7.9,1.9,15.4-3.6,22c-4.2,5-9.8,7.3-16.3,7.4C445,234.9,442.3,234.7,438.6,234.5z"/>
	<path fill="#1c3963" d="M444,149.2c-45.4-2.3-80.5-38.4-81.4-83.8c-0.2-12.3,8.3-22,20-22.5c12.2-0.5,21.6,7.8,22.4,20.5
		c1.1,17.5,8.3,31.2,24.5,38.8c5.4,2.6,11.8,4.3,17.7,4.4c12.4,0.2,23.2,10.6,21.8,23.9C467.8,142.4,458,149.9,444,149.2z"/>
</g>
</svg>
