<?xml version="1.0" encoding="utf-8"?>
<!-- Generator: Adobe Illustrator 22.0.1, SVG Export Plug-In . SVG Version: 6.00 Build 0)  -->
<svg version="1.1" id="Слой_1" xmlns="http://www.w3.org/2000/svg" xmlns:xlink="http://www.w3.org/1999/xlink" x="0px" y="0px"
	 viewBox="0 0 794.5 858.9" style="enable-background:new 0 0 794.5 858.9;" xml:space="preserve">
<style type="text/css">
	.st0{fill:#FFFFFF;}
</style>
<g>
	<path fill="#1c3963" class="st0" d="M463.6,528c0,110.4,0,220.5,0,330.8c1.1,0,2,0.1,2.9,0.1c76,0,152,0,228,0c2.5,0,5.1-0.3,7.6-0.8
		c15.8-3.5,26.3-16.8,26.3-33.4c0-87.6,0-175.1,0-262.7c0-11.5,0-22.9,0-34.4c0-7.1-2.2-13.6-6.5-19.3c-7.2-9.5-16.8-13.6-28.6-13.6
		c-197.4,0-394.7,0-592.1,0c-0.8,0-1.6,0-2.5,0c-17.9,0.4-32.4,15.1-32.4,33.1c0,99.1,0,198.3,0,297.4c0,19.1,14.5,33.7,33.6,33.7
		c76,0,152,0,228,0c1,0,1.9-0.1,3.1-0.1c0-110.4,0-220.5,0-330.8C375.3,528,419.2,528,463.6,528z M463.5,461.6c1.6,0,2.9,0,4.1,0
		c97.1,0,194.3,0,291.4,0c1.9,0,3.8-0.1,5.7-0.2c16.1-1.2,29.7-15.8,29.7-32c0-33.6,0-67.2,0-100.8c0-1.4,0-2.7-0.2-4.1
		c-2.8-17-16.3-28.5-33.7-28.5c-242.1,0-484.2,0-726.2,0c-2.4,0-4.9,0.1-7.3,0.6C10.7,300,0,313.3,0,330.4c0,32.3,0,64.6,0,97
		c0,2.3,0,4.6,0.5,6.8c3.2,16.6,16.5,27.5,33.7,27.5c97.9,0,195.7,0,293.6,0c1,0,1.9,0,3.2,0c0-44.3,0-88.2,0-132.2
		c44.3,0,88.3,0,132.4,0C463.5,373.4,463.5,417.3,463.5,461.6z M288.4,263c0-0.1,0.1-0.3,0.1-0.4c-0.7-0.4-1.4-0.7-2.1-1.1
		c-15.3-8.1-30.9-15.8-45.9-24.4c-19-10.9-37-23.5-53-38.7c-9.6-9.1-18.3-19.1-23.8-31.3c-6.7-14.9-6.1-29.3,3.7-42.8
		c5.3-7.3,11.5-13.9,18.6-19.5c11.7-9.1,24.6-11.3,38.5-5.6c5,2.1,10,4.5,14.5,7.4c28.3,18.2,55.6,37.8,82.6,58
		c5.5,4.1,11,8.3,16.6,12.5c-0.6,0.9-1.1,1.7-1.6,2.5c-2.9,4.4-5.2,9.1-5.3,14.4c-0.2,12.6-0.5,25.3,0,37.9c0.6,17,15,30.9,32,31.1
		c22.7,0.2,45.3,0.3,68,0c17.8-0.2,32.1-15.2,32.1-33c0-11,0.2-22-0.1-33c-0.1-3.9-1.2-7.9-2.4-11.6c-1-2.9-2.9-5.5-4.7-8.9
		c26.6-19,53.1-38.1,79.9-56.9c9.5-6.7,19.3-13,29.6-18.4c15-7.9,29.8-6.7,43.3,4.1c7.1,5.7,13.2,12.2,18.5,19.6
		c4.1,5.8,6.8,12.2,7.4,19.3c1.1,11.5-2.7,21.7-8.6,31.2c-9.3,14.8-21.9,26.4-35.6,37c-25.6,19.9-53.8,35.6-83,49.3
		c-0.6,0.3-1.1,0.7-2.2,1.3c23,0,45.3,0.1,67.6-0.1c5.7-0.1,11.5-0.7,17-2c25.6-6.1,49.3-16.8,71.4-30.9
		c18.5-11.8,34.9-25.8,47.3-44.2c9.1-13.5,14.9-28.3,16.1-44.6c1.4-18-2.7-35-10.2-51.3c-9.2-19.9-22.3-37-37-53
		c-10.3-11.1-21.1-21.6-34.6-28.9c-12-6.5-24.7-9.7-38.3-7.2c-13.1,2.5-23.7,9.4-32.5,19.2C567,26,562,32.5,557,38.8
		c-29.7,37.1-59.4,74.2-89,111.2c-5.6,6.9-11.2,13.8-16.8,20.7c-10.7-7-16-7.2-26.7-7.1c-18.6,0.1-37.1,0.2-55.7,0
		c-9.2-0.1-17.7,1.4-25.2,7.3c-4.3-5.3-8.6-10.5-12.8-15.7C296.1,112,261.6,68.8,227,25.7c-3.9-4.8-8.3-9.3-13-13.2
		C201.7,2.4,187.6-1.8,171.7,0.9c-11.9,2-22.3,7.5-31.9,14.6c-11.2,8.2-20.6,18.4-29.7,28.9c-14.7,16.9-27.3,35.2-34.9,56.5
		c-8.2,23.1-8.5,46.1,1.5,68.8c7.9,18.1,20.5,32.7,35.6,45.3c23.1,19.2,49.3,32.6,77.6,42.1c12.3,4.1,24.9,6.4,38,6.1
		c19.3-0.4,38.6-0.1,57.9-0.1C286.7,263,287.5,263,288.4,263z"/>
	<path fill="#1c3963" d="M463.6,528c-44.3,0-88.3,0-132.5,0c0,110.3,0,220.4,0,330.8c-1.2,0.1-2.2,0.1-3.1,0.1c-76,0-152,0-228,0
		c-19.1,0-33.6-14.6-33.6-33.7c0-99.1,0-198.3,0-297.4c0-18,14.4-32.7,32.4-33.1c0.8,0,1.6,0,2.5,0c197.4,0,394.7,0,592.1,0
		c11.8,0,21.5,4.1,28.6,13.6c4.3,5.7,6.5,12.2,6.5,19.3c0.1,11.5,0,22.9,0,34.4c0,87.6,0,175.1,0,262.7c0,16.6-10.5,29.9-26.3,33.4
		c-2.5,0.5-5,0.8-7.6,0.8c-76,0-152,0-228,0c-0.9,0-1.8-0.1-2.9-0.1C463.6,748.5,463.6,638.4,463.6,528z"/>
	<path fill="#1c3963" d="M463.5,461.6c0-44.3,0-88.2,0-132.2c-44.2,0-88.2,0-132.4,0c0,44,0,88,0,132.2c-1.3,0-2.2,0-3.2,0c-97.9,0-195.7,0-293.6,0
		c-17.2,0-30.5-10.8-33.7-27.5c-0.4-2.2-0.5-4.5-0.5-6.8c0-32.3-0.1-64.6,0-97c0-17.1,10.6-30.4,26.9-33.7c2.4-0.5,4.9-0.6,7.3-0.6
		c242.1,0,484.2,0,726.2,0c17.4,0,30.9,11.5,33.7,28.5c0.2,1.3,0.2,2.7,0.2,4.1c0,33.6,0,67.2,0,100.8c0,16.1-13.6,30.7-29.7,32
		c-1.9,0.1-3.8,0.2-5.7,0.2c-97.1,0-194.3,0-291.4,0C466.3,461.6,465.1,461.6,463.5,461.6z"/>
	<path fill="#1c3963" d="M288.4,263c-0.9,0-1.7,0-2.6,0c-19.3,0-38.6-0.3-57.9,0.1c-13.1,0.3-25.7-2-38-6.1c-28.3-9.5-54.6-22.9-77.6-42.1
		c-15.1-12.5-27.7-27.1-35.6-45.3c-9.9-22.7-9.7-45.7-1.5-68.8c7.6-21.3,20.2-39.6,34.9-56.5c9.1-10.4,18.5-20.6,29.7-28.9
		c9.6-7.1,20-12.5,31.9-14.6c15.9-2.7,30,1.5,42.2,11.6c4.7,3.9,9.1,8.4,13,13.2c34.7,43.1,69.2,86.3,103.7,129.5
		c4.2,5.2,8.5,10.4,12.8,15.7c7.5-6,16.1-7.4,25.2-7.3c18.6,0.2,37.1,0.1,55.7,0c10.7-0.1,16,0.2,26.7,7.1
		c5.6-6.9,11.2-13.8,16.8-20.7c29.7-37.1,59.3-74.2,89-111.2C562,32.5,567,26,572.4,20c8.8-9.7,19.4-16.7,32.5-19.2
		c13.7-2.6,26.3,0.7,38.3,7.2c13.5,7.3,24.3,17.8,34.6,28.9c14.7,16,27.8,33.1,37,53c7.5,16.3,11.6,33.3,10.2,51.3
		c-1.3,16.3-7,31.1-16.1,44.6c-12.4,18.3-28.8,32.4-47.3,44.2c-22.1,14.1-45.8,24.9-71.4,30.9c-5.5,1.3-11.3,1.9-17,2
		c-22.3,0.2-44.6,0.1-67.6,0.1c1.1-0.7,1.6-1.1,2.2-1.3c29.3-13.8,57.4-29.5,83-49.3c13.6-10.6,26.3-22.2,35.6-37
		c6-9.5,9.7-19.7,8.6-31.2c-0.7-7.2-3.3-13.6-7.4-19.3c-5.3-7.3-11.4-13.9-18.5-19.6c-13.5-10.8-28.3-12-43.3-4.1
		c-10.3,5.4-20.1,11.7-29.6,18.4c-26.8,18.8-53.3,37.9-79.9,56.9c1.8,3.4,3.8,6,4.7,8.9c1.2,3.7,2.3,7.7,2.4,11.6
		c0.3,11,0.1,22,0.1,33c0,17.8-14.3,32.8-32.1,33c-22.7,0.3-45.3,0.2-68,0c-17-0.2-31.4-14.1-32-31.1c-0.4-12.6-0.2-25.3,0-37.9
		c0.1-5.3,2.4-10,5.3-14.4c0.5-0.8,1-1.5,1.6-2.5c-5.6-4.2-11.1-8.4-16.6-12.5c-27-20.1-54.3-39.8-82.6-58
		c-4.6-2.9-9.5-5.3-14.5-7.4c-13.8-5.7-26.7-3.5-38.5,5.6c-7.2,5.5-13.3,12.1-18.6,19.5c-9.8,13.5-10.4,27.9-3.7,42.8
		c5.5,12.2,14.2,22.2,23.8,31.3c16,15.2,33.9,27.8,53,38.7c15,8.6,30.6,16.3,45.9,24.4c0.7,0.4,1.4,0.7,2.1,1.1
		C288.4,262.7,288.4,262.9,288.4,263z"/>
</g>
</svg>
