<?xml version="1.0" encoding="utf-8"?>
<!-- Generator: Adobe Illustrator 22.0.1, SVG Export Plug-In . SVG Version: 6.00 Build 0)  -->
<svg version="1.1" id="Слой_1" xmlns="http://www.w3.org/2000/svg" xmlns:xlink="http://www.w3.org/1999/xlink" x="0px" y="0px"
	 viewBox="0 0 640 640" style="enable-background:new 0 0 640 640;" xml:space="preserve">
<style type="text/css">
	.st0{fill:#ececec;}
</style>
<g>
	<path fill="#1c3963" d="M300,0c13.3,0,26.7,0,40,0c7.2,1,14.5,2,21.7,2.9c39.1,4.8,76,16.9,110.5,35.8c53.1,29,95,69.8,125.3,122.3
		c21,36.5,34.4,75.6,39.6,117.5c0.8,6.2,1.9,12.4,2.9,18.5c0,15.3,0,30.7,0,46c-0.4,1.4-1,2.7-1.2,4.1c-2.2,14-3.8,28-6.6,41.9
		c-7.1,35.3-20.9,67.9-39.7,98.5c-28.8,46.7-67.1,83.7-114.8,110.8c-36.1,20.6-74.8,33.7-116.1,38.8c-6.2,0.8-12.3,1.9-18.5,2.9
		c-15.3,0-30.7,0-46,0c-6.2-1-12.3-2.1-18.5-2.9c-38.8-4.7-75.3-16.6-109.6-35.2C109.3,569.5,64,523,33.5,462.2
		c-16-31.8-26.3-65.3-30.6-100.7C2.1,355.4,1,349.2,0,343c0-15.3,0-30.7,0-46c0.4-1.4,1.1-2.7,1.2-4.1c2.7-33.5,10.6-65.7,23.7-96.6
		c21.3-50.2,53.2-92.5,95.9-126.4c43.1-34.3,91.7-56.3,146.1-65.2C277.9,2.8,289,1.5,300,0z M580,320
		C579.6,176.4,464.1,61.2,322.3,60.1C176.8,58.9,61.1,176,60.1,317.8C59,463.3,176.5,579.7,319.4,580C463.2,580.2,580,463.5,580,320
		z"/>
	<path fill="#1c3963" class="st0" d="M580,320c0,143.5-116.8,260.3-260.6,260C176.5,579.7,59,463.3,60.1,317.8C61.1,176,176.8,58.9,322.3,60.1
		C464.1,61.2,579.6,176.4,580,320z M317.2,164.5c1.7,0,3.3-0.1,5,0c14.1,0.6,27.1,4.2,38.2,13.7c16.1,13.7,22.4,45,5.8,68
		c-9.8,13.6-23,23.4-35.7,34c-13.8,11.5-27.9,22.8-40.5,35.4c-13.8,13.8-21.1,31.1-20.3,51c0.6,16.2,7.2,29.6,22.7,35.8
		c15.1,6.1,30.5,5.3,43.8-5.6c7-5.7,9.9-14.1,12.6-22.3c5-15.1,13.8-27.1,26.7-36.4c15.5-11.2,31-22.5,45.9-34.5
		c15.5-12.5,28.8-27.2,37.5-45.5c21-43.9,8.1-108.1-44.8-138.7C384.1,102,351.3,95.4,317,94.9c-32.6-0.6-63,8-90.4,25.6
		c-24,15.5-42.8,35.5-51.4,63.4c-3.7,11.9-5.7,24.1-1.6,36.4c4.5,13.4,14.5,20.9,28.1,23.3c15.2,2.7,29.8,0.8,40-12
		c5.8-7.3,10-16.1,14.2-24.5c5.6-11.2,10.9-22.6,21-30.6C288.6,167,302.5,164.2,317.2,164.5z M261,495.1
		c-0.1,27.3,22.5,50,49.8,50.2c27,0.2,49.9-22.8,49.9-50.1c0-27-22.3-49.5-49.6-49.9C284.1,444.9,261,467.8,261,495.1z"/>
	<path fill="#1c3963" d="M317.2,164.5c-14.7-0.3-28.6,2.5-40.3,12c-10,8.1-15.4,19.4-21,30.6c-4.2,8.4-8.4,17.2-14.2,24.5
		c-10.2,12.8-24.8,14.7-40,12c-13.6-2.4-23.6-9.8-28.1-23.3c-4.1-12.2-2.1-24.5,1.6-36.4c8.6-27.9,27.4-47.9,51.4-63.4
		c27.5-17.7,57.9-26.2,90.4-25.6c34.2,0.6,67,7.2,97.2,24.6c52.9,30.7,65.8,94.9,44.8,138.7c-8.7,18.2-22,32.9-37.5,45.5
		c-14.9,12-30.4,23.3-45.9,34.5c-12.9,9.3-21.7,21.3-26.7,36.4c-2.7,8.2-5.7,16.6-12.6,22.3c-13.3,10.9-28.7,11.7-43.8,5.6
		c-15.5-6.2-22.1-19.7-22.7-35.8c-0.8-19.9,6.5-37.2,20.3-51c12.7-12.7,26.7-24,40.5-35.4c12.7-10.5,25.9-20.4,35.7-34
		c16.6-23,10.3-54.4-5.8-68c-11.1-9.5-24.1-13-38.2-13.7C320.5,164.4,318.8,164.5,317.2,164.5z"/>
	<path fill="#1c3963" d="M261,495.1c0.1-27.3,23.2-50.2,50.2-49.8c27.3,0.4,49.6,22.9,49.6,49.9c0,27.3-22.9,50.3-49.9,50.1
		C283.5,545.1,260.9,522.4,261,495.1z"/>
</g>
</svg>
