<?xml version="1.0" encoding="utf-8"?>
<!-- Generator: Adobe Illustrator 22.0.1, SVG Export Plug-In . SVG Version: 6.00 Build 0)  -->
<svg version="1.1" id="Слой_1" xmlns="http://www.w3.org/2000/svg" xmlns:xlink="http://www.w3.org/1999/xlink" x="0px" y="0px"
	 viewBox="0 0 538.8 375.9" style="enable-background:new 0 0 538.8 375.9;" xml:space="preserve">
<style type="text/css">
	.st0{fill:#ececec;}
</style>
<g>
	<path fill="#1c3963" class="st0" d="M48.8,300.4c1.6,5.9,2.6,11.9,4.8,17.5c3.2,8,9.1,14.3,17.5,16.7c12.9,3.7,21.5-0.9,28.5-10.7
		c12-16.8,8.7-41.3-5.3-53.3c-8.5-7.4-23.1-7.8-31.5-0.5C53.7,278,49.8,288.3,48.8,300.4z M0,349.3c1.4,4.9,2.2,10,4.4,14.5
		c3.2,6.6,8.4,11.3,16.3,12c7.8,0.7,13.9-2.9,17.7-9c7.5-12,7.7-24.6-0.5-36.3c-7.2-10.2-18.8-11.7-28.1-3.7
		C3.3,332.4,0.7,340.4,0,349.3z"/>
	<path fill="#1c3963" d="M538.8,242.9c-0.9,4.2-1.6,8.5-2.7,12.6c-4.4,16.2-12.8,29.9-25.5,41c-7.9,6.9-16.5,12.2-26.1,16.2
		c-17.4,7.3-35.3,8.2-53.7,5.4c-0.7-0.1-1.5-0.3-2.2-0.7c-3-1.9-4.6-0.9-6.2,2c-6.7,12.3-16.1,22.2-27.8,29.9
		c-10,6.6-20.9,10.8-32.6,13.5c-11.6,2.7-23.2,3-34.6,1c-14.7-2.7-28.7-7.7-40.5-17.5c-1.6-1.4-3.5-2.5-5-3.9c-2-2-3.8-0.8-5.5,0.3
		c-9.7,6.6-20.2,11.1-31.7,13.9c-12.2,2.9-24.3,3.2-36.5,1.4c-11.3-1.7-22.1-5.3-32.3-11.3c-13.1-7.6-23.6-17.5-31.5-30.3
		c-7.9-12.7-11.7-26.6-11.9-41.4c-0.1-3.4-1.1-4.8-4.5-5.8c-11.3-3.2-21.4-8.6-30.6-16c-14.7-11.7-24.8-26.4-29.1-44.7
		c-6.4-27.2-0.6-51.8,17.7-73.2c8.7-10.1,19.1-17.8,31.4-23c4.7-2,9.7-3.5,14.4-5.5c0.9-0.4,2-1.9,2.1-2.9
		c1-16.7,6.2-31.9,16.2-45.4c5.4-7.3,11.7-13.6,19-18.8C179,32.9,189.7,28,201.6,25c14.3-3.5,28.4-3.5,42.5-0.9
		c7.8,1.4,15.1,5.3,22.6,8.1c2.1,0.8,3.3,0.9,5.1-1.2c6.5-7.4,14-13.6,22.7-18.6c8.9-5,18.2-8.8,28.3-10.4c3.1-0.5,6.1-1.4,9.2-2.2
		c6.4,0,12.8,0,19.2,0c7.7,2,15.4,4,23.1,6c8.6,2.2,16.1,6.8,23.1,11.9c13.3,9.8,23.6,22.4,29.3,38.2c0.9,2.4,2.1,3.2,4.7,3.1
		c13.6-0.7,26.8,1,39.6,6.1c11.8,4.7,22.1,11.3,31.1,20.2c14.7,14.6,22.8,32.2,24.4,52.8c1,13.5-1.5,26.4-7.2,38.8
		c-0.6,1.3-0.8,3.7,0,4.7c6,7.1,10.9,14.8,13.8,23.5c2.4,7,3.8,14.3,5.6,21.4C538.8,232.1,538.8,237.5,538.8,242.9z M509.7,143.6
		c-0.2-2.3-0.3-4.6-0.6-6.9c-2.4-15.8-10.4-28.2-22.7-38.3c-10.3-8.4-21.8-13.5-34.7-15.9c-1.8-0.3-3.6-0.3-5.3-0.7
		c-6.5-1.7-13-1.6-19.6,0c-3,0.7-6.2,1.3-8.6-1.3c-1.8-2-3.6-4.4-4.3-6.9c-8-28.4-28.1-43.5-55.4-49.6c-17.1-3.8-34.2-2.1-50.4,5.4
		c-11.4,5.3-21.2,12.6-28.5,23c-4.1,5.8-8.7,6.4-14.8,3c-5.3-3-10.8-6.4-16.7-7.6c-10.3-2.2-20.6-4.3-31.7-2.9
		c-16.4,2-30.8,7.4-43.4,17.9c-9.2,7.7-16,17.2-19.6,28.8c-2.2,7.2-2.9,14.5-1.7,22c1.2,7.5-1.4,11.4-8.3,13.5
		c-5.8,1.8-11.7,3.1-17.4,5.2c-14.1,5.2-25.6,13.9-33.8,26.6c-11.2,17.3-12.8,35.5-3.5,53.8c10.6,21.1,28.7,32.6,51.5,37.1
		c7.7,1.5,11.1,5.7,10.5,13.7c-0.1,0.9-0.2,1.8-0.4,2.7c-2.2,12.9,0.4,24.9,7,36.1c9.9,16.7,25.1,27.1,43.3,32
		c15.8,4.2,32,4.1,48-1.2c10.2-3.4,19.2-8.7,27.5-15.4c2.6-2.1,5.3-2.1,7.9,0c3.7,3.1,7.3,6.2,10.9,9.3c8.9,7.8,19.6,12,30.9,14.3
		c18.2,3.7,36.1,1.8,52.9-6.6c5.9-2.9,11.3-7,16.4-11.3c8.1-6.7,13.5-15.6,17.7-25.2c2.2-5.1,5.9-6.3,11.1-4.1
		c1.4,0.6,3,0.9,4.5,1.1c9.7,1.1,19.1,3.7,29.1,1.9c8.9-1.6,17.6-3.1,25.8-7.2c10.3-5,19.1-11.6,26.1-20.7c19-24.8,15.2-54.5-6-75.7
		c-6.8-6.8-7.8-12.5-2.7-20.6C506.4,163.9,509.7,154.2,509.7,143.6z"/>
	<path fill="#1c3963" d="M48.8,300.4c1-12.1,4.9-22.4,14-30.3c8.4-7.3,23-6.9,31.5,0.5c14,12,17.3,36.4,5.3,53.3c-7,9.8-15.7,14.4-28.5,10.7
		c-8.4-2.4-14.3-8.7-17.5-16.7C51.4,312.4,50.4,306.3,48.8,300.4z M99.3,300c0-6.2-1.7-11.8-5.2-16.9c-7.6-11.2-22.1-10.9-29.3-2.9
		c-10.5,11.6-10.1,29.1,0.6,40.5c4.8,5.1,15.9,6.9,21.3,3.4C95.3,318.4,99.3,310.3,99.3,300z"/>
	<path fill="#1c3963" d="M0,349.3c0.7-8.9,3.3-16.9,9.8-22.6c9.4-8,20.9-6.6,28.1,3.7c8.3,11.7,8,24.3,0.5,36.3c-3.9,6.2-9.9,9.7-17.7,9
		c-7.9-0.7-13.1-5.4-16.3-12C2.2,359.3,1.4,354.2,0,349.3z M35.8,348.8c-0.8-2.9-1.3-6-2.6-8.7c-2.2-4.5-6.1-7.4-11.1-7.2
		c-4.8,0.1-8.6,2.9-10.7,7.3c-3.3,7-2.8,13.8,1.9,20.2c3.2,4.2,10.1,6.1,13.9,3.6C32.6,360.5,35.3,355.4,35.8,348.8z"/>
	<path fill="#1c3963" class="st0" d="M509.7,143.6c-0.1,10.7-3.3,20.4-9,29.3c-5.1,8-4.1,13.7,2.7,20.6c21.2,21.2,25,51,6,75.7
		c-7,9.1-15.8,15.7-26.1,20.7c-8.3,4-16.9,5.6-25.8,7.2c-10.1,1.8-19.5-0.8-29.1-1.9c-1.5-0.2-3.1-0.5-4.5-1.1
		c-5.1-2.2-8.9-1-11.1,4.1c-4.2,9.7-9.6,18.5-17.7,25.2c-5.1,4.2-10.5,8.3-16.4,11.3c-16.8,8.3-34.7,10.3-52.9,6.6
		c-11.2-2.3-22-6.5-30.9-14.3c-3.6-3.1-7.2-6.2-10.9-9.3c-2.6-2.2-5.3-2.1-7.9,0c-8.3,6.7-17.3,12-27.5,15.4
		c-16,5.3-32.2,5.3-48,1.2c-18.3-4.8-33.4-15.2-43.3-32c-6.6-11.2-9.2-23.2-7-36.1c0.2-0.9,0.3-1.8,0.4-2.7
		c0.6-7.9-2.8-12.2-10.5-13.7c-22.8-4.5-40.9-16-51.5-37.1c-9.3-18.3-7.7-36.6,3.5-53.8c8.2-12.7,19.7-21.5,33.8-26.6
		c5.7-2.1,11.6-3.5,17.4-5.2c6.9-2.1,9.5-6,8.3-13.5c-1.2-7.5-0.5-14.8,1.7-22c3.6-11.6,10.3-21,19.6-28.8
		c12.6-10.5,27-15.9,43.4-17.9c11.1-1.4,21.4,0.8,31.7,2.9c5.8,1.2,11.3,4.6,16.7,7.6c6.1,3.5,10.7,2.8,14.8-3
		c7.3-10.4,17.1-17.6,28.5-23c16.2-7.6,33.4-9.2,50.4-5.4c27.3,6.1,47.5,21.2,55.4,49.6c0.7,2.5,2.6,4.8,4.3,6.9
		c2.3,2.7,5.6,2,8.6,1.3c6.6-1.6,13-1.7,19.6,0c1.7,0.5,3.6,0.4,5.3,0.7c12.9,2.3,24.4,7.5,34.7,15.9c12.3,10.1,20.3,22.5,22.7,38.3
		C509.5,139,509.6,141.3,509.7,143.6z"/>
	<path fill="#1c3963" class="st0" d="M99.3,300c0,10.2-4.1,18.4-12.6,24.1c-5.4,3.6-16.5,1.7-21.3-3.4c-10.7-11.4-11.1-28.9-0.6-40.5
		c7.2-8,21.7-8.3,29.3,2.9C97.7,288.2,99.3,293.9,99.3,300z"/>
	<path fill="#1c3963" class="st0" d="M35.8,348.8c-0.5,6.6-3.2,11.7-8.6,15.2c-3.8,2.5-10.8,0.6-13.9-3.6c-4.7-6.3-5.2-13.1-1.9-20.2
		c2.1-4.4,5.9-7.2,10.7-7.3c5-0.2,8.9,2.7,11.1,7.2C34.5,342.8,34.9,345.9,35.8,348.8z"/>
</g>
</svg>
