<?xml version="1.0" encoding="utf-8"?>
<!-- Generator: Adobe Illustrator 22.0.1, SVG Export Plug-In . SVG Version: 6.00 Build 0)  -->
<svg version="1.1" id="Слой_1" xmlns="http://www.w3.org/2000/svg" xmlns:xlink="http://www.w3.org/1999/xlink" x="0px" y="0px"
	 viewBox="0 0 654.9 712.2" style="enable-background:new 0 0 654.9 712.2;" xml:space="preserve">
<style type="text/css">
	<!-- .st0{fill:#74D0F5;}
	.st1{fill:#75D1F5;}
	.st2{fill:#FEFEFE;} -->
</style>
<g>
	<path fill="#1c3963" class="st0" d="M331.1,483.4c0-19.9,0-39.9,0-59.8c0-4.5,0.9-10.4-5.9-10c-5.6,0.3-5.6,5.6-5.6,10c0,41,0,81.9,0,122.9
		c0,10.7-0.1,10.7-10.9,10.7c-9.7,0-19.4-0.5-29.1,0.1c-19,1.3-27.5-11-27.7-27c-0.3-24.9-4.5-49.2-11.8-73
		c-5.6-18.5-15.1-34.6-26.9-50.1c-67.3-88.1-18.1-202.8,80-225.5c81.6-18.9,161.1,33.8,174.5,116.7c6.7,41.3-4.9,78.7-31.3,110.8
		c-16.7,20.3-25.5,43.4-31.1,68.3c-4.3,18.9-5.7,38.2-6.4,57.6c-0.4,12.6-9.5,21.8-22.1,22c-11.6,0.2-23.2,0.1-34.8,0
		c-9.3,0-10.8-1.4-10.9-10.7C331.1,525.5,331.1,504.5,331.1,483.4z"/>
	<path fill="#1c3963" class="st0" d="M328.2,0.2c84.4,0.7,158.6,28.5,221.4,85.3c56.1,50.8,90.6,113.8,101.6,188.8c13.4,91.5-8.7,174.3-66,247
		c-33.9,43-76.7,75.3-127.3,96.8c-6.3,2.7-22.9-5.4-24.7-12.2c-1.2-4.4,3.1-3.9,5.1-4.7c21.9-8.7,42.7-19.3,62-32.7
		c67.5-46.9,111-110.3,126-191.1c16.9-91.5-5-174.3-64.8-245.9C515.6,76.6,456.9,41.8,386.6,28.8c-95.4-17.6-181.8,4-256.8,66.5
		C76,140.2,41.7,197.6,29,266.5c-16.3,88.2,3.5,168.3,58.6,239.2c34,43.8,77.5,75.1,129.1,95.1c6.8,2.6,7,4.4,2.1,9.4
		c-11.5,11.8-11.5,12.4-26.9,5.4C111.1,578.5,54,518.7,21,436c-18-45.2-23.8-92.3-19.9-140.3c5.2-64.1,28.1-121.9,68.5-172.2
		C122.2,58.2,190.4,19.1,272.6,4.3C290.9,1,309.4-0.6,328.2,0.2z"/>
	<path fill="#1c3963" class="st0" d="M326.4,637.8c-18.9,0-37.7,0.1-56.6,0c-12.6-0.1-19.6-9.9-14.9-20.4c2.7-5.9,7.6-8.3,13.7-8.3
		c38.8-0.1,77.6-0.2,116.5,0c8.8,0,15.1,6.9,14.9,15c-0.2,7.5-6.6,13.6-15.3,13.6C365.2,638,345.8,637.8,326.4,637.8z"/>
	<path fill="#1c3963" class="st0" d="M326.3,597.5c-18.6,0-37.2,0-55.8,0c-11.3,0-17.4-5.1-17.4-14.4c0-8.8,6.8-14.4,17.8-14.4
		c27.5-0.1,55,0,82.4,0c9.4,0,18.9-0.1,28.3,0c11.1,0.2,17.3,5.6,17.2,14.9c-0.1,9.3-5.6,13.8-16.8,13.8
		C363.5,597.5,344.9,597.5,326.3,597.5z"/>
	<path fill="#1c3963" class="st0" d="M326.8,678.1c-18.3,0-36.6,0-55,0c-5.8,0-11.5-0.7-15.2-5.8c-3.1-4.3-4.7-9.1-2-14.4c3-5.8,7.6-8.7,14.3-8.6
		c21.3,0.1,42.6,0,63.9,0c16.7,0,33.4,0,50.1,0c9.9,0,16.6,5.4,17,13.4c0.4,8-6.9,15.2-16.5,15.3
		C364.5,678.3,345.7,678.1,326.8,678.1z"/>
	<path fill="#1c3963" class="st0" d="M116.4,309.5c9.4,0,18.8-0.1,28.2,0c8.9,0.1,14.4,4.8,14.3,11.9c0,6.1-6,11.7-14,11.8
		c-15.9,0.4-31.7,0.2-47.6,0.1c-5.1,0-10.2,0.6-15.2-0.8c-6.3-1.7-10.1-5.8-9.8-12.1c0.4-6.7,5-10.7,11.8-10.9
		C94.9,309.3,105.6,309.6,116.4,309.5C116.4,309.6,116.4,309.5,116.4,309.5z"/>
	<path fill="#1c3963" class="st0" d="M539.2,333.4c-9.7,0-19.4,0.4-29-0.1c-10.5-0.5-16.2-8.3-12.8-16.5c2.1-5.2,6.2-7.2,11.5-7.3
		c20.4-0.1,40.9-0.1,61.3,0c7.2,0.1,12.9,4.9,12.7,10.9c-0.2,7.2-4.5,11.9-11.4,12.3c-10.7,0.7-21.5,0.2-32.2,0.2
		C539.2,333.1,539.2,333.3,539.2,333.4z"/>
	<path fill="#1c3963" class="st0" d="M316.1,112.9c0-10.2-0.1-20.5,0-30.7c0.1-8.1,4.5-12.4,11.8-12.2c6.9,0.2,11,4.4,11,12.1
		c0.1,20.5,0.1,40.9,0,61.4c-0.1,6.9-5.4,12.2-11.8,11.5c-6.5-0.8-11.1-4-11.1-11.4C316.1,133.4,316.1,123.2,316.1,112.9z"/>
	<path fill="#1c3963" class="st1" d="M327.4,686.9c8.1,0,16.1-0.2,24.2,0.1c5.1,0.1,10,1.4,11,7.4c0.9,5.4-4,6.6-7.4,8.1c-6.6,3-13.3,5.9-20.1,8.1
		c-16.6,5.4-29.6-3.7-42.5-11.6c-4.9-3-1.7-9.5,5.2-11.4c1-0.3,2.1-0.6,3.1-0.6C309.7,686.9,318.6,686.9,327.4,686.9
		C327.4,686.9,327.4,686.9,327.4,686.9z"/>
	<path fill="#1c3963" class="st0" d="M188.3,193.1c-2.9,0.1-5.1-1.3-7.1-3.3c-10.3-10.3-20.6-20.5-30.9-30.7c-4.2-4.2-5.4-8.9-0.8-13.4
		c4.2-4,8.6-3.4,12.8,0.7c10.5,10.4,21.2,20.5,31.8,30.9c3,3,4.9,6.4,2.5,10.8C194.8,191.6,192.2,193.4,188.3,193.1z"/>
	<path fill="#1c3963" class="st0" d="M466.5,193.1c-4,0.1-6.5-1.9-8.2-5.3c-2.1-4.1-0.4-7.4,2.4-10.2c7.1-7,14.4-13.7,21.5-20.6
		c4.1-3.9,7.9-8.1,12.1-11.9c3.9-3.5,8.1-2.5,11.6,0.8c3.3,3.2,4,7.6,0.8,10.9c-11.4,11.8-23.1,23.2-34.8,34.8
		C470.4,193,468.4,193.1,466.5,193.1z"/>
	<path fill="#1c3963" class="st0" d="M156.1,498.9c-4.4,0.4-7-1.9-8.7-5.1c-2.1-4-0.3-7.4,2.5-10.2c7.3-7.2,14.7-14.1,22.1-21.2
		c3.7-3.5,7.1-7.4,10.9-10.7c4-3.5,8.4-3.6,12.2,0.2c3.8,3.9,3.6,8.3-0.2,12.2c-10.8,10.9-21.7,21.6-32.6,32.4
		C160.5,498.3,158.4,499.2,156.1,498.9z"/>
	<path fill="#1c3963" class="st0" d="M499.5,498.9c-3.1,0.3-5.3-1.1-7.3-3.1c-10.3-10.3-20.6-20.5-30.9-30.7c-4.2-4.2-5.7-8.7-1.2-13.3
		c4.5-4.5,9.2-3.2,13.4,0.9c10.4,10.1,20.9,20.1,31.2,30.3c3,2.9,5.2,6.4,2.9,10.8C506,497.1,503.3,499.4,499.5,498.9z"/>
	<path fill="#1c3963" class="st2" d="M325.5,358.2c-17.8,0-32-14-32-31.4c0-17.6,14.9-32.1,32.7-31.8c16.6,0.2,31.6,15,31.9,31.4
		C358.4,343.8,343.6,358.2,325.5,358.2z"/>
	<path fill="#1c3963" class="st2" d="M257.4,358.2c-14.9,0-27.2-8.4-31.4-20.9c-4.4-13.1-0.1-27.5,10.7-35.3c12.6-9.2,27-9.4,39-0.6
		c4.2,3.1,6.2,6.9,3.2,11.8c-3.1,5-7.4,5.8-12.4,2.6c-6.8-4.4-13.9-5.2-20,0.6c-5.2,4.8-6.5,11.3-2.7,17.7c3.7,6.1,9.4,8.8,16.6,6.6
		c2.3-0.7,4.4-1.9,6.4-3.2c4.8-3,8.9-1.9,12,2.4c3.4,4.7,1.4,8.9-2.6,11.9C270.4,356,264,358.9,257.4,358.2z"/>
	<path fill="#1c3963" class="st2" d="M392.2,267.9c-0.2,11.8-8.8,24.2-19.5,28.5c-5.4,2.2-9.9,1.2-12.3-3.9c-2.2-4.7-0.6-9,4.5-11.4
		c3-1.4,5.6-3.3,7.3-6.1c3.2-5.4,3.1-10.8-0.6-15.9c-3.7-5-8.8-7.2-14.9-5.8c-6,1.4-9.8,5.4-11.3,11.4c-0.2,0.8-0.2,1.6-0.1,2.4
		c0.5,6.9-0.7,12.9-9.2,13c-6,0.1-9.3-6.2-8.6-15c1.3-16.3,16.8-30.2,32.9-29.6C378,236.2,392.5,251.1,392.2,267.9z"/>
	<path fill="#1c3963" class="st2" d="M394,358.2c-6.1,0.7-11.9-2.1-17.4-5.6c-4.4-2.9-7.5-7-4.1-12.2c3.2-5.1,7.7-5.8,13.2-2.5
		c8.6,5.2,15.4,4.6,20.3-1.4c4.5-5.5,5.6-11.6,1.1-17.8c-4.6-6.4-10.9-7.4-17.9-5c-1.5,0.5-2.8,1.5-4.2,2.4c-4.7,3-8.8,2-12-2.3
		c-3.5-4.7-1.5-8.7,2.4-11.9c16.6-13.9,44.8-5,50.6,15.9C431.8,338.6,416.6,358.3,394,358.2z"/>
	<path fill="#1c3963" class="st2" d="M392.4,384.1c-0.1,19.1-14.4,33.5-31.5,33.8c-17,0.3-32.9-14.6-33.1-31.2c0-2.9,0.8-5.9,1.9-8.6
		c1.6-3.7,5.1-4.5,8.8-4.1c4,0.5,6.4,2.8,6.8,6.8c0.3,2.4-0.3,4.9,0.3,7.2c1.5,7.1,5.9,11.4,13.3,12.1c6.9,0.7,12.4-2,14.8-8.7
		c2.4-6.6,1.2-12.8-4.9-17.3c-0.4-0.3-0.9-0.7-1.3-0.9c-5.8-2.6-9.8-6.3-6.6-13.2c2.3-5,8.5-5.4,15.7-1.3
		C386.9,365,391.9,374.3,392.4,384.1z"/>
	<path fill="#1c3963" class="st2" d="M292,417.9c-15.5,0.1-28.9-10.6-32.1-25.6c-2.9-13.4,4.6-28.3,17.2-34.3c5.4-2.6,10.8-3.1,13.9,3
		c2.7,5.4-0.4,8.9-5.2,11.7c-8.2,4.7-10.7,11.3-7.8,18.9c2.3,6.2,9,9.6,16.6,8.5c6.9-1,11.7-7.2,11.7-16c0-5.6,1.3-9.7,7.6-10.2
		c6.1-0.5,8.3,3.1,9.4,8.6C326.6,399.6,310.6,417.8,292,417.9z"/>
	<path fill="#1c3963" class="st2" d="M291.3,236.4c19.4,0.1,32.9,14.5,31.7,33.7c-0.4,5.9-2.8,10.3-9,10.1c-5.8-0.2-7.8-4.2-7.9-10
		c-0.1-12.8-9.3-19.9-19.8-16.1c-6,2.2-9.3,6.7-9.6,12.7c-0.3,5.9,2.1,11.1,7.9,13.8c5.1,2.4,9.3,5.6,6.6,11.7
		c-2.4,5.4-7,6.8-12.8,4.3c-14.2-6.2-21.9-21-18.6-36.4C262.7,246.3,276,236.3,291.3,236.4z"/>
	<path fill="#1c3963" class="st0" d="M325.6,312.6c7.8,0,14.7,6.3,14.9,13.8c0.2,7.9-6.8,15.1-14.7,15.1c-8.2,0-14.6-6.6-14.6-15
		C311.3,318.1,316.9,312.7,325.6,312.6z"/>
</g>
</svg>
