<svg xmlns="http://www.w3.org/2000/svg" width="67" height="67" viewBox="0 0 67 67"><defs><style>.a{fill:#2ac54d;}</style></defs><path class="a" d="M225.79,214.687l-11.32-11.32,5.552-5.552a1.963,1.963,0,0,0-.767-3.25l-33.311-11.1a1.963,1.963,0,0,0-2.483,2.483l11.1,33.311a1.963,1.963,0,0,0,3.25.767l5.552-5.552,11.32,11.32a1.962,1.962,0,0,0,2.776,0l8.328-8.328A1.963,1.963,0,0,0,225.79,214.687Zm-9.716,6.94-11.32-11.32a1.963,1.963,0,0,0-2.776,0L197.284,215l-8.858-26.574L215,197.284l-4.694,4.694a1.963,1.963,0,0,0,0,2.776l11.32,11.32Z" transform="translate(-159.365 -159.365)"/><path class="a" d="M181.963,15.7a1.963,1.963,0,0,0,1.963-1.963V1.963a1.963,1.963,0,0,0-3.926,0V13.74A1.963,1.963,0,0,0,181.963,15.7Z" transform="translate(-156.445)"/><path class="a" d="M56.071,53.3A1.963,1.963,0,0,0,53.3,56.071L61.623,64.4A1.963,1.963,0,0,0,64.4,61.623Z" transform="translate(-45.822 -45.822)"/><path class="a" d="M61.623,244.214,53.3,252.542a1.963,1.963,0,0,0,2.776,2.776L64.4,246.99a1.963,1.963,0,1,0-2.776-2.776Z" transform="translate(-45.822 -211.757)"/><path class="a" d="M246.99,64.4l8.328-8.328a1.963,1.963,0,1,0-2.776-2.776l-8.328,8.328A1.963,1.963,0,0,0,246.99,64.4Z" transform="translate(-211.757 -45.822)"/><path class="a" d="M15.7,181.963A1.963,1.963,0,0,0,13.74,180H1.963a1.963,1.963,0,0,0,0,3.926H13.74A1.963,1.963,0,0,0,15.7,181.963Z" transform="translate(0 -156.445)"/></svg>