<?xml version="1.0" encoding="utf-8"?>
<!-- Generator: Adobe Illustrator 22.0.1, SVG Export Plug-In . SVG Version: 6.00 Build 0)  -->
<svg version="1.1" id="Слой_1" xmlns="http://www.w3.org/2000/svg" xmlns:xlink="http://www.w3.org/1999/xlink" x="0px" y="0px"
	 viewBox="0 0 1027.7 122.9" style="enable-background:new 0 0 1027.7 122.9;" xml:space="preserve">
<style type="text/css">
	.st0{fill:#0B0B0B;}
	.st1{fill:#0A0A0A;}
	.st2{fill:#FAFAFA;}
	.st3{fill:#CF0A00;}
	.st4{fill:#4AB816;}
	.st5{fill:#1141B6;}
	.st6{fill:#F0E000;}
	.st7{fill:#8134A7;}
	.st8{fill:#26ADDB;}
	.st9{fill:#F7F7F7;}
	.st10{fill:#E18300;}
	.st11{fill:#0E0E0E;}
	.st12{fill:#101212;}
	.st13{fill:#0E0D0D;}
	.st14{fill:#F9F9F9;}
	.st15{fill:#FCFCFC;}
	.st16{fill:#FEFEFE;}
</style>
<g>
	<path class="st0" d="M441.1,1.1c8-1.3,14.2-1.1,19-1c14.5,0.4,25.4,3.3,31,5c3.2,1,4.8,1.5,6.1,2.1c9.4,4.7,17,17.1,15.6,30.7
		c-1.1,10.8-9,19.4-19.9,18.7c-6.1-0.4-11.5-2.6-15.4-7.9c-4.5-6.2-9.9-11.4-17.1-14.6c-6.6-2.9-12.9-2.2-19.1,0.3
		c-7,2.7-9.9,12.6-7.3,22.5c3.4,12.8,11.5,21.1,23.6,26c8.9,3.6,17.5,3,25.7-2.3c3.2-2.1,6.6-3.8,9.8-5.8c4.7-3,9-2.5,12.9,1.4
		c4,4,6.4,8.1,4.9,14.3c-4.2,16.8-18.1,23.4-32.1,27.2c-40.4,10.8-64.7,2.6-90.2-26.7c-8.6-9.9-8.8-23.5-7.3-36.6
		c1.6-13.6,8.7-24.4,17.7-33.8C410.3,9,423.9,5.4,430.5,3.5C435.6,2,440.3,1.2,441.1,1.1z"/>
	<path class="st1" d="M90.1,32.2c8.3,3.7,10.4,11.8,11.1,19.2c0.9,9.3,0,18.8-3.7,27.7c-3,7.3-8.2,10.7-14.1,9.5
		c-5.8-1.2-8-5.2-9.1-10.5c-0.5-2.5,0.2-6.4-4.7-6.2c-3.6,0.2-5.7,0.9-5.4,5.1c0.3,4,0.1,8,0.1,12c0,3.3,1.4,5.7,4.7,5.8
		c6.4,0.2,13,0.8,19.2-0.3c6.1-1.1,12.3-3,15.9-9.4c1.9-3.4,5.1-6.2,8.6-8.2c4.2-2.5,8.4-3.3,13-0.5c4.5,2.7,7.1,6.1,6.8,11.6
		c-0.4,11.2-4.6,21-11.2,29.7c-2.6,3.4-6.8,5.8-11.6,4.9c-15-3.1-30.2-2.7-45.4-2.6c-17,0-34-0.1-51-0.3c-0.7,0-6.3,0-10.1-3.2
		c-0.7-0.6-2.5-2.1-2.9-4.5c-0.3-1.3-0.1-2.5,0-3c0.1-0.3,0.3-1.5,1-3c0.8-1.6,2-3.1,5-5.5c2.9-2.4,3.5-2.2,4.6-3.4
		c2.4-2.6,3.5-6,4-9.9c2.4-16.7,1.8-33.4,1.7-50.2c-0.1-5.9-2.2-10.6-8.6-12.8c-4.5-1.6-7.1-5.9-6.4-10.4c0.8-4.5,3.4-8.3,8.9-9.3
		c6.3-1.2,12.6-1,19-1c25.2-0.3,50.4,1.4,75.5-1.5c9.8-1.1,17.6,4.6,20.1,14.3c1.9,7.5,3.8,15.1-2,22.2c-5,6.2-12.7,7.1-18.5,1.5
		c-3.6-3.4-6.6-7.6-11.9-8.7c-6.7-0.9-13.4-0.8-20.1-0.8c-2.9,0-5.7,0.1-7,3.4c-1.5,3.8-2.4,7.9-0.5,11.6c1.4,2.8,4,1.9,6-0.1
		c1.6-1.6,1.9-3.9,2.7-5.9C76.9,32.2,82.6,29.6,90.1,32.2z"/>
	<path class="st0" d="M737.2,86.7c-2.6,2.4-3.4,5.2-4.3,8.1c-2.6,8.9-7.3,16.4-14.5,22.3c-9.3,7.6-24.9,2.7-28.5-8.9
		c-1.1-3.6-1.7-7.4-2.3-11.1c-0.6-4.1-2.1-7.6-5.4-10.6c-1.5,2.5-2.6,5-4.3,7.2c-2.9,3.8-3.5,7.1-0.3,11.4c3.2,4.3,2,8.6-2.7,11.7
		c-4.4,2.9-9.2,3.4-14.3,3.6c-7.8,0.3-15.6,1.2-23.2-1.3c-3.5-1.1-5.8-3.3-6.4-7.1c-0.5-3.6-0.5-7.5,3.2-8.9
		c13-4.8,16.9-17.1,23.3-27.4c6.8-11,12.1-22.9,19.8-33.3c1.5-2.1,3.2-4.2,5.2-5.8c5.8-4.7,10.5-4.4,15.8,0.8
		c7.2,7.1,11.7,16.2,17.6,24.2c4.2,5.7,4.1,5.7,7.5-0.4c4.3-7.8,8.4-15.8,13.9-22.9c5-6.5,12.1-6.9,17.7-0.7
		c9.1,10,14,22.7,21.4,33.8c7.3,11,13.4,22.7,26.1,29c5.4,2.7,4.1,11.5-1.8,15c-6.7,4-14.3,5.2-21.9,5.3c-9.2,0.2-18.4,1.2-27.5-1.4
		c-8.2-2.3-11.8-8.9-8.8-16.7C743.9,98.9,742.5,94.8,737.2,86.7z"/>
	<path class="st0" d="M322.6,110.2c-9.1,5.5-18.5,9.5-29.8,8.9c-16.9-0.9-29.9-14.9-28-31.8c0.5-4.4,0.6-8.8,0.9-13.2
		c0.4-6.1-0.9-10.9-6.5-15c-7.1-5.2-6.1-11.9,2-15.9c11.8-5.8,24.4-8.9,37.5-9.7c11.5-0.7,14.3,2.9,12.6,14.4
		c-1.8,12-2.4,24.1-2.4,36.2c0,4.6,1.9,7.6,6.2,8c4,0.3,6.2-2.2,7.2-6.4c1.6-6.6,0.7-13.1,0.8-19.7c0-3.8-3.9-5.3-6.1-7.8
		c-5.7-6.3-5.1-10,2.1-14c12.7-7,26.6-9.2,40.7-10.6c5.7-0.6,9.3,2.9,10.3,9.3c1.1,7.2,0.1,14.4-0.9,21.5
		c-1.1,7.8-0.8,15.5-1.4,23.3c-0.2,3.1,0.6,5,3.6,6.6c6.7,3.7,7,11.6,0.7,15.5c-13.5,8.4-28.6,9.2-43.8,8.7
		C323.5,118.7,324.9,113.2,322.6,110.2z"/>
	<path class="st0" d="M861.5,121.4c-10.8-0.7-23.7,1.6-36.3-2.2c-2.3-0.7-4.6-1.3-6.8-2c-8.2-2.7-12.6-13.3-3.6-19.5
		c4.5-3.1,6.2-6.9,5.5-12.2c-0.3-2.8-0.2-5.6,0-8.4c0.4-6.3-0.7-11.4-5.5-16.7c-9.6-10.6-4.1-19.6,7.4-23.4
		c19.5-6.4,39.5-5.1,59.3-4.4c10.5,0.4,20.4,5.2,28,13.2c4.2,4.4,4.5,12.3,0.8,16.5c-4.3,4.9-12.9,5.9-18.7,1.8
		c-2.8-1.9-5-4.5-7.5-6.8c-1.9-1.7-3.6-3.8-5.8-5.1c-6.5-3.8-9.5-2-9.5,5.4c0,3.4-1,7.6,0.6,9.9c1.7,2.5,5.7-0.7,8.8-0.4
		c12.6,1.1,24.4,3.8,33.7,13.1c12.4,12.4,5.2,31.8-7.9,37.2c-6.4,2.6-12.7,4.5-19.7,4.1C877.4,121.1,870.4,121.4,861.5,121.4z"/>
	<path class="st0" d="M568,91.3c-2.5,4.6-5.5,9.1-7.6,13.9c-8.1,18.7-23.2,17.6-37.1,14.3c-4.2-1-7-4.2-7.6-9.1
		c-0.6-5,2.3-7.8,6.1-9.2c7.1-2.5,10.8-8.5,15.5-13.5c1.7-1.9,2.1-2.8-1.1-4.2c-9.8-4.5-15.7-12.3-15.2-23.5c0.5-11,6.9-18,16.8-22
		c10-4.1,20-6.4,31.4-5c10.7,1.4,21.8-0.4,32.8-0.7c2.8-0.1,5.6-0.4,8.4,0c4.9,0.6,7.8,2.9,7.7,8.6c-0.3,16,0,32-0.1,48.1
		c0,3.2,0.8,5.4,3.3,7.8c9.4,9.2,8,16.9-4.4,21.5c-14.5,5.3-29.5,3.9-44.2,0.3c-5.1-1.2-8.2-9.9-6.6-15.7
		C566.9,99.2,569.8,96,568,91.3z"/>
	<path class="st0" d="M945,67.7c-3.2-0.7-6-1-8.6-1.9c-9-3.2-11.3-13.3-4.5-20.2c3.6-3.7,7.5-7.2,12.7-8.8
		c17.7-5.3,35.6-7.5,53.5-0.7c13.1,5,19.3,15.1,20,28.6c0.4,7.2,0.2,14.4-0.3,21.6c-0.2,3.1,0.6,4.7,3.3,6.1
		c7.3,3.5,8.5,8.9,3.9,15.5c-9,12.8-31.9,16.3-43.8,6.7c-2.4-1.9-3.9-2.6-7-0.4c-12.1,8.9-43,6.3-50.4-11.3
		c-4.9-11.5-0.5-23.8,10.7-30.6C937.7,70.4,941.4,69.2,945,67.7z"/>
	<path class="st0" d="M217,121.2c-6.3-0.4-13.1,0.7-19.8-1c-13.1-3.5-15.6-10.2-7.6-21c2.1-2.8,0.2-10.6-2.8-12.3
		c-1.5-0.8-2.2,0-3.1,0.9c-5.4,5.2-6.4,11.6-2.5,17.8c2.9,4.7,1.3,10-3.4,11.9c-11.7,4.7-23.8,4.8-35.9,2.7
		c-4.8-0.8-8.4-3.5-9.4-8.8c-1-5.1,1.6-8.4,5.8-9.9c12.2-4.5,14.8-16.4,20.4-25.9c7.8-13.4,14.7-27.4,25.4-38.9
		c5.1-5.5,14.2-5,20,1.4c6.6,7.4,12.3,15.6,17.6,24c5.4,8.6,10.3,17.5,15,26.4c2.4,4.6,5.5,8.1,10.4,10.2c4.6,2,9.1,4.8,8,10.5
		c-1,5.1-4.7,8-10.1,9.7C235.7,121.6,226.6,121,217,121.2z"/>
	<path class="st2" d="M90.1,32.2c-9.7-0.7-12.6,1.5-15.6,10.5c-0.9,2.8-1.8,6.3-6.1,6.4c-3.6,0.1-5.4-0.6-5.5-4.9
		c-0.3-14.8,0.6-16,15.2-15.3c4.9,0.2,10-0.9,14.4,2.3C91.7,31.5,90.9,31.9,90.1,32.2z"/>
	<path class="st3" d="M75.8,25.2c-1.2,0-2.4,0-3.6,0c-10,0-12.3,2.3-12.5,12.6c0,2.2,0.2,4.4,0,6.6c-0.4,4.1,0.7,7.4,5.3,7.9
		c4.4,0.5,9,0.7,11-4.7c0.7-1.9,2.1-3.3,2.2-5.5c0.1-4.6,3.6-6,7.2-6.7c3.7-0.7,6.4,1.1,8.4,4.4c5.7,9.5,4.1,19.6,2.8,29.6
		c-0.6,4.3-1.7,8.7-4.5,12.3c-2.1,2.7-4.9,4.1-8.4,3.4c-3.3-0.7-5-3-5.6-6.3c-0.3-1.8-0.9-3.5-1.3-5.2c-1.2-5.2-4.8-5.6-9.2-5.2
		c-4.6,0.5-6.8,2.8-6.6,7.5c0.1,4.6,0.1,9.2,0,13.8c-0.1,4.9,2.9,8.1,6.9,8.4c7.5,0.6,15.2,1.3,22.7-0.7c6.9-1.8,13.2-4.5,17-11.2
		c1.6-2.8,4.2-4.9,6.9-6.5c6.7-4,14.4,0.2,14.3,8c0,10.4-4.2,19.4-10.1,27.7c-1.9,2.7-5.1,4.5-8.9,3.8C95,116.3,80,116.4,65,116.5
		c-16.2,0.1-32.5,0.1-48.7-0.1c-3,0-6.1-0.3-8.9-1.2c-4.3-1.4-5.7-7.9-1.8-10c10-5.3,11.7-13.8,13-24.3c2-15.6,1.2-31,0.7-46.5
		c-0.2-6.1-3-10.6-9.1-12.8c-3.5-1.2-6-3.9-5.3-7.7c0.6-3.5,3.3-6,7.1-6.4C17.5,6.9,23.1,7,28.6,7C54,6.8,79.4,8.7,104.8,5.2
		c7.4-1,14.2,3.2,16.3,10.5c2.1,7,4.5,14.3-1.2,21c-3.2,3.7-9.4,4.9-12.5,1.2C98.9,28.1,88.5,24.1,75.8,25.2z"/>
	<path class="st4" d="M450.3,118.1c-26.5,1.6-45.3-12.1-60.1-31.1c-7-8.9-7.1-21.3-5.3-32.9c2.6-17.6,12.9-31,27.3-39.5
		c15.8-9.4,31.2-10.5,42.4-11.1c5.8-0.3,9.9,0,17.6,0.6c0,0,12,0.9,19,4c2.4,1.1,4.4,2.6,4.4,2.6l0,0c1.4,0.9,4.5,3.5,6.6,6.4
		c8.4,11.9,7.4,20.1,7.4,20.1c-0.6,5.2-3.8,13-10.4,15.4c-5.9,2.2-14.4-0.1-18.4-5.4c-5.5-7.3-11.8-13.6-20.6-16.8
		c-8.8-3.2-17.3-2.2-24.3,3.5c-7,5.7-6.8,14.5-5.2,22.3c3.5,17.5,17.4,29.6,35.3,32c6.7,0.9,12.7-1,18.3-4.3
		c3.1-1.8,6.1-3.8,9.3-5.5c3.1-1.6,6.1-4,9.6-0.4c3.5,3.6,5.7,6.9,4.3,12.5c-1.5,6.4-5.4,10.3-10.3,14
		C483.1,115.3,467.1,119,450.3,118.1z"/>
	<path class="st5" d="M768,117.6c-4.3,0.2-9.9,0.1-15.3-1.3c-6.5-1.7-9.2-6.7-6.8-12.9c1.7-4.6-3-17.3-7.3-19.9
		c-2-1.2-3.3-0.6-4.5,1.2c-1.9,2.6-3.5,5.4-4.2,8.5c-1.9,8.3-6.6,14.9-12.7,20.6c-7.2,6.7-20,3.5-23.6-5.7c-1.2-2.9-1.6-6.2-2.3-9.3
		c-0.6-2.5-0.8-5.2-1.6-7.6c-1.4-3.8-3.6-8.2-7.5-8.8c-3.2-0.4-3.7,4.6-5.5,7.1c-1.6,2.3-3,4.8-4.2,7.2c-1.2,2.4-1.5,4.5,0.6,7.1
		c4.9,6.2,3.7,10.6-4,12c-9.8,1.8-19.8,2.9-29.7,0.3c-2.4-0.6-4.3-1.7-4.7-4.7c-0.4-3,0.1-5.4,2.9-6.5c12.8-4.7,16.5-16.9,22.7-27.1
		c6.4-10.6,12.5-21.3,18.8-31.9c1-1.7,2.3-3.3,3.6-4.8c5.5-6,9.3-6,14.8-0.1c6.3,6.8,10.6,15,16,22.5c6.6,9.2,7.3,9.1,12.9-0.5
		c4.4-7.5,8.1-15.5,13.6-22.4c4.4-5.5,8.7-5.9,13.2-0.7c9.4,11,14.9,24.5,22.9,36.5c6.6,10,12.7,20.3,24.1,26.1
		c4.4,2.2,3.4,7.4-1.8,10.3c-6.5,3.6-13.8,3.9-20.9,4.6C774.6,117.8,771.9,117.6,768,117.6z"/>
	<path class="st6" d="M326.9,72.7c1.6-5.9-1.1-11.4-6.7-16.3c-5.1-4.5-4.6-5.8,1.2-9.1c12-6.6,25.1-8.5,38.5-9.9
		c3.9-0.4,5.9,1.6,6.7,5.3c1.6,7.4,0.1,14.8-0.7,22c-1,8.8-0.8,17.5-1.3,26.3c-0.2,3.1,1.6,4.6,4.1,6c6.4,3.7,6.4,7.4,0.1,11.3
		c-9.9,6.2-21.1,6.6-32.2,7.1c-4.7,0.2-9.5,1-10.1-6.2c-0.3-3.3-2.9-3.4-5.7-1.6c-8.4,5.3-17.2,8.6-27.6,8
		c-14.6-0.8-25.6-11.8-24.7-26.4c0.4-6,1.3-11.9,1.1-17.9c-0.2-5.5-1.7-9.9-6.4-13.4c-6.7-5-6.3-8.7,1.4-12
		c11.2-4.9,23-8.1,35.3-8.5c8.2-0.2,9.7,1.5,8.4,9.5c-2,12.6-2.5,25.3-2.3,38.1c0.1,4.3,1.3,7.7,5.4,9.9c6.5,3.5,14.4,0.1,15.8-11.6
		C327.2,80.2,326.9,77.1,326.9,72.7z"/>
	<path class="st7" d="M861.3,117.8c-9.9-0.7-22,1.4-33.8-1.4c-3.1-0.7-6.2-1.6-9.1-2.9c-6.1-2.8-7.2-9-1.8-12.7
		c5.8-4.1,7.7-9.2,7-15.9c-0.3-3-0.2-6,0-9c0.5-6.8-0.7-12.3-6-17.7c-7.5-7.5-4.9-14.1,5.1-17.6c18.9-6.6,38.6-5.8,58-4.9
		c9.5,0.5,19,4.4,26,12c3.2,3.5,4.6,7.3,2,11.4c-2.6,4-6.7,5.4-11.6,3.9c-4.2-1.3-7.1-4.3-10-7.3c-2.2-2.3-4.2-4.8-7.1-6.4
		c-3.7-2-7.8-2.3-11.6-1.6c-5.9,1.2-2.1,6.2-2.7,9.4c-0.6,3.5,0.1,7.2-0.2,10.8c-0.4,4.3,2,4.9,5,4c12-3.5,22.9,0.3,33.2,5.6
		c8,4.1,12.4,11.4,11,20.8c-1.1,7.4-5,12.9-12.4,16.1c-5.5,2.4-10.8,3.6-16.7,3.4C878.1,117.6,870.7,117.8,861.3,117.8z"/>
	<path class="st8" d="M614.6,66.7c0,5.2,0.2,10.4-0.1,15.6c-0.4,7.5,0,14.2,6.4,20c4.9,4.4,3.6,8.5-2.4,11.7
		c-4.7,2.5-9.6,4-14.9,3.8c-8.6-0.2-17.2,0.7-25.7-1.2c-8-1.8-11.2-7.4-7.8-15c1.4-3.1,2.6-6.3,3.1-9.6c0.3-1.9,0.8-4.3-1.6-5.3
		c-2.6-1.1-4.9,0.3-6.2,2.5c-3.1,5.3-6.2,10.7-8.8,16.3c-5.5,11.7-23,17-33.9,10.1c-4.8-3.1-5.1-8.4,0.3-10.6
		c7.6-3.2,12.4-9,17.2-15c4.1-5.2,3.5-6.6-2.4-9.2c-7.6-3.4-12.5-9.3-13.4-17.7c-1-9.4,3.9-16.4,12-20.3c10.1-4.9,20.5-7.5,32.3-5.8
		c10.5,1.5,21.4-0.2,32.2-0.6c2-0.1,4-0.4,6-0.5c5.3-0.3,8.2,1.4,7.7,7.6C614.2,51,614.6,58.8,614.6,66.7z"/>
	<path class="st3" d="M1014.4,77c0,2.4,0.2,4.8,0,7.2c-0.6,5.4-0.1,9.5,6.2,11.7c3.9,1.3,4.6,5,2.3,8.9
		c-6.1,10.2-30.5,16.9-39.3,7.2c-3.7-4.1-7-3.8-11.3-0.6c-8.9,6.6-30.5,5.7-40.1-2.9c-11-9.8-8.6-26.8,4.8-33.6
		c10.2-5.1,21-8.8,32.9-5.4c3.5,1,5.8-0.3,5.4-4.5c-0.2-2.6,0-5.2-0.1-7.8c-0.2-3.9-2.1-7.7-5.4-8.7c-3.8-1.1-7.9,0.7-10.4,4.3
		c-3,4.6-7.4,7.2-12,9.6c-4.6,2.4-12.4,0.5-14.5-3.6c-2.6-5-0.5-8.9,3.4-12.6c5.1-5,11.3-7.4,18-8.8c10.5-2.3,21.2-2.7,31.6-1.3
		c18.5,2.6,28.6,12.7,28.8,29.4c0,3.8,0,7.6,0,11.4C1014.5,77,1014.5,77,1014.4,77z"/>
	<path class="st9" d="M948.1,66.3c5.9-4.1,11.3-6.6,14.4-12c1.1-1.9,3.6-2.9,5.7-2.4c1.9,0.5,3,2.6,3.3,4.6c0.3,2.3,0.2,4.7,0.4,7.1
		c0.1,1.8-0.7,2.8-2.5,2.2C962.7,63.8,956.1,64.9,948.1,66.3z"/>
	<path class="st10" d="M216.8,117.6c-6-0.5-13.2,1.1-20.3-1.2c-9-3-10.3-7.4-4.3-14.8c3.7-4.6,1-16.1-4.4-18.4c-2.6-1.1-4.8,0-6.4,2
		c-3.5,4.4-6.1,9.3-7.2,14.9c-0.5,2.7,1.4,4,2.7,5.6c3.6,4.6,2.9,7-2.6,9.2c-10.6,4.2-21.6,3.5-32.5,1.7c-3-0.5-5.5-2.4-6-5.9
		c-0.4-2.9,0.9-4.9,3.3-5.7c13.6-4.7,16.8-17.7,22.9-28.3c7.3-12.8,13.8-26.1,24.1-36.9c4.5-4.7,10.6-4.8,15,0.6
		c8.7,10.6,16.9,21.6,23.2,34c3.5,7.1,8,13.8,12,20.6c2,3.5,5.6,5.6,9.4,7.1c3.1,1.2,6.5,3.2,5.9,6.6c-0.7,3.3-3.4,5.6-7.4,6.8
		C235.5,118,226.8,117.6,216.8,117.6z"/>
	<path class="st11" d="M862.9,88.5c-0.2-4.2,0.6-7.4,6-7.3c6.7,0.2,12.3,4.7,12.1,10.4c-0.2,6.7-4.2,11.7-9.4,11.5
		C865.1,102.8,862.9,99.1,862.9,88.5z"/>
	<path class="st12" d="M578.5,53.5c-0.1,11.4-2.6,15.2-10.1,15.1c-6.9-0.1-10.1-3.8-9.9-11.9c0.1-6.4,4.9-10,12.7-10.3
		C576.9,46.1,578.7,48.7,578.5,53.5z"/>
	<path class="st13" d="M977.6,86c-0.1,10-2.9,14.7-9,14.9c-5.7,0.2-9.3-4.2-9.3-11.4c0-6.2,5.1-11.1,11.5-11.2
		C976,78.3,977.6,81.4,977.6,86z"/>
	<path class="st14" d="M877.5,92.1c-0.5,3.3-0.9,7.6-6,7.4c-7.4-0.3-3.9-6.9-5.3-10.7c-0.7-1.8-0.8-4.5,2.8-4.6
		C873.4,84.2,877.4,87.5,877.5,92.1z"/>
	<path class="st15" d="M568.6,65c-2.6-0.3-5.2-0.3-6-3.7c-0.9-3.6-1.4-7.1,2.1-9.7c2.8-2.1,6-1.8,9.2-1.5c0.1,0,0.3,0.2,0.4,0.4
		c2.3,4.2-0.5,8.1-0.7,12.2C573.3,65.4,570.5,64.7,568.6,65z"/>
	<path class="st9" d="M974.4,86.6c-3,2.8,2,10.5-6,10.6c-4.5,0-5.7-3.6-5.5-7.6c0.1-4.5,3.5-7.6,8.1-7.7
		C974.3,81.7,973.9,84.2,974.4,86.6z"/>
</g>
<path class="st16" d="M513.1,8.1"/>
</svg>
