<?xml version="1.0" encoding="utf-8"?>
<!-- Generator: Adobe Illustrator 22.0.1, SVG Export Plug-In . SVG Version: 6.00 Build 0)  -->
<svg version="1.1" id="Слой_1" xmlns="http://www.w3.org/2000/svg" xmlns:xlink="http://www.w3.org/1999/xlink" x="0px" y="0px"
	 viewBox="0 0 904.5 902.2" style="enable-background:new 0 0 904.5 902.2;" xml:space="preserve">
<style type="text/css">
	.st0{fill:#51B417;}
	.st1{fill:#30A5E2;}
</style>
<g>
	<path class="st0" d="M904,718.9c1.8,11.5-2.4,24.3-4.7,37.3c-8.5,48.1-36.7,82-78.4,105.7c-27.2,15.4-56.3,26.6-86.4,34.6
		c-33.5,9-67.3,6.4-100.8-1c-56.3-12.5-110.1-32.2-162-56.9c-50.5-24-97.8-53.4-142.2-87.4c-55.6-42.7-105.2-91.6-149.8-145.5
		c-37-44.7-71-91.5-100.4-141.6c-19.5-33.2-34.6-68.6-47-105c-11.9-34.8-20.2-70.6-29-106.2c-5.3-21.3-2.6-42.2-2.8-63.3
		c-0.1-11.2,5.3-22.2,8.8-33.1c10.4-32.1,24.6-62.5,42.8-91C72.7,33.3,102.6,15.2,139.2,7c15.3-3.4,30.8-5,46.4-6.7
		c16.5-1.9,26.7,7.9,34.7,20.1c15.9,24.2,29.2,50,43,75.4c16.6,30.6,35.3,59.9,53.8,89.3c4.7,7.5,9,15.2,10.8,24
		c3.3,16.3-5.2,27.8-15.9,38.3c-21,20.5-44,38.8-66.2,57.8c-7.8,6.7-15.7,13.4-22.5,21.2c-9.5,11-11.7,23.1-6.6,36.7
		c6,16,14.7,30.6,23.2,45.3c24.2,42,52.3,81.1,84.6,117.2c46,51.3,98.8,94.5,158,129.8c18.1,10.8,36.4,21.5,55.9,29.7
		c14.2,6,27.1,4.4,38.9-5.9c13.5-11.8,24.2-26.1,35.8-39.6c15.2-17.9,29.6-36.5,47-52.4c16.2-14.8,30.7-16.5,50.1-5.8
		c15.1,8.4,30,17.2,45,25.9c35.9,20.7,71.7,41.5,107.7,62.1c13.9,8,26.4,18,39.3,27.4c1.6,1.2,1.8,2.6,1.8,4.3
		C904,706.2,904,711.6,904,718.9z"/>
	<path class="st1" d="M528.2,129c59.7,0.5,113.1,19.1,159.7,56.4c51.4,41.1,82.3,94.6,94.8,159c3.5,18.2,4.7,36.6,4.3,55.1
		c-0.3,13.8-8.8,24.9-21.6,28.6c-15.8,4.5-32-8-31.8-24.4c0.8-63.1-19.4-118.1-64.9-162.6c-31.4-30.6-69.5-48.7-112.6-56.1
		c-15-2.6-30.1-2.9-45.3-3.1c-15.1-0.1-26.4-13.2-24.6-27.9c1.6-13.2,12.7-24,26-24.9C517.5,128.7,522.9,129,528.2,129z"/>
	<path class="st1" d="M518.5,220.9c84.5,0.3,156.3,59.7,172.2,142.7c2.7,13.9,4.1,28,3.3,42.2c-0.7,11.4-6.4,19.9-16.9,24.6
		c-10.5,4.7-20.1,1.7-29.2-4.4c-1-0.7-1.5-1.7-1.8-2.9c-2.3-8.4-3.9-16.7-4.1-25.5c-1.6-63.8-47.8-113.5-105.5-122.8
		c-8.9-1.4-17.8-2-26.8-2c-15.5,0-26.4-10.1-26.6-24.5c-0.2-14.1,12.1-26.9,26.4-27.3C512.5,220.9,515.5,221,518.5,220.9z"/>
	<path class="st1" d="M583.4,377.1c-0.4,15.9-11.4,28.5-26,38.6c-15.4,10.7-36.1,9.8-50.9-1.5c-15.9-12.2-23-32.5-16.2-50.1
		c10.3-26.8,37-43.3,66.3-31.6C572.9,338.9,583.1,355.2,583.4,377.1z"/>
</g>
</svg>
