<?xml version="1.0" encoding="utf-8"?>
<!-- Generator: Adobe Illustrator 22.0.1, SVG Export Plug-In . SVG Version: 6.00 Build 0)  -->
<svg version="1.1" id="Слой_1" xmlns="http://www.w3.org/2000/svg" xmlns:xlink="http://www.w3.org/1999/xlink" x="0px" y="0px"
	 viewBox="0 0 927.8 834.5" style="enable-background:new 0 0 927.8 834.5;" xml:space="preserve">
<style type="text/css">
	.st0{fill:#FEFEFE;}
	.st1{fill:#326668;}
	.st2{fill:#727982;}
	.st3{fill:#71767D;}
	.st4{fill:#6C727D;}
	.st5{fill:#5F6A7C;}
	.st6{fill:#84898E;}
	.st7{fill:#848790;}
	.st8{fill:#8E8887;}
	.st9{fill:#717984;}
	.st10{fill:#81868F;}
	.st11{fill:#B3748F;}
	.st12{fill:#AA738B;}
	.st13{fill:#868B95;}
	.st14{fill:#5E656E;}
	.st15{fill:#B783A8;}
	.st16{fill:#934E6F;}
	.st17{fill:#D29BB7;}
	.st18{fill:#757984;}
	.st19{fill:#958F9C;}
	.st20{fill:#7F8A93;}
	.st21{fill:#757293;}
	.st22{fill:#83898E;}
	.st23{fill:#775678;}
	.st24{fill:#965F79;}
	.st25{fill:#868F95;}
	.st26{fill:#86898E;}
	.st27{fill:#516F9D;}
	.st28{fill:#E0E0DF;}
	.st29{fill:#D3C0CC;}
	.st30{fill:#9E7CAA;}
	.st31{fill:#726E6F;}
	.st32{fill:#888382;}
	.st33{fill:#676362;}
	.st34{fill:#786E6C;}
	.st35{fill:#696460;}
	.st36{fill:#625356;}
	.st37{fill:#807A7D;}
	.st38{fill:#50B0B7;}
	.st39{fill:#469AA4;}
	.st40{fill:#9BA5AE;}
	.st41{fill:#716F70;}
	.st42{fill:#594B49;}
	.st43{fill:#65677D;}
	.st44{fill:#716E6F;}
	.st45{fill:#4697AB;}
	.st46{fill:#449695;}
	.st47{fill:#685568;}
	.st48{fill:#3D8892;}
	.st49{fill:#448F97;}
	.st50{fill:#459493;}
	.st51{fill:#A4ACAF;}
	.st52{fill:#959FA6;}
	.st53{fill:#9199A1;}
	.st54{fill:#ABB2B6;}
	.st55{fill:#9EA6AC;}
	.st56{fill:#D9DADD;}
	.st57{fill:#866A6C;}
	.st58{fill:#A49C9B;}
	.st59{fill:#C0C5C9;}
	.st60{fill:#C3A27F;}
	.st61{fill:#9B7B7F;}
	.st62{fill:#C7CCCF;}
	.st63{fill:#CDD0D1;}
	.st64{fill:#7E888F;}
	.st65{fill:#76818E;}
	.st66{fill:#B4BABE;}
	.st67{fill:#BABDC3;}
	.st68{fill:#995974;}
	.st69{fill:#A9AEB3;}
	.st70{fill:#ACA7A6;}
	.st71{fill:#D3CDCF;}
	.st72{fill:#C3BBB8;}
	.st73{fill:#BEB7BB;}
	.st74{fill:#9AA3A9;}
	.st75{fill:#858F9C;}
	.st76{fill:#DF80A7;}
	.st77{fill:#E5A3BE;}
	.st78{fill:#DF88AD;}
	.st79{fill:#E79DBA;}
	.st80{fill:#4A4F6D;}
	.st81{fill:#927EA7;}
	.st82{fill:#796468;}
	.st83{fill:#B4B5B7;}
	.st84{fill:#D1D3D3;}
	.st85{fill:#7B4B66;}
	.st86{fill:#7C818A;}
	.st87{fill:#E294B9;}
	.st88{fill:#D479A3;}
	.st89{fill:#686884;}
	.st90{fill:#DD75A0;}
	.st91{fill:#C3C6CA;}
	.st92{fill:#616677;}
	.st93{fill:#882E39;}
	.st94{fill:#AB4574;}
	.st95{fill:#DB76A1;}
	.st96{fill:#ECBFD0;}
	.st97{fill:#5695C3;}
	.st98{fill:#D080A0;}
	.st99{fill:#6396C9;}
	.st100{fill:#37608C;}
	.st101{fill:#4381B4;}
	.st102{fill:#D8D3D4;}
	.st103{fill:#AFB5B8;}
	.st104{fill:#E4BDC5;}
	.st105{fill:#EBDDE1;}
	.st106{fill:#F5F6F7;}
	.st107{fill:#6A6D70;}
	.st108{fill:#4C4D55;}
	.st109{fill:#CCCED4;}
	.st110{fill:#B89EC5;}
	.st111{fill:#9CA0A3;}
	.st112{fill:#E9E4E0;}
	.st113{fill:#C4BBB9;}
	.st114{fill:#5F5352;}
	.st115{fill:#55BCCB;}
	.st116{fill:#53B9D0;}
	.st117{fill:#50B3C1;}
	.st118{fill:#4AA7CB;}
	.st119{fill:#B2B7BC;}
	.st120{fill:#C1C4C4;}
	.st121{fill:#C0AAC4;}
	.st122{fill:#BB88A5;}
	.st123{fill:#51B4C7;}
	.st124{fill:#B591B2;}
	.st125{fill:#BEC3C2;}
	.st126{fill:#B2B7BB;}
	.st127{fill:#D7D9DA;}
	.st128{fill:#8B6F70;}
	.st129{fill:#7A7080;}
	.st130{fill:#101316;}
	.st131{fill:#505457;}
	.st132{fill:#B7BDBC;}
	.st133{fill:#E18E85;}
	.st134{fill:#E8A867;}
	.st135{fill:#CF9492;}
	.st136{fill:#796A68;}
	.st137{fill:#9996A0;}
	.st138{fill:#9E8D80;}
	.st139{fill:#AA6381;}
	.st140{fill:#65607E;}
	.st141{fill:#202425;}
	.st142{fill:#676D73;}
	.st143{fill:#EDBED0;}
	.st144{fill:#C18AA1;}
	.st145{fill:#B1748B;}
	.st146{fill:#E6B6CC;}
	.st147{fill:#867884;}
	.st148{fill:#445473;}
	.st149{fill:#EDBDCE;}
	.st150{fill:#B7BBBD;}
	.st151{fill:#EAE8E6;}
	.st152{fill:#E7E6E3;}
	.st153{fill:#DEB4C5;}
	.st154{fill:#B6B2B3;}
	.st155{fill:#4D6085;}
	.st156{fill:#E598B7;}
	.st157{fill:#8F8B8D;}
	.st158{fill:#415D94;}
	.st159{fill:#A4557A;}
	.st160{fill:#DC78A6;}
	.st161{fill:#A9424F;}
	.st162{fill:#E39FBE;}
	.st163{fill:#CD8FB9;}
	.st164{fill:#487AB4;}
	.st165{fill:#306EAD;}
	.st166{fill:#2C3036;}
	.st167{fill:#918B91;}
	.st168{fill:#906972;}
	.st169{fill:#908E94;}
	.st170{fill:#F7F4F4;}
	.st171{fill:#C3BCC1;}
	.st172{fill:#A77682;}
	.st173{fill:#AAACB0;}
	.st174{fill:#050613;}
	.st175{fill:#ECEDEA;}
	.st176{fill:#CFCFCD;}
	.st177{fill:#68C2D6;}
	.st178{fill:#446BA5;}
	.st179{fill:#E6C7D0;}
	.st180{fill:#6D283E;}
	.st181{fill:#82767D;}
	.st182{fill:#A35166;}
	.st183{fill:#BCBDC4;}
	.st184{fill:#869298;}
	.st185{fill:#C2C0C1;}
	.st186{fill:#A4ACB0;}
	.st187{fill:#55575E;}
	.st188{fill:#878B8F;}
	.st189{fill:#51555A;}
	.st190{fill:#75636E;}
	.st191{fill:#E28E85;}
	.st192{fill:#D6C6DC;}
	.st193{fill:#D983A8;}
	.st194{fill:#648DB7;}
	.st195{fill:#609AC6;}
	.st196{fill:#6F7996;}
	.st197{fill:#C7B4D2;}
	.st198{fill:#74465E;}
	.st199{fill:#DA81A5;}
	.st200{fill:#D4D6D5;}
	.st201{fill:#DA77A4;}
	.st202{fill:#D096AD;}
	.st203{fill:#DE8DAC;}
	.st204{fill:#D0C8CF;}
	.st205{fill:#F6F6F5;}
	.st206{fill:#090C13;}
	.st207{fill:#EEE4E9;}
	.st208{fill:#E6E7EB;}
	.st209{fill:#8C8C92;}
	.st210{fill:#E1B7C8;}
	.st211{fill:#C1C2C4;}
	.st212{fill:#E7E1E1;}
	.st213{fill:#B29FA2;}
	.st214{fill:#D2748C;}
	.st215{fill:#1C1F25;}
	.st216{fill:#C28A8E;}
	.st217{fill:#3D6EA4;}
	.st218{fill:#070303;}
	.st219{fill:#080C05;}
	.st220{fill:#04050C;}
	.st221{fill:#050903;}
	.st222{fill:#070704;}
	.st223{fill:#070407;}
	.st224{fill:#0B0B06;}
	.st225{fill:#0B0505;}
	.st226{fill:#06090A;}
	.st227{fill:#0E0C06;}
	.st228{fill:#0E0D08;}
	.st229{fill:#F5F5F5;}
	.st230{fill:#251121;}
	.st231{fill:#FE0000;}
	.st232{fill:#6AE000;}
	.st233{fill:#003ADF;}
	.st234{fill:#FBFE00;}
	.st235{fill:#AE0390;}
	.st236{fill:#00BFFE;}
	.st237{fill:#FED100;}
	.st238{fill:#FDD000;}
	.st239{fill:#0A0F07;}
	.st240{fill:#0A0E07;}
	.st241{fill:#10070E;}
	.st242{fill:#0F0F0A;}
	.st243{fill:#0D0909;}
	.st244{fill:#0C0F10;}
	.st245{fill:#FDFDFD;}
	.st246{fill:#F9F9F9;}
</style>
<g>
	<path class="st0" d="M355.5,498.7c60,0,120.1,0,180.1,0c3.2,0,3.2,0,3.2-3.2c0-95.5,0-191,0-286.5c0.1,0.1,0.5-0.2,0.5,0.2
		c0,0.6,0,1.2,0,1.8c0,95.6,0,191.3,0,286.9c0,1.7-0.4,2.1-2.1,2.1c-60-0.1-119.9,0-179.9,0C356.4,500.1,355,500.5,355.5,498.7z"/>
	<path class="st1" d="M563.7,614.6c0.8,5.4,1.3,10.9,3.8,15.7c2.6,4.9,0.7,8.1-3,10.7c-7.2,4.9-15,8.3-23.6,9.8
		c-3.5,1.6-2.3,7.9-7.8,7.5c-12.7,0.2-24.9,4.5-37.7,4.7c-5.6,0.1-11.4,1.2-17,2c-2.5-0.1-4.9-1-7.3-1.7c-9-2.3-18.1-4.1-27.2-6
		c-2.5-1.5-4-4.3-6.8-5.5c-2-1.6-3.9-3.5-4-6c-0.2-7.8-5-8.2-11-7.8c-5.4,0.4-10.9,0.5-15.9-2.1c-5.2-5.5-13-5.8-19.2-9.3
		c-8.2-3.1-14.6-9-21.2-14.5c-3.5-2.9-3.9-6.8-3.3-10.8c1.1-6.8,2.5-13.6,3.7-20.4c1.1-2.5-0.5-6.3,3.2-7.5c3.3-1.1,5.7,0.4,7.3,3.3
		c0.5,1.6,0,3-0.9,4.3c-4.6,7.8-6.1,16.2-4.4,25.1c14.8,14.7,32.9,20.6,53.4,20.8c5.6,0.1,8.3-1.9,7.9-7.8
		c-0.5-8.1,2.2-16.1,1.1-24.3c5.3-4.4,6.5-4.2,10.4,1.4c-1.7,11.2-0.9,22.4-1,33.6c-0.2,4.6,2.3,8.6,2.9,13c0.5,3.1,3.2,4,5.8,5.1
		c9.7,4.1,20.1,3.8,30,3.8c14.5,0,29.2,0.3,43.3-4.2c1.9-0.6,3.8-1,5.7-1.8c1.8-0.7,3.6-1.3,5.4-1.8c6.5-1.9,13-3.5,18.8-7.2
		c4.9-3.7,3.6-9,3.1-13.7c-0.3-3.1-1-6.3-2.2-9.4c-0.2-0.7-0.4-1.5-0.4-2.3c0.7-11-1.9-21.7-3.1-32.5c-0.4-3.4-3.1-5-4.2-7.7
		c2.4-5.6,6.2-4.9,10.4-2.2c3.8,4.7,5,10.1,4.3,16C561.8,595.1,561.6,604.8,563.7,614.6z"/>
	<path class="st2" d="M486.1,3.3c17.5,4.9,32.3,14.3,43.9,28.1c23.2,27.3,34.7,59.5,36.9,95c1.5,23.4-1.2,46.3-8.9,68.5
		c-0.8,2.3-2.1,4.5-3.1,6.7c-2.3-1-3.2-3.1-4.3-5.1c-0.3-1.2-0.3-2.3,0-3.5c5-11.6,6.6-24,8.2-36.4c2-10.1,1.9-20.2,0.2-30.4
		c-2.1-12-3.2-24.1-7-35.9c-4.5-13.8-11-26.3-20.8-36.7c-9.8-10.5-18.5-22-30.5-30.7c-5.9-4.3-11-9.8-18-12.8
		c-2.1-0.9-4.1-1.6-6.5-1.4c-1.7-0.1-3.3-0.6-4.8-1.5c-1.5-1.3-3.2-2.8-2.1-4.9c1.1-2.2,3.6-1.3,5.3-1.1
		C478.4,1.9,482.2,2.7,486.1,3.3z"/>
	<path class="st3" d="M465,145.7c2.5,4.7,4.3,10.1,11.5,5c1.8-1.3,5.4-0.4,7.9,1.1c1.5,0.9,3.2,1.9,4.8,0.5c1.8-1.5,0.2-3.3-0.3-4.8
		c-3.6-10.4-9.2-19.8-14.2-29.5c-2.5-4.8-5.4-9.5-8.1-14.2c-5.6-14.9-14.5-28.1-21.7-42.1c-5.2-10.1-10.4-20.3-10.3-32.2
		c0.1-8.2,2.5-15.1,9.2-20c2.8-1.5,3.7,0.1,4.1,2.5c-6.1,11.3-5.7,22.8-0.9,34.3c4.9,15.8,14.1,29.5,21.7,43.9
		c11.3,21.6,23.4,42.7,31.2,66c1.6,6,3,12,4.1,18c1,5.2,0.8,10.4-0.8,15.5c-0.6,2.1-1.2,4.7-4.1,4.5c-2.8-0.2-3.4-2.7-3.4-5
		c-0.2-7.1-3.1-13.5-4.8-20.2c-2.2-8.5-5.1-9.8-13.3-7.5c-2.2,0.6-4.4,0.7-6.6,0.5c-2.2-0.1-4.5-0.2-7.8,0.4
		c3.8,0.9,7.1,1.1,8.4,4.4c-1.7,7.7-7.6,2.8-11.6,3.9c-3.4-1.1-6.5,1-9.8,1.1c-2.9-0.9-4-3.1-4.3-5.9c0.1-1.1,0.5-2.1,1.1-3
		c1.5-1.9,3.2-3.5,5.1-4.9c1.1-0.8,2.2-1.5,3.3-2.2c2.4-1.2,4.4-2.6,4.2-5.7C460.7,148,458.4,141.6,465,145.7z"/>
	<path class="st4" d="M317.8,105.4c-6.3-2.6-11.5-7-16.2-11.7c-13.7-13.6-9.3-32.3,10.2-39.4c34.6-12.6,66.9-7.4,96.2,15.2
		c1.4,1,2.8,1.9,4.3,2.9c8,6.9,15.6,14.3,22.4,22.5c0.5,0.6,1,1.1,1.5,1.7c1.7,2.1,3.5,4.2,4.6,6.7c1.3,2.8,0.5,4.3-2.6,4.5
		c-4.2-1.5-5.9-5.4-8.1-8.7c-1.9-5.1-5.9-8.2-10.5-10.7c-8.9-6.8-17.7-13.6-27.5-19.1C369.5,56.7,346,52.8,321,60
		c-2.6,0.8-5.2,1.7-7.5,3.2c-13.2,8.3-14.2,16.4-3.3,27.5c2.6,2.6,5,5.6,8.3,7.5c1.6,1.3,2.9,2.8,3.2,4.9
		C321.5,105.4,320.6,106.9,317.8,105.4z"/>
	<path class="st5" d="M572.6,259.8c10.6,13,15.7,28.3,18,44.7c0.4,2.9,0.1,6,0.2,8.9c0.6,2.1-1,2.6-2.5,3c-2.9,0.3-4.9-1.8-7.4-2.5
		c-1.7-0.8-3.2-2.1-4.6-3.3c-4.1-2.4-8.6-4-13.1-5.3c-2.4-0.7-5.6-1.4-5.5-4.2c0.2-3.7,3.9-2.8,6.5-3.2c0.5-0.1,1,0,1.5-0.1
		c6.1-3,4.3-8.4,4-13.3c-0.5-8.7-2.2-17.2-4.1-25.6C568.4,255.2,570,261.6,572.6,259.8z"/>
	<path class="st6" d="M593.5,493.5c4.5,10.2,8.8,20.4,12.9,30.7c6.6,16.6,3.7,32-4,47.1c-1.4,2-2.8,5.3-5.3,4.3
		c-3.4-1.3-1.6-4.6-1-7.2c1.3-3.2,3.3-6,4.6-9.2c2.7-6.7,3.9-13.2-1.3-19.4c-3.2-3.8-1.8-8.5-2.1-12.8c0-2.8,0.2-5.7-1.3-8.3
		c-3.4-6.6-4.8-14.1-8.4-20.6c-4.3-7.6-5.7-7.9-12-2.2c-5.5,5-11.6,9.2-17.9,13.3c-2.3,1.5-4.6,3.1-7.5,1.4c1-5.1,2-10.1,7.1-12.9
		c1.8,3.2,3.8,2.4,5.7,0.1c3.5-4.2,8.2-6.9,12.4-10.3c0.6-0.5,1.1-1,1.7-1.5c7.7-5.7,8.2-5.6,13.5,2.5
		C591.6,490,592.4,491.8,593.5,493.5z"/>
	<path class="st7" d="M317.8,105.4c1.7-0.2,2.9-1,3-2.9c0.6-0.5,1.2-0.7,2-0.7c22.2,12.1,43.4,26,63.6,41.1
		c12.1,9.1,24.7,17.6,34.2,29.7c2.3,3,4.9,5.7,4.8,9.8c-1.1,4.8-0.2,11.4-8.6,9.8c5.5-4.5,4.3-8.6,0-13.6
		c-12.7-14.6-28.3-25.7-43.9-36.8c-17.2-12.2-34.7-23.9-53.1-34.3C319.1,107.1,318.5,106.1,317.8,105.4z"/>
	<path class="st8" d="M385.7,626.3c6.9,1.4,14.4,4.3,20.2,8.3c3.3,4.2,7.5,7,12.4,9.2c13.1,5.9,14.2,10.5,5,21.7
		c-4.6,5.6-9,12.6-18.3,8.7c-2.2-3.4,1.2-4.2,2.8-5.6c3.6-3.1,7.1-6.3,10-9.9c2.6-3.2,2-6.1-1.8-7.8c-5.4-2.4-10.9-3.7-16.1,0.6
		c-2.9,2.4-6.3,3.9-9.4,6c-3.1,1.8-7,1.7-9.9,3.9c-2.1,0.7-4.2,1-6.3,1.8c-6.7,0.5-13.3,1.1-19.9-0.7c-2-0.5-4-0.4-5.8,0.7
		c-2.1,1.3-4.5,2.1-1.3,5.3c2.6,2.5,3.1,5.9-1.7,7.3c-6.1-0.5-9.2-4-10-9.8c0.1-1,0.2-1.9,0.2-2.9c5.6-5.9,12.6-6.8,20.3-6.4
		c13.8,0.6,27.3-0.6,38.5-10.2c0.9-0.8,2-1.4,2.9-2.3c7.2-7.2,6.8-9-2.5-12.7C392.1,630.3,387.9,629,385.7,626.3z"/>
	<path class="st9" d="M416.9,192.3c6.7-0.5,5-7,7.4-10.5c7.1,2.6,7.3,4.5,1.4,11.2c-2.4,1.4-4.6,3.1-6.2,5.5
		c-6.9,8.8-14.4,17-20.8,26.2c-10.1,14.6-17.5,30.4-23.4,47c-0.6,1.6-0.5,2.9,0.8,4c3.4,1.5,7.7,0.4,10.3,3.9
		c1.1,2.7-0.5,3.8-2.6,4.2c-4.4,0.8-8.9,0.7-13.4,0.1c-2.9-0.4-4.2-2.3-3.9-5.3c0.3-3,1.1-5.8,2.2-8.6
		C378.4,240.2,393.5,213.7,416.9,192.3z"/>
	<path class="st10" d="M587.3,315.4c1.2-0.7,2.3-1.4,3.5-2.1c3.3,3.2,4.8,7.4,6.4,11.6c1.6,4.3,3.3,8.4-4.1,8.6
		c-2.9,0.1-2,2.2-1.2,3.8c1.3,2.7,2.6,5.4,3.8,8.1c1,2.4,1.9,5.9-0.1,7c-9.6,5.4-10.6,17-18.1,24c-7.7,7.2-15.4,13.9-25.8,16.6
		c-0.5-1.5-1.7-2.6-1.9-4.2c1.8-3.7,5.5-4.9,8.7-6.8c10.7-6.4,19.8-14.2,23.4-26.9c0.3-1-0.3,0.1,0.3-0.7c5-6.4,4.7-12.6,0.6-19.5
		c-2.6-4.3-2.3-8.9,4.5-9.7c1.5-0.2,1.8-1.2,1.5-2.5C588.8,320.2,586.5,318.1,587.3,315.4z"/>
	<path class="st11" d="M510.9,408.3c19.8,10.1,35,24.9,45.2,44.7c6.4,11.3,5.7,23.6,4.8,35.8c-0.1,1.8-0.5,4-2.7,4.9
		c-5.4-4.5-0.9-10-0.9-14.9c0-4.5-2.7-0.2-3-1.7c-2.1-1.8-1.8-4.4-2.1-6.7c-0.3-1.1-0.3-2.3-0.3-3.4c-1.6-11-6.9-20.3-14.4-28
		c-11.5-11.7-23.7-22.7-40.1-27.3c-1.1-0.2-2.1-0.5-3.1-1.2c-0.9-0.7-1.6-1.6-1.8-2.8c0.1-1.2,0.8-2,1.8-2.6c3.9,0,6.2-4.6,10.4-3.8
		C506.4,404.1,507.4,407.3,510.9,408.3z"/>
	<path class="st12" d="M347.8,412.4c11.7-11.1,26.9-14.8,41.5-19.9c5.1-1.8,11.4-0.1,15.3-5.2c0.2-0.3,0.5-0.5,0.7-0.8
		c4.4,0.1,6.5,2.7,7.2,6.8c-0.4,0.6-1,1.1-1.7,1.6c-5.4,3.2-11.6,3.6-17.5,4.8c-8.3,2.2-16.4,5.1-24.6,7.7c-2.2,1.1-4.7,1.7-6.4,3.6
		c7.8,4.2,16.2,2.3,24.4,2.1c2.1,1.7,4.9,1.8,7.2,2.9c1.9,0.9,5.1,1.4,3,4.9c-10.3,0.2-19.4,5.5-29.4,7.1c-1.9,0.2-3.9,0.6-5.8,0.2
		c-1.1-0.5-1.8-1.3-2.2-2.4c0.4-3.6,3.8-3.9,6.8-5.8c-3.5-1.1-6.7-0.5-9.5-1.6C353.4,416.8,349.6,416.1,347.8,412.4z"/>
	<path class="st13" d="M377.8,369c-19.5-7.2-28.3-23-33-41.7c-2.2-8.9-5.7-18.2-0.6-27.5c1.8-3.2,3.3-6.7,6.5-8.8
		c1.7-1.2,2.9-0.6,3.9,1c0.7,1.7,0.3,3.4-0.5,5c-8,14.3-2.7,27.7,2.6,41.2c0.9,2.4,2.9,3.9,5.4,4.7c6.1,2.1,8.9,7.1,10.6,13
		c-1.4,3.4-4.3,0.1-6.4,1.5c3.4,2.9,7.3,4.8,10.6,7.6C377.9,366.3,378.7,367.5,377.8,369z"/>
	<path class="st14" d="M572.6,259.8c-3.5,5.1-4-1-6-1.6c-0.5,0.5-1.1,0.8-1.9,0.8c-1.9-0.4-3-1.7-4-3.2c-1.3-2.1-2.6-4.1-3.2-6.5
		c-1.3-4.5,3.8-10.4-3.2-13.6c-3-3.3-8.9-5.2-5.3-11.5c3.6-1.6,3.6-4.1,2.1-7.2c-1.4-3-3.5-5.4-5.8-7.6c-2.2-6.3,0.7-10.2,6.2-12.7
		c3,0.3,3,2.8,3.3,4.9c-1.3,3.6-1.4,6.6,1.3,10.2c3.7,4.9,7.4,10,5.4,17.6c-0.7,2.9,4.2,7.2,6.6,10.9c1,1.3,1.2,3.2,0.3,4.1
		c-4.1,4.2-1.8,7.5,1.1,10.8C570.6,256.7,571.6,258.2,572.6,259.8z"/>
	<path class="st15" d="M332.9,490.4c-6-8.5-9-17.9-9-28.3c1.9,0.1,1.9-1.1,2.1-2.5c0.6-6.9,2.8-13.3,5.8-19.4c2.1-2.7,4.3-5.3,6-8.4
		c2.8-4.9,6-5.1,10.6-1.5c0,2.4-1.4,4.2-2.6,6.1c-8.3,13.1-12.5,26.9-7.9,42.3c0.5,1.7,0.6,3.4,0.4,5.2
		C337.4,486.6,335.7,488.9,332.9,490.4z"/>
	<path class="st16" d="M332.9,490.4c0-3.1,1.6-5,4.4-6c4.5-4,6.2-0.5,8.1,2.8c-0.6,6.6,6.7,15.1,15.2,17.2c3.7,0.9,7.2,1.8,9.6,5
		c2.7,4.7,6.3,9,5.2,15c-2.2,1.2-6.2-0.6-6.5,3.9c-2.3,1.1-4.7,1.6-6.4-0.8c-1.7-2.3,1-3.8,1.5-5.8c2.8-5.3,1-7.9-4.6-9.4
		C347.4,509.1,339,501.1,332.9,490.4z"/>
	<path class="st17" d="M364.1,521.8c-2.1,4.7,0.9,5.8,4.6,6.3c3.2,1.3,3.7,4.4,4.9,7.1c1,4,3.2,7.6,4.2,11.6
		c1.4,5.4,7.6,4.6,10.8,7.9c-0.6,5.4-6.2,2.9-8.6,5.5c-1.1,0.4-2.1,0.5-3.3,0.3c-4.2-1.2-6.2-5.7-10.4-7c-6.6-3.7-6.3-12-11.2-16.8
		C357.4,531.3,359.1,525.5,364.1,521.8z"/>
	<path class="st18" d="M505.2,402.4c-3.8,0.5-5.7,5.8-10.4,4.1c-3.1-4.2-7.3-0.7-10.9-1.6c-11.5-0.4-23,0.2-34-3.9
		c-0.6-0.8-0.6-1.6,0-2.5c4.3-3,9.2-2.1,13.7-1.5c23.5,3.1,46.3-0.4,69.1-5.6c5.6-1.3,11.2-4.7,17.2-1.6c2.3,0.1,2.6,1.4,1.7,3.2
		c-1.5,0.9-3.1,1.8-4.6,2.7c-10.8,3.8-21.8,6.8-33.3,7.6C510.9,403.5,507.8,404.5,505.2,402.4z"/>
	<path class="st19" d="M354,292.9c-0.7-1.2-1.9-1.6-3.2-1.7c0.4-0.6,0.7-1.5,1.2-1.8c7.9-4.4,14.3-10.1,16.7-19.2
		c-0.8,12.3-0.8,12.4,12.4,11.8c1.5-0.1,5.3,2.1,4.1-2.6c0.2-0.3,0.4-0.5,0.7-0.8c5.1-1.9,8.6,3.2,13.3,2.9c2.7,0.4,3.1,3.9,5.9,4.3
		c0.7,0,1.3,0.2,1.9,0.3c1.7,0.7,3.1,1.8,4.3,3.2c1.4,2.3,1.5,4.5-0.2,6.7c-2.4,1.5-4.8,0.8-7.2,0.2c-4.3-1.7-8.8-1.4-13.3-1.1
		c-2.8,0.2-5.4-0.6-7.9-1.9c-4.2-2.4-1.3-4.6,0.3-6.7c-8.9-1.3-16.8,0.5-23.9,5.9C357.6,293.1,355.9,293.7,354,292.9z"/>
	<path class="st20" d="M598.1,569.7c-0.4,1.5-2.4,3.6-0.8,4.5c2.2,1.2,3.1-2.4,5.2-2.9c-0.6,1.5-1.6,3.5-3.2,5.5
		c-2,2.6-4.2,4.4-5.8,5.4c-17.2,6.8-23.8,8.7-26.1,8.7c-0.3,0-1.7-0.1-2.7,0.8c-1,0.9-1.2,2.5-1.2,4.2c0.1,6.2,0.2,12.4,0.3,18.5
		c-4.3-9.6-2.7-19.8-3-29.8c2.6-1.7,5.7-1.7,8.6-2.1c8.3-1.2,15.9-4,21.8-10.4C592.9,570.3,594.7,567.7,598.1,569.7z"/>
	<path class="st21" d="M348,430.3c-4.3-2.9-7.1-0.7-8.7,3c-1.4,3.4-3.5,5.7-6.3,7.8c-2-1.8-1.6-4-0.7-5.9c1.9-4.2-2.6,0-2.3-1.9
		c3-9.5,10-15.6,17.8-20.9c3.4,0.7,6.5,2.3,9.2,4.5C354.8,421.9,355.6,428.9,348,430.3z"/>
	<path class="st22" d="M437.9,106.8c3.3-0.5,2.4-2.4,1.4-4.3c-1-2-3-3.4-3-5.9c0.4,0.3,0.8,0.6,1.3,1s0.9,0.8,1.2,1.2
		c9.8,10.8,19.2,24.7,24.8,42.1c0.5,1.6,1,3.3,1.4,4.9c-6-0.6-2,4.1-3.2,6.1c-2.4,0.5-3.1-1.3-3.6-2.9c-3.8-13-11.7-23.9-18.4-35.4
		C438.5,111.5,436.5,109.5,437.9,106.8z"/>
	<path class="st23" d="M330,433.3c2-1.7,4-3.4,7.2-6.2c-1.7,5.6-2.9,9.8-4.2,14c-2.2,7.9-4.4,15.8-6.7,23.9c-0.9-1.2-1.7-2.1-2.4-3
		C323.2,451.9,324.4,442.2,330,433.3z"/>
	<path class="st24" d="M376.1,577.7c-5.5-5.2-8.3-2.5-10,3.4c0.1-4.9-1.5-8.8-5.7-12c-4.2-3.3-8-7.4-9.7-12.8c-0.8-1.6-1-3.3-1.1-5
		c-0.1-1.3,0.5-2.4,1.8-2.9c1.7-0.6,3.1,0.1,3.7,1.5c1.3,3.2,3.2,6,5.4,8.7c3.4,4,7.2,7.6,11.5,10.6c2.4,1.7,5.3,3.1,5.3,6.7
		C377.1,576.7,376.7,577.3,376.1,577.7z"/>
	<path class="st25" d="M446.7,12.4c-0.1-1.9-1.3-2.7-3-2.9c3.6-6.7,10.7-7.2,16.7-8.4c8.5-1.6,17.4-1.7,25.7,2.2
		c-4.3,0.8-8.3-0.7-12.5-1.1c-5.7-0.6-2.1,2.4-1.3,4.2C464.2,10.2,455.4,11,446.7,12.4z"/>
	<path class="st26" d="M377.8,369c-0.5-0.9-1-1.9-1.5-2.8c0.1-1.2,0.8-1.9,1.8-2.4c4.7-0.3,7.5,3.4,11.3,5.2
		c5.9,5.1,14.2,7.1,18.8,14c0.1,2.2-2,2.5-3.1,3.6c-0.2,0.2-0.4,0.4-0.5,0.6C394.3,383.2,386.6,375.4,377.8,369z"/>
	<path class="st27" d="M355.2,536.7c2.1-0.4,3.5-1,4.8,2.2c1.8,4.6,2.7,9.9,7.2,13.1c2.9,3.3,2,5.9-1.6,8c-2.1,0.4-3.8-0.6-5.3-1.9
		c-4-5.4-9-10.5-7.4-18.2C353,538.2,354.1,537.5,355.2,536.7z"/>
	<path class="st28" d="M557.8,493.6c4.5-10.9,3.7-21.8,0.4-32.8c-0.8-2.6-1.4-5.3-2-7.9c4.2,4.5,5.8,10.2,5.8,16.1
		c0.1,9.7,1.6,19.6-3.8,30.9c7.1-5.1,10.8-10.8,17.3-12.5c-3.5,5.2-9.2,8-13.4,12.4c-2.1,2.1-4,1.3-4.8-1.7
		C556.2,496.4,556.3,494.9,557.8,493.6z"/>
	<path class="st29" d="M505.2,402.4c14.5,1.2,28-3.8,41.8-6.7c-10.6,6.4-22.8,6.9-34.6,9c-3.5,0.7-2.5,1.7-1.5,3.5
		C508,407.4,502.4,409,505.2,402.4z"/>
	<path class="st30" d="M352.8,539.8c0,7,5.3,11.3,8.4,16.7c-0.7,1.3,0.4,3.3-1.5,4.3c-3.9-2.6-5.2-7-7.1-11.1
		c-3.1,1.7-1.2,4.6-2,6.7C344.7,549.9,350.3,545.1,352.8,539.8z"/>
	<path class="st22" d="M434.7,94.9c-8-7-15.5-14.4-22.4-22.5C421.9,77.8,429,85.6,434.7,94.9z"/>
	<path class="st28" d="M593.5,493.5c-1-1-2.4-1.9-2.9-3.2c-2.9-6.7-7.1-9-13.6-4.5c6.1-7.5,7.8-7.4,13.1,0.3
		C591.7,488.4,593.5,490.6,593.5,493.5z"/>
	<path class="st5" d="M569.5,255.2c-8.6-4.2-1.3-10-1.4-15c1.8,1,2.5,3.3,1.4,4.2C565.4,248.2,568.5,251.6,569.5,255.2z"/>
	<path class="st31" d="M524.9,698.7c-13.1,12-29,18.7-45.8,23.3c-16.4,4.5-33.3,4.7-50.2,3.1c-2.7-0.3-5.5-0.5-7.7-2.4
		c1.7-2.5,4.4-3.5,6.9-4.9c7.1-1.7,14-1.5,21.3-0.8c12.1,1.2,24.3-0.2,35.8-4.9c12.9-3.7,24.1-11,35.9-17.1
		C523.1,695.5,524.3,696.7,524.9,698.7z"/>
	<path class="st32" d="M368.8,698.8c-8.2-2.6-18,0.5-24.7-7.3c-2.7-3.2-6.2-5.8-5.1-10.8c5.4,0.7,5.8,7.5,10.8,8.9
		c1.2-2,0.2-5.2,3.1-6.6c3.7-0.9,7.9-0.3,10.7-3.8c0.8-0.6,1.7-1.1,2.8-1.4c2.3-0.4,4.3-0.3,5.8,2c4.2,6.1,9.3,6.5,14.8,1.5
		c3.3-2.9,5.7-8.2,11.7-5.5c1.5,2.9-1.1,4-2.6,5.3c-3.5,3.2-6.5,6.7-8.8,10.8c-4.1,2.2-8.1,4.8-13.1,4.6c-3.9-0.1-7.3-0.8-9.6-5.2
		C364.5,695.3,370.1,694.9,368.8,698.8z"/>
	<path class="st33" d="M524.9,698.7c-1.8-0.2-3-1-3.2-3c1.3-5.5,5.8-8.9,9.2-13c3.9-5,3.5-10.5,2.2-16.2c-0.7-3.3-2.5-6.7,0.5-9.7
		c3.9-0.1,2.7-6.6,7.3-5.9c-2.5,3.1-1.6,6.6-0.9,9.9C544.1,680.1,541.3,687.2,524.9,698.7z"/>
	<path class="st34" d="M353.7,683.7c-0.3,0.4-0.6,0.8-0.9,1.2c-1.6,2.8,1.4,8.1-1.1,8.5c-4.4,0.9-6.4-4.4-9.3-7.2
		c-1.5-1.4-2.3-3.7-3.4-5.5c-2.8-4.6-6.4-9.1-3-15c2.4-1,3,0.2,3,2.4c-0.1,3.2-0.1,4.9,4.4,2.9c3.8-1.7,1.9,2.3,2,4
		c3.3,3.9,5.3,0,7.9-1.2c0.7-0.3,1.4-0.5,2.2-0.6C361,676.5,360.7,678.6,353.7,683.7z"/>
	<path class="st35" d="M368.8,698.8c-0.5-0.5-0.9-1.2-1.6-1.6c-7.5-3.9-7.5-3.9-2.7-12.1c4,16.2,14.1,6.8,22.2,6
		c2,2.4,5.5,3.9,4.6,7.9c-0.6,0.4-1.2,0.3-1.8-0.2C382.7,698.1,375.8,700.2,368.8,698.8z"/>
	<path class="st36" d="M427.2,719.6c-1.1,2.8-3.7,2.7-6.1,3c-3-1.2-6.2-2.2-7.6-5.7c-3.2-4.1-9.2-2.2-12.6-5.9
		c-0.3-3.6-0.2-7.3-0.1-10.9c2.5-4,4.9-2.2,5.4,0.9c1.5,9,4.6,4.9,7.9,1.3c0.5-0.5,1.2-0.9,1.8-1.2c0.7-0.2,1.4-0.3,2.2-0.1
		c1.5,0.7,2.2,1.8,2.4,3.4C416.1,712.4,423.6,715.2,427.2,719.6z"/>
	<path class="st37" d="M401.7,710.7c3.5,3,10,0.2,11.9,6.3c-10.9-2.3-20.4-6.4-24-18.2c0.6,0,1.1,0,1.7-0.1c2.2,0.2,3.2,2.1,4.5,3.4
		C397.7,705.1,401.4,706.7,401.7,710.7z"/>
	<path class="st38" d="M536.6,646.1c-1.5,0.6-2.9,1.1-4.4,1.7c-13.8,1.4-27.1,6.3-41.2,5.2c-7.2-0.6-7.9-1.5-4.1-8.4
		c0.3-0.4,0.7-0.7,1-1.1c6.3-7.8,12.8-10.9,21.4-2.7c2.8,2.7,5.7,0.5,6.4-3.1c1-5.2,0-10.3-0.8-15.5c-1.3-8.5-5.4-16.6-4.3-25.5
		c2.1-2.8,6.2-1.6,8.4-4.3c2.1-1.5,3.2-3.7,4.5-5.8c1.5-2.4,3.7-3.7,6.3-2.4c7,3.5,10.2,0.3,11.8-6.1c0.3-1.2,1.1-2.2,2.1-3
		c0.7-0.4,1.4-0.6,2.2-0.7c9.7,1.2,7.8,9.6,9.2,15.5c1.8,7.6,1.3,15.6,2.4,23.4v0.1c1,4.7,1.4,9.5,2.1,14.3c0.5,3.3,0.6,6.9-2.6,9.3
		c-2.2,2.5-4.6,4.1-8.2,4.4C544.5,641.6,540.5,643.8,536.6,646.1z"/>
	<path class="st39" d="M434.8,596.7c2,3.5,2,7.2,1.1,10.9c-1.3,4.9-1.7,9.9-0.6,14.8c1.2,5.3-1.3,7.1-5.6,7.3
		c-23.3,1.1-44.1-5.1-60.6-22.4c-1.2-1.6-1.3-3.5,0.2-4.6c2.2-1.6,4.2-0.1,6,1.2c3.5,2.6,6.5,6.5,11.7,4.1
		c6.6,0.3,11.5,4.3,16.9,7.3c2.1,1.2,4.9,2.8,6.1-0.8c1.2-3.7,3.4-7.3,1.7-11.5c-0.1-0.1-0.4-0.4-0.6-0.4c-8.2,2.7-13.1-4.8-20-6.2
		c-3.8-0.8-7.6-1.5-10-4.4c-2.9-3.5-7.4,1.7-9.8-2.5c-0.5-5.9,2.6-8.2,8.2-8.1c16.3,5.9,32.7,11.4,50.3,11.8
		C432,593.2,433.6,594.6,434.8,596.7z"/>
	<path class="st40" d="M598.1,569.7c-1.5,0.2-2.9,0.7-3.8,2c-7.3,11.2-19,12.7-30.8,14.1c-0.9,0.1-1.8-0.7-2.7-1.1
		c0.3-5.3-1.3-10.2-3.2-15.1c-2.4-5.8,0.5-8.3,5.7-9.3c2.3,7.4,3.7,8.1,10.7,3.9c6-3.6,11.4-8.1,16.2-13.1
		c4.3-4.4,5.6-10.3,5.7-16.6c0-3-1.6-7.3,3.7-8.3c0.6,5.3-0.9,10.5,4.8,15.3c3.4,2.9,2.2,10.9,0,16.3
		C602.7,562,600.2,565.8,598.1,569.7z"/>
	<path class="st41" d="M533.6,656.8c-0.3,3.5,1.2,6.7,2.1,10c1.8,6.7,1.7,13.1-3.8,18.3c-4.4-2.3-8.7-4.6-12.9-7.3
		c-7.3-4.8-16-4.7-24.4-5.2c-6.9-0.4-13.5-2.1-20.3-3.1c-2.1-3.1-0.2-4.3,2.4-5.2c6.7-4.3,14.7-3.6,22-4.1
		c9.5-0.7,18.6-2.3,27.7-4.4C529.2,655.1,531.4,655.3,533.6,656.8z"/>
	<path class="st42" d="M476.8,664.3c-1.1,1.4-2.1,2.8-3.2,4.3c0,0.4-0.1,0.8-0.1,1.1c-2.6,4.7-7.7,5.7-12,7.7
		c-4.2,1.9-8.5,3.6-12.8,5.3c-9.7,2.3-19.3,2.8-29,0.2c-6.8-2.6-13.5-2.7-20,0.8c-2.5,1.3-4.5,2.5-2.2,6.2c2.2,3.7,0.7,8.1-0.4,12.2
		c-0.7,0.9-1.4,1.7-2.7,1.1c-1-1.5-2-3-3-4.5c-0.1-3.4-7.8-2.3-4.5-7.7c0.9-7.5,7.2-10.6,12.2-14.7c1-3,3-3.5,5.7-2.6
		c17.2,0.8,27.2-5.3,32.3-20.1c0.4-1.2,1.1-2.2,2.2-2.9c2.4,1.2,4.3,2.8,4.6,5.7c2.1,3.9-1,6.5-2.4,9.5c-1.3,2.7-3.7,4.7-4.5,8.2
		c2.3,1.6,4.7,0.4,6.9-0.2c8.4-2.3,16.7-5,23.9-10.1c1.3-1,2.8-2.3,4.7-1.1C474.5,661.6,476.4,660.8,476.8,664.3z"/>
	<path class="st43" d="M434.8,596.7c-4.6-2.6-9.8-0.9-14.6-1.5c-14.2-1.9-27.8-5.9-40.9-11.9c-0.9-1.9-4.7,0.9-4.4-2.8
		c0.4-0.9,0.8-1.8,1.2-2.8c0.2-0.2,0.4-0.5,0.6-0.7c2.6-2,5.3-1.3,7.7,0c5.6,2.9,11.6,4.4,17.4,6.5c9.9,3.2,20.3,4.2,30.5,4.9
		c17.8,1.4,35.6-0.3,53.1-3.7c2.5-0.5,4.9-0.4,7.4-0.8c2.6-0.4,5.3-0.4,7.9-0.1c5.9,2.1,12.1-2.1,17.9,0.7c0.4,5.7-3.8,5-7.4,5.6
		c-9.7,1.6-19.5,2.7-29,5.4c-13.2,2.7-26.4,4.8-39.7,1.4C439.9,592.3,437.3,592.1,434.8,596.7z"/>
	<path class="st44" d="M439.1,650.7c-0.6,14.1-10.4,23.8-24,23.9c-3.5,0-7,0-10.5-0.1c-0.4-0.5-0.3-0.9,0.3-1.2
		c8.8-0.2,20.3-9.5,23-18.2c0.7-2.2-0.5-3.1-1.8-4.3c-3.6-3.2-7.8-5.3-12.3-6.7c-5-1.6-7.5-4.5-7.6-9.7c7.6,1.9,15.3,1.7,22.9,1.1
		c4.4-0.4,6,0.8,5.7,5C434.4,644.7,434.9,648.5,439.1,650.7z"/>
	<path class="st45" d="M442.4,596.8c7.7-2.9,15.7-0.3,23.7-1.8c4.7-0.9,10.1-0.7,15.2-1.3c4.1-2,7.6-1.7,10.5,2.1
		c2.2,2.9,4.2,2.6,6.4-0.5c6.4-9.1,13.1-9.5,22.1-1.5c-2,4-5.7,2.7-9,3c-6.4,6.2-13,11.3-22.9,8.4c-5-1.5-9.5,2-14.4,2.5
		c-8-5.4-16.8,0.8-25.1-1.5c-2.9-0.8-3.3,2.4-3.7,4.5c-0.7,4.2-0.3,8.4-0.4,12.6c-0.1,2.7,0,5.5-1.9,7.8c-0.7,0.6-1.3,0.6-2.1,0.1
		C441.2,619.7,439.3,608.1,442.4,596.8z"/>
	<path class="st46" d="M440.8,631.2c0.5,0,1,0,1.5,0c5.1,4.7,11.4,7.2,17.9,9.1c8.2,3.4,16.9,1.6,25.3,2.5c1.3,0.3,2.4,0.8,3.1,2
		c-3.7,7.3-3.6,7.9,4.5,7.3c9.3-0.7,18.9,0.8,27.6-5.2c2.5-1.7,7.6,0.5,11.5,0.9c-9.2,2.9-18.4,5.7-28.2,5.8
		c-13.1,0.2-26.2,1.5-39.3,0.4c-6.1-0.5-11.4-3-17.2-4.2c-1.8-0.4-4.7-3.2-4.5-4.4C443.9,640.3,440.2,636.1,440.8,631.2z"/>
	<path class="st47" d="M518.5,584.8c-6.1,1.4-12.2,1.8-18.4,1.2c0.5-3.3,3.1-4.1,5.6-5.1c10.9-5.5,23.1-7.6,33.9-13.3
		c7.9-4.2,15.3-9.2,21.3-16c4.5-5.1,6.4-4.3,8.3,2.8c-0.9,3.1-2.2,5.9-5.9,6.3c-3.1,2.3-6,4.6-6,9c-3.2-0.9-6.2-0.6-8.8,1.7
		c0.5,3.6-3.2,2.7-4.6,4.3h-0.1C536.5,581.4,527.6,583.3,518.5,584.8z"/>
	<path class="st48" d="M374.9,580.5c1.5,0.9,3,1.9,4.4,2.8c-5.6-0.6-8.1,1.9-7.5,7.5c3,4.8,5.7,9.7,11.5,12c2.3,0.9,3.8,3.1,3.4,6
		c-5.8,7-8.6,0.2-12.3-2.6c-2.3-1.7-5-6.1-5.6,1C366.4,600.3,370.1,583.8,374.9,580.5z"/>
	<path class="st49" d="M544.1,575.7c1.5-1.4,3.1-2.9,4.6-4.3c3.5,0.4,5.4,2.4,5.8,5.7c1.3,12,4.2,23.9,3.2,36.1
		c-2.4-7.3-2.3-14.8-3.1-22.3C553.7,584.2,553.7,576.6,544.1,575.7z"/>
	<path class="st50" d="M536.6,646.1c2.5-4.5,6.9-5.6,11.4-5.8c3.2-0.2,5.7-1.4,8.2-3.1c0.5,0.3,0.6,0.7,0.5,1s-0.3,0.5-0.5,0.5
		C550.4,643.3,543.4,644.3,536.6,646.1z"/>
	<path class="st49" d="M556.2,638.8c0-0.5,0-1,0-1.5c2.9-3.4,3.9-7.3,2.4-11.6c-1.4-4-0.9-8.2-0.9-12.4c2.9,5.9,3,12.2,3.1,18.6
		C560.8,635.2,558.8,637.2,556.2,638.8z"/>
	<path class="st51" d="M446.7,12.4c7.7-5.8,16.6-6.2,25.6-6c1.5,0.1,2.9,0.1,4.4,0.2c3.1,1.6,5.9,3.7,7.8,6.8
		c3.7,6.2,9.9,9.8,15.4,13.9c23.3,17.3,39.7,39.2,49.1,66.9c4,11.8,6.2,24,10.8,35.6c3.3,8.3,1.9,17.6,0.9,26.5
		c-0.9,13-1.6,26-9,37.4c-6,5.5-11.6,11.6-20.4,12.7c-0.7-0.3-1.3-0.8-1.6-1.5c0-6.5,5.1-9.5,9-13.4c4.5-4.3,7-9.2,6.3-15.7
		c-0.5-4.9,0.3-9.7,2.1-14.5c1.9-5.4,1.3-11.2-0.3-16.8c-3.3-19.4-3.3-39.4-10.5-58.2c-7.1-18.6-19.5-32.9-34.1-45.4
		c-8.4-7.1-18.9-10.7-29.9-12.6c-9-1.5-16,2.2-21.6,8.9c-4.9,1.6-1.8,7.7-5.6,9.9c-3.1-6.7-4.9-13.6-4.6-21.2
		C440.9,20.3,442.4,15.8,446.7,12.4z"/>
	<path class="st52" d="M530.7,205.7c7.8-2.6,13.1-9.6,21-12c0,1-0.1,1.9-0.1,2.9c-0.7,4.3-7.3,6.5-4.5,12.2c4.2,4.9,6.8,10,3.1,16.4
		c-1.6,5.3,3.4,6.4,5.9,9c3.3,4.5,1.5,10.1,3,15c1,2,3.2,3.4,3.1,6c2.5,9.8,2.5,20,4.9,29.8c0.7,2.9,0.3,5.9,0.2,8.9
		c-0.1,4-2.1,6.1-6.2,5.4c-3.4-0.6-7,1.2-10.2-0.9c-3.9-4.3-3-9.8-3.2-14.8c-0.2-8-0.8-15.9-3.4-23.5c-0.6-1.7-1-3.4-0.7-5.1
		c2.7-15.3-6.7-25.7-14.9-36.3C523.6,212.1,523.5,209.4,530.7,205.7z"/>
	<path class="st53" d="M560.7,156.3c0.6-12-1.2-23.2-5.8-34.7c-5-12.2-7.6-25.3-12.4-37.7c-4.9-12.7-12.7-23.4-21.2-33.8
		c-9-11.1-20.5-19.3-31.9-27.6c-5.7-4.2-8.7-10.4-12.7-15.9c8.9,2.3,17.9,4,23.2,13.2c1.9,3.3,7.1,4.5,10.1,7.4
		c12.6,12.4,24.8,25.3,34.5,40.1c7.8,11.9,11.8,25.7,14.2,39.6s4.6,28,3.5,42.3C562,151.7,562.6,154.3,560.7,156.3z"/>
	<path class="st54" d="M530.7,205.7c-4.4,4.3-5.7,7.6,0.9,12c6.8,4.6,8.3,13.6,12.5,20.4c3,4.9,5.4,10.1,1.8,16.1
		c-1.1,1.7,0.6,4.2,1.3,6.3c3.7,11.9,3.8,24.1,3,36.4c-4.5,3.6-10.8,3.4-15.4,6.9c-1.1,0.3-2.1,0.2-3.1-0.3
		c-2.1-1.6-2.8-3.9-1.4-5.9c3.2-4.5,1-8.3-0.7-12.5c-5.2-13-7.7-26.6-9.6-40.4c-0.5-3.3,0-5.8-4.9-4.4c-5.9,1.7-5-3.7-6.1-7
		c0.9-2.8,1.7-5.5-1.1-7.8c-0.7-1.3-0.8-2.6,0.1-3.9c2.2-1.6,3.6,0.2,4.7,0.9c-2.1-5.9-7.3-9.8-12.2-14.1c-2.5-2.2-3.8-5.8-3-9.5
		c9.2-6.4,8.9-15.7,6.4-24.7c-1.6-6.1-3.4-12.4-6.2-18.2c-13.4-35.8-33.9-68-50.4-102.3c-1.1-2.2-2.5-4.3-2.1-7
		c1.5-3.6-3.3-9.8,4.5-10.6c1.9,1.3,2.5,3.5,1.9,5.3c-2.6,7.7,0.9,14.2,4.4,20.3c5.7,10,9.2,21.5,19.2,28.6
		c10.5,12,17.4,26.1,23.8,40.4c3.6,7.9,7.7,15.7,10.6,23.9c4.1,11.7,6.5,23.9,5.3,36.6c4.4-6.8,2.6-14.3,2.5-21.5
		c0-3.2-1.5-6.4,1.2-9.3c3.7-0.2,4.3,2.7,5.1,5.3c0,10.1,2.4,20.5-2.4,30.2c-0.3,0.6,0.4,1.3,0.9,1.9c0.5,0.8,0.7,1.7,0.7,2.7
		c1.5,3.4,6.4,1.4,7.8,5L530.7,205.7z"/>
	<path class="st55" d="M437.9,106.8c9.6,14.2,18.9,28.4,23.8,45c2.9,6.7-4.7,3.4-5.8,6.1c-5.6-7.4-6.3-17-11-24.9
		c-7.8-13.3-17-25.4-28.2-36c-5.1-4.8-12.5-5.8-18.1-10c-11.6-6.9-23.7-11.8-37.4-12.8c-7.1-0.5-14.2-2.1-21.4-0.7
		c-4.8,0.9-9.1,2.5-12.5,6c-5.5,3.7-10.6,7.5-7.8,15.4c0.5,1.6,0.1,3.4-1.7,4.5c-7.3-3.8-12.6-9.7-16.6-16.6c-2.2-3.7-1.7-8,0.8-12
		c5.7-9.2,14.6-12.8,24.7-15c34-7.3,62.2,4.9,88,25.6c2.3,1.9,4.5,3.9,6.7,5.9c4.1,2.9,7.1,6.9,10.4,10.6
		C433.8,100.9,435.8,103.8,437.9,106.8z"/>
	<path class="st56" d="M452.9,159.5c-1.6,1.5-3.1,3.1-4.7,4.6c-4.5,0.3-5.7-3.2-7-6.3c-2.8-6.8-6.7-13-11.1-18.9
		c-17.5-28-43.9-41.4-75.5-46.1c-3-0.4-5.9-0.7-8.7-1.8c-5.1-2.6-10.2,1-15.4,0.1c-3.1-0.5-7,0.2-7.6-4.2c-0.5-3.9,2.5-6.3,5.6-6.9
		c4.3-0.9,6.3-4.8,10-6.1c7.3-2.5,14.6-0.9,21.8,0c20,2.8,37.7,11.4,54.5,22c8.7,5.5,14.7,14,20.8,22.1
		c7.9,10.6,13.5,22.5,17.5,35.1C453.8,155.4,454.5,157.4,452.9,159.5z"/>
	<path class="st57" d="M347.8,89c18.3,1.9,35.4,7.3,51.4,16.3c14,7.8,24.8,18.8,32.6,32.8c1.3,2.5,0.3,3.7-2.2,4.1
		c-4.5-0.6-5.6-5-8.2-7.5c-15.2-20.3-43.5-34.7-73.1-36.4c25.4,14.5,50.7,26.5,72,44.8c8.2,6.5,13.7,15.4,20.4,23.1
		c2-0.3,3.4-5.4,6-0.8c1,1.8,2,3.6,3,5.4c-0.1,1.4-1,2.4-1.7,3.5c-1.2,3.6,4.6,4.8,3,8.5c-0.2,1-0.6,2-1,2.9c-2,3.8-0.3,6.8,2.2,9.6
		c1.9,2.2,3.9,4.3,6.3,5.9c2,1.3,4.6,0.9,6.6,2.2c1.8,1.2,3.8,2.2,4.5,4.5c-2.3,4.6-6.3,4.1-10.2,3.4c-6.4-1.2-11.1-5.1-15.2-9.9
		c-2.3-3.2-1.8-7.9-5.3-10.5c-0.9-0.4-1.8-0.9-2.8-1.1c-5.5-1.9-5.5-5.9-3.6-10.2c1-2.3,2.7-4.3,1.4-6.9
		c-11.7-17.2-27.2-30-44.9-40.7c-10.4-6.3-21.1-12-32-17.4c-8.7-4.3-16.8-9.7-22.5-17.9c-1.2-2.8-1.6-5.4,1.9-6.9
		C340.3,89.8,343.9,86.8,347.8,89z"/>
	<path class="st58" d="M497.7,156.3c5.2,11.1,13.1,21.6,8.9,35.1c-1.4,4.4-3.1,8.5-8.9,8.2c-1-0.3-2.2-0.7-2.4-1.6
		c-1.5-8.9-7.9-12.1-15.6-14c-0.1-0.2-0.4-0.4-0.3-0.6c1.1-11.5,1.1-11.5-8.9-16.6c-2.2-1.4-4.7-1.6-7.2-1.5c-2.2,0-4.4,0-7.8,0
		c4.3-6.3,9.6-6,14.9-5.9c2.4,0,4.5,1.4,7.2-0.2c6.9-4.2,11.9-2.3,14.6,5.4c3.1,9.1,5.2,18.4,6.3,29.7c5.6-10.8,3.3-20,1.3-29.3
		C499.2,162.1,498.4,159.2,497.7,156.3z"/>
	<path class="st59" d="M452.9,159.5c-6.5-18.9-13.8-37.3-28.5-51.9c-9-9-18.6-15.8-30.6-20.8c-10.7-4.5-21.8-7.2-32.5-11.3
		c3.3-2.5,7-1.8,10.5-0.7c9.7,3,19.4,6.3,28.5,11.2c26.1,10.2,39.3,32.7,51.3,55.8c2.5,4.7,4.4,10.5,4.3,16.3
		C454.9,158.5,453.9,159,452.9,159.5z"/>
	<path class="st60" d="M470.5,166.9c5.2-0.9,9.9,0.3,12.8,4.8c3.1,4.9-1.2,8.1-3.5,11.6c-0.4,0.5-0.9,0.9-1.6,1.1
		c-2.9,0.3-5.7,1.8-8.7,0.5c-6.3-4.9-13.2-3.3-20-1.8c0-1.7,0.3-3.9-2-4.2c-8.6-1.1-3.6-3.8-0.8-6.2c4.4-0.4,7.7-3.7,12-4.3
		C462.4,166.4,467.1,171.8,470.5,166.9z"/>
	<path class="st61" d="M428.9,141.2c2-0.1,2.8-1.4,3-3.1c5.5,5.5,8.9,12.4,11.8,19.5c1.1,2.6,2.2,4.9,4.5,6.5
		c-0.5,0.4-1,0.9-1.5,1.3c-2.2-1.1-2.9-0.2-3,2c0,1.8,0.1,4.3-3,2.4c-2.3-6.7-5.3-13.1-8.8-19.3
		C430.3,147.7,427.4,145.2,428.9,141.2z"/>
	<path class="st62" d="M347.8,89c-4,0.4-8,0.8-12,1.2c-1.2,1.3-2.9,1.5-4.4,2.4c1.7,0.9,3.4,1.9,4.5,3.7
		c10.6,11.3,24.7,17.1,38,24.3c24,12.9,46.5,27.8,62.2,50.8c1.7,2.7,0.8,4.9-1.6,6.3c-2.4,1.4-4.2-0.3-5.9-1.8c-1.1-1-2.4-2-3.1-3.2
		c-7.4-11.9-19.3-19.4-29.7-27.9c-9.5-7.8-20.2-14.5-31.3-20.1c-14.1-7.2-28.9-13.2-42.1-22.2c-0.5,0-1,0.1-1.5,0.1
		c-1-1-2.1-2-3.1-3c0-1,0.4-2.2,0-2.9c-4.6-9.1,0.3-14.2,7.6-18.2c4.6-0.7,7.9-7.2,13.5-3c-2.7,4.6-7.6,5.8-11.9,8.1
		c-1.4,0.8-3.4,1.7-2.4,3.9c0.7,1.7,2.5,1.5,3.9,1.4c3.7-0.1,7.4,0.2,11.1-0.9C342.3,87.1,345.4,86.3,347.8,89z"/>
	<path class="st22" d="M431.7,97.9c-5.1-1.9-7.3-6.7-10.4-10.6C426.4,89.3,430.1,92.5,431.7,97.9z"/>
	<path class="st63" d="M590.5,322.6c0.5,1.9,3.9,4.7-1.5,4.6c-5.5-3.1-6.3-0.6-6.8,4.7c-0.9,11-3,21.3-10.6,30.6
		c-9.6,11.7-20.7,20.7-34.6,26.2c-18.8,7.6-38.2,11.8-58.6,9.4c-1.5-4.6,2-5.7,5-6.4c4.6-1.2,9.1-3.3,13.7-3.3
		c8.3-0.1,14.4-7,22.7-6.3c0.7,0.1,1.5-0.4,1.9-1.1c5.1-11,17.3-12,25.6-18.3c6.4-4.9,13.3-9.5,16-18.1c2.5-8.1,7.5-15.1,9.6-23.4
		c1.1-4.1,1.4-8.3,2.5-12.3c1.1-0.5,2.2-0.6,3.1,0.4c1,0.9,2,1.9,3.1,2.8C585.3,315,589.1,317.7,590.5,322.6z"/>
	<path class="st64" d="M578.6,309.2c-1,0-2,0-3,0c-1.7,1.4-3.8,1.2-5.6,0.5c-8.9-3.3-18.1-4.3-27.5-4.1c-2.7,0.1-5.5-0.2-7.3-2.7
		c3.3-6.2,9.2-5.9,14.9-6c2,0.1,4,0,5.9,0.2c9.6,1,9.9,1,9-8.7c-0.8-8.5-2.1-17.1-3.7-25.5c-0.5-2.8-0.6-5.3,0.7-7.8c1,1,2,2,3,2.9
		c4.4,11.5,5,23.5,4.6,35.6c-0.1,2.6-0.2,5.1-3.1,6.2c-2.5,0.1-4.9,0.2-9.1,0.5C565.3,304.4,572.9,304.7,578.6,309.2z"/>
	<path class="st65" d="M566.6,300c2.8-6.9,1-14.2,0.9-21.2c0-6.9-1.6-13.8-2.4-20.6c0.5,0,1,0,1.5,0.1c-0.6,3.8,2.4,6.3,3.3,9.6
		c2.7,9.9,1.8,20,2,30C571.9,301.2,568.6,299.7,566.6,300z"/>
	<path class="st66" d="M590.5,322.6c-3-3.5-5.9-7.1-8.9-10.6c2.6,0,3.8,2.3,5.7,3.4C589,317.6,591.1,319.5,590.5,322.6z"/>
	<path class="st28" d="M550.4,510c9.4-3.6,16.9-9.9,24.2-16.5c8.3-7.5,8.4-7.5,14.4,1.9c4.3,6.8,5.3,14.9,9.1,21.8
		c1.5,6-0.9,11.2-4,15.9c-4.6,7.1-10.3,13.3-16.9,18.7c-2.8,2.3-5.5,3.7-8-0.2c-2.1-3.1-4.2-6.3-7-8.9c-1.3-1.2-2.3-2.6-3.2-4.1
		c-3.2-6.1-8.2-10.6-12.8-15.4c-3.4-3.5-4.5-7.1-0.6-11.1C546.9,510.9,548.4,509.9,550.4,510z"/>
	<path class="st67" d="M569.6,550.3c1.4,0.7,2.4,3.8,4.1,2c10-10.3,22.2-19.1,24.3-34.9c2.6,2.6,1.1,6,1.5,9
		c-2.2,2.6-1.5,5.7-1.4,8.6c0.4,10-3.5,17.5-12,22.9c-5.4,3.4-9,9.4-15.7,10.8c-1.7,0.4-3.3,1.1-5,1.1c-1.8,0-4.3,1-5.4-1.2
		c-0.9-1.9,1.5-2.9,2.2-4.3c0.5-1.1,0.8-2.3,1.2-3.4c1.4-2,2.9-4.1,4.3-6.1C569.8,553.8,567.9,551.2,569.6,550.3z"/>
	<path class="st68" d="M550.4,510c-1.2,0.8-2.4,1.7-3.6,2.5c-5.2-0.7-2.9-4.3-2.7-7.1c6-8.6,6.9-19.2,10.7-28.6
		c1.9-0.8,4.7-4.1,4.4,1.4c-0.2,5.1-0.8,10.2-1.2,15.4c-0.2,1.5-0.4,2.9-0.6,4.4C554.3,501.7,555.5,507.7,550.4,510z"/>
	<path class="st69" d="M322.4,102.4c1.2,0.4,2.5,0.5,3.5,1.1c13,8.1,27.7,12.8,41.4,19.5c3.3,1.6,5.7,3.9,8.4,6
		c10,7.6,21.1,13.5,30.9,21.9c8.9,7.6,15.8,16.7,24.4,24.2c4.6,4,4.9-0.5,5.3-3.7c3.5,3.4,0.1,5.6-1.4,8.2c-2.1,3.7-3.8,7.6,2.9,8.4
		c-0.2,5.4-3.4,10.2-2.6,16c4.5-0.2,9.3-0.1,11.3,5.3c1,2.8,1.5,5.9-2.3,7.4c-6.4-6.6-8-6.5-19.7,0.9c-3.9,1.9-3.3,5.1-2.5,8.4
		c-1.6,3.7-4.9,5.2-8.4,6.4c-4.9-0.5-5.6-3.5-3.9-7.4c1.5-3.4,2.9-6.9,5.8-9.5c5-4.6,6.4-10.4,6.1-16.8c-0.1-2.8,0.5-4.8,2.7-6.5
		c3.4-3.4,6.2-6.8,0.1-10.3c-7.5-11.6-17.5-20.6-28.4-28.9c-13.5-10.2-27.7-19.4-41.1-29.7c-8-6.1-17.7-9.1-25.5-15.3
		C327,106.1,323.9,105.2,322.4,102.4z"/>
	<path class="st70" d="M405,673.3c-0.1,0.4-0.2,0.8-0.3,1.2c-2.1,0-4,0.4-5.7,1.8c-4.6-0.9-7,2.5-9.1,5.3c-4.8,6.3-11.4,5.1-17.7,5
		c-2.6-0.1-3.6-1.6-2.5-4.1c2.4-5.2-2.1-2.6-3.6-3.3c-0.8-1.9,0.6-2.6,1.8-3.4c2.4-0.7,5.4-2.1,7,0c6.1,7.9,10.5,1.8,15.3-1.3
		c1.6-1.1,2.8-2.7,4.2-4.1c5.5-5.6,5.3-8.6-1-12.7c-1.2-0.8-2.6-1.3-3.6-2.6c3.8-2.6,8.1-4.4,11.5-7.9c3.5-3.7,19.5,0.2,21.1,5
		c0.9,2.8,0.2,5.3-2,7.5C415.5,664.6,411.1,670,405,673.3z"/>
	<path class="st71" d="M395.9,671.7c-2.6,3.8-5.8,6.9-10,8.7s-8.5,4-11.2-2.2c-1.5-3.3-4-0.2-5.9-0.8c0.1-4.3,3.1-4.5,6.2-4.2
		c3,0.2,7,2.6,8-2.1c0.8-3.7-3.2-5-5.8-6.7c-0.8-0.5-1.8-0.8-2.6-1.5c-0.4-0.7-0.3-1.3,0.2-1.9c1.8-1.4,4-1.2,6-1.4
		c3.8-2.5,7.9-3.6,11.6-0.2C395.9,662.7,399.2,666.3,395.9,671.7z"/>
	<path class="st72" d="M374.8,661c0,0.5,0,1,0,1.6c-3.8,3.9-8.8,2.3-13.3,2.4c-10.6,0.3-10.6,0.1-7.5,9.9c-1.7,2.5-3.4,5.3-6.7,5
		c-2.3-0.2-2.3-2.8-2.1-4.9c3.6-2.6,4.3-5.2-0.8-6.2c-5.3-1-3.4-2.9-1-5c3.2-2.9,6.9-4.9,11.5-3.7
		C361.4,661.7,368.1,661.2,374.8,661z"/>
	<path class="st73" d="M395.9,671.7c-1-9.9-6.3-14.2-15.1-12.1c1.7-4.3,6.7-1.7,9.1-4.4c6.1-1.3,9,2.6,11,7.3
		C403.1,667.5,398.8,669.3,395.9,671.7z"/>
	<path class="st74" d="M424.2,192.1c-2.3,3.3-0.4,6.9-0.2,10.1c0.6,10.5-9.1,15.1-12.5,23.2c-1.5,3.7-1,4.8,2.3,5.8
		c5.4,1.2,8.5,5.7,12.4,9c2,1.7,1.8,4.5,0.5,6.9c-3.1,2.5-4.9-0.4-6.8-1.8c-7.8-5.6-7.7-5.6-13.5,1.3c-3-1.3-5.8-2.5-7.5,1.9
		c-4,10.4-11.4,19.3-13.6,30.5v0.4c-4-0.8-8.3,1-12-1.7c-1.3-5.9,3.3-9.8,5.5-14.3c9.2-18.5,19.5-36.2,33.3-51.8
		c3.6-4.1,5.2-9.5,6.1-14.9C419.7,194.5,421.4,192.5,424.2,192.1z"/>
	<path class="st75" d="M418.3,196.7c3.1,7.2-0.9,13-5.1,17.5c-5.4,5.7-9.3,12.2-14,18.3c-8.6,11.2-14.1,24.4-20.8,36.7
		c-1.6,2.9-6.1,4.1-5,8.4c-4.2-5.3,0.9-9.9,2.4-13.5c6.2-14.6,12.3-29.3,22.1-42.2C404.5,213.3,411.5,205.2,418.3,196.7z"/>
	<path class="st66" d="M478.2,397.5c11.7,0.5,23.5,0.4,34.7-3.1c17.6-5.5,35.5-10.6,48.9-24.4c4.6-4.7,7.8-10.6,13.1-14.8
		c3.7-3,0-8.1,2.8-12.3c2-3.1,4.3-7.7,3.8-12.5c-0.2-2.3-1.3-5.7,1.4-6.7c2.3-0.8,4.4,1.7,6,3.6c-6.2-0.7-7,2.1-4.6,7
		c1.2,2.4,2.2,5,3.7,7.3c2.2,3.4,4.3,6.5-1.4,8.6c-1.8,0.7-1.9,2.7-2.3,4.4c-3.3,14.1-12.9,22.9-25,29.6c-3.2,1.8-6.4,3.8-9.5,5.7
		c-24,6.9-48.4,10.7-73.4,10.5c-8.9-0.1-17.8-0.9-26.8-1.5c-5.4,3.6-10.1-0.5-15.2-1.2c-2.4-1.1-4.9-2.1-7.2-3.3
		c-1.9-1-5-1.9-2.5-5.2c2.9-1.4,5.8-0.6,8.6,0.3c11.4,3.8,23,5.5,35,5.3C472,394.7,475.6,394.5,478.2,397.5z"/>
	<path class="st76" d="M554.6,476.9c1.2,11.2-2.9,20.9-9,29.9c-8.3,15.1-22,21.4-38.4,23.2c-3,0.3-5.8,1.4-8.6,2.3
		c-0.8,0.3-1.5,0.5-2.4,0.5c-3.6-0.1-7.5,1.1-10.7-1.7c-0.3-3.5,2.6-3.4,4.7-4.4c3-0.7,2.6-2.9,2.6-5.2c0.1-8.7,5-13.6,14-13.8
		c9.8-0.2,17.6-3.9,25.5-10.1c8.6-6.6,13.9-14.3,17.2-24.2c0.7-2.3,1.6-4.9,5.1-4.1C554.6,471.9,554.6,474.4,554.6,476.9z"/>
	<path class="st77" d="M554.6,469.4c-4.1,4.4-4.2,10.8-7.3,15.7c-0.6,1-0.3,2.8-1.1,3.5c-8.2,6.9-15,15.9-25.5,19.5
		c-4.7,1.6-9.5,2.8-15,2.1c-7.1-0.9-11.9,5.5-10.4,12.6c0.7,3.5,1.7,6.6-3.6,6.5c-2-15.5,0.2-18.1,13.4-25
		c10.2-5.2,22.2-7.5,29.4-18.1c3.5-5.2,6.4-9.4,1.9-15.2c-0.9-1.2-1-2.8-0.3-4.3c0.8-0.9,3.2-0.3,1.6-3.1
		c-4.7-8.1-12.9-11-20.6-14.6c-4-1.8-8.9-2.9-5.4-9.2c6-2.1,11.5,0.6,17,2.2c7.3,2.4,12.8,6.5,15.1,14.4c0.7,2.6,3.2,4.4,6,5.1
		c2.7,0.7,4,2.5,4.8,4.9C554.6,467.4,554.6,468.4,554.6,469.4z"/>
	<path class="st78" d="M554.6,466.4c-1.4-0.8-1.9-2.9-4.3-2.3c-4.7,1.1-7.3-2.9-8.4-5.8c-2.5-6.6-5.8-11.9-12.9-14.1
		c-0.5-4.2-4-3.2-6.7-4.1c-6.1-2-12.6,1.5-18.6-1.6c0.5-7,7.1-3.2,9.8-6.2c-4.4-2.8-9.9-4.9-14.2-8.8c-5.1-4.6-5.5-8.2-1.6-14.1
		c25.3,8.5,43.6,24.9,54.9,49.1C553.8,461,554,463.8,554.6,466.4z"/>
	<path class="st79" d="M497.7,409.5c-2.6,7.2,0.7,11.6,6.8,15.2c5.2,3,11,5.1,16.6,10.3c-6.8,0.1-12.4,0.5-17.4,2.8
		c-0.8,0.9-1.8,0.9-2.9,0.5c-3.4-4-7.6-6.8-12.1-9.4c-5.4-3.2-9.9-7.3-9.5-14.5c4.4-4,9.5-5.8,15.5-5
		C495.7,409.4,496.7,409.4,497.7,409.5z"/>
	<path class="st80" d="M485.8,403.2c2.5-1.3,5.1-1.4,7.8-1.2c1.6,0.1,3.9-0.8,4.5,1.2c0.6,2.1-2.6,1.6-3.2,3.2
		c-0.6,0.5-1.2,0.9-1.9,1.4c-3,2.6-6.1,5-10.5,3.3C481,407.4,482.9,405.1,485.8,403.2z"/>
	<path class="st81" d="M482.8,410.8c3.8,0.6,6.7-2.1,10.2-2.9c0.6,0.5,1.1,1,1.7,1.5c-4.9,2-9.9,4-14.8,6.1
		c-1.2,3.7-0.7,8.6-6.3,9.3c-0.6-0.5-1-1.2-1.3-1.9c-0.8-3,0.5-5.5,1.6-8.1C476,411.7,478.3,408.7,482.8,410.8z"/>
	<path class="st82" d="M397.3,419.9c-2.6-2-5.7-2.7-8.9-2.8c-2.2-0.1-2.2-1.4-1.5-2.9c3.1-3.4,7.6-2.8,11.4-4.4c1.6-0.1,3,0.2,4,1.4
		c2.5,5.3,8.5,7,11.9,11.3c2.9,4.2,6.4,3.6,10.4,1.8c9.1-4,18.5-5.2,28.2-2.5c2.5,2.5,7.6,2.5,7.4,7.6c-0.6,0.6-1.2,1-1.9,1.3
		c-7.3,1.6-14.7-1.9-22,0.4c-7-0.2-12.1,3.1-16.6,9.4c2.8,0.3,5.9-1.7,7,1.7c1.1,3.2-0.9,5.6-2.3,8.2c-2.6,3.2-3.7,6.5-0.4,10
		c1.4,1.6,3.1,2.3,5.1,1.4c2.9-0.8,4.1,1,4.6,3.4c0.4,2.2,0.8,4.4,2.7,5.9c2.5,2.8,4.5,2.9,7-0.5c2.8-3.9,6.6-2.9,9.5,0
		c2.9,2.8,6.8,5.8,2.1,10.3c-4.1,0.4-8.1,1-11.7,3.1c-6.4,0.2-12.1-1.1-15.7-7.1c-2.5-4.1-6.7-6.5-10.1-9.6
		c-3.7-3.3-7.1-0.7-9.9,1.4c-5.8,4.3-12.2,6.1-19.2,6c-0.3-0.3-0.7-0.3-1-0.1c0.4,0.1,0.7,0.4,0.8,1c0.3,2.8-0.9,4.5-3.6,5
		c-1.9-0.3-3.2-1.5-4.7-2.5c-3-2.4-7-2.5-10.3-4.1c-4.2-2-7.5-4.9-9.4-9.2c-0.9-2.1-1.9-4.3,0.3-6.2c1.9-1.6,4.6-1.7,6.3-0.2
		c5.8,5.5,13.5,4.4,20.2,6.5c2.2,0.7,4.4,0.8,6.7,0.3c3.1-0.7,5.2-2,3.3-5.7c-1.4-2.6-3.7-5.5-0.7-8c2.7-2.3,5.1,0.3,7.3,1.8
		c3.5,2.5,4.9,1.3,5-2.6c0.1-5.4-3.8-11.1,1.6-16.2c0.9-0.9-1.3-3.5-2.6-5c-1.7-1.9-3.2-4-6-4.5c-1.3-0.5-2.4-1.1-3.2-2.2
		C397.4,421.9,397.2,420.9,397.3,419.9z"/>
	<path class="st83" d="M407.9,427.4c2.5,3.7,10.7,6.9,1,11.8c-0.4,0.2,0.2,2.7,0.5,4.1c0.5,2.7,1.4,5.3,1.6,8s0.6,5.8-2.5,7.2
		c-2.9,1.3-4.5-1.2-6.3-2.8c-0.7-0.7-1.4-1.4-2.1-2.1c-1.1-0.9-2.3-2.4-3.7-0.6c-0.8,1.1,0,2.3,0.7,3.4c1.6,2.5,6.4,3.9,3.8,7.8
		c-2.6,3.8-7.3,5-11.4,3.6c-7.8-2.8-17.5,0.6-23.7-7.5c-1-1.3-3.2-1.9-4.7-0.3c-1.4,1.4,0.5,2.6,1,3.9c2.1,5.3,6.4,7.5,11.6,9.3
		c2.3,0.8,6.7-0.9,6.8,3.9c-1.8,8.4-8.8,10.4-15.7,12.5c-3.5,0.1-6.4-1.2-8.5-3.8c-9.4-11.4-11.5-41.2-2.8-51.7
		c2.2-2.7,4.3-5.5,7.9-6.5c1.5-0.4,3-0.8,4.4-1.2c1.4,4.4-2.1,6.8-4.1,9.7c-4.5,6.8-4.3,8.3,1.9,13.5c3.8,3.2,7.4,6.6,12.6,7.6
		c6,1.1,11.5,1.3,14.2-5.7c1.1-2.9,3.7-4.3,6.6-3.9c4.9,0.6,6.4-2.2,6.3-6.1C402.9,435.9,405.3,431.7,407.9,427.4z"/>
	<path class="st84" d="M407.9,427.4c0.5,6.3-2.8,12-3.4,18.2c-0.3,2.8-3.3,4.6-7,3.7c-3.3-0.8-4.9,0.1-5.4,4.5
		c-0.8,6.1-7.3,6.2-11.9,6.3c-9.9,0.1-16.4-7.3-23.2-13c-3.7-3.2-0.4-7.9,1.8-11.5c2.1-3.3,4.7-6.4,7.1-9.5
		c10.6-1.8,20.2-8.3,31.6-6.2c0.5,0.5,0.9,1.1,1.4,1.6c-1.8,2.2-4.4,2-6.8,2.5c-7.3,1.6-12.1,6.5-15.8,12.6
		c-2.2,3.6-1.3,7.1,1.6,10.2c2.6,2.9,5.3,1.8,8,0.2c2.2-1.3,4.6-1.9,7-2.4c1.5-0.3,3.4-0.6,3.5-2.2c0.5-6.9,7.4-11.8,5.6-19.3
		C405,422.9,406.4,425.3,407.9,427.4z"/>
	<path class="st85" d="M365.7,487c5.6-2.7,10.9-5.7,14.8-10.6c1.9,0.2,3.1,1.1,3.3,3.1c0.5,0.6,0.7,1.2,0.5,2c-2,4-5.3,6.8-9.2,8.9
		c-2.2,0.7-4,2.4-6.3,3c-5.7,1.2-11.4,1-17-0.6c-3.2-0.9-6.3-2-7-5.8c-2.5-1.1-4.1-4.2-7.5-3.1c-7.5-20.2-3.4-38.1,10.7-54
		c2.9-1.6,3.9-4.3,4.3-7.3s2.2-4.8,4.6-6.2c3.7,0.1,7.4,0.1,11.1,0.3c1.5,0.1,3,0.8,3,2.7c0,1.5-1.4,1.9-2.5,2.4
		c-2.9,1.1-6.5,0.8-8.7,3.7c-7.8,10.9-14.6,22.3-17.4,35.7c-2.3,11.2-0.8,15.5,9.4,20.5C356.3,483.9,359.6,489.4,365.7,487z"/>
	<path class="st86" d="M365.7,487c-0.5,0.3-1.2,0.6-2.1,0.8c-8.8,2.1-21.9-7.9-24.8-19.5c-2.9-11.8,5.5-22.7,12.6-32.7
		c2.4-3.4,5.2-6.6,8.5-9.6c0.5,0.4,1,0.9,1.5,1.3c-4.9,5.3-7.9,10.7-9.6,16.2c-3.4,11.3-5.6,30.2,5.3,39.3
		C360.1,485.2,363.3,486.4,365.7,487z"/>
	<path class="st87" d="M398.7,410.9c-2.9,4.8-7.7,2.6-11.8,3.2c-10.4,5.2-20.3-0.1-31.4-0.7c3.5-4.7,7.9-6.1,11.8-8.2
		c0.6,0.4,1.4,0.3,2.1,0.6c10.4,4.6,18.3,2,23.5-8.2c6-1.4,11.9-2.9,17.9-4.3c5.5,4,5.4,4.8-1.4,10
		C405.9,405.8,403.2,409.6,398.7,410.9z"/>
	<path class="st88" d="M407.7,402c2.4-2.4,8.6-3.5,3.1-8.7c0.4-0.1,0.9-0.2,1.4-0.3c3.8-1,4.9,2.3,6.8,4.3c1.9,1.9,2.9,4.6,5.2,6.1
		c1.4,1.3,2.4,2.8,2.1,4.8c-3.1,6.6-6.3,13.2-14.4,15.1c-2.7-2.4-5.1-5.1-8.6-6.3c-2.3-0.8-2.8-2.4-1.4-4.5
		C402.1,408,407.9,406.6,407.7,402z"/>
	<path class="st89" d="M422.8,404.6c-4.9-2.6-6.2-8.5-10.6-11.6c-2.3-2.1-4.7-4.2-7-6.3c-0.2-1.9,1.1-2.4,2.6-2.7
		c3.4-1.9,6.2,1.1,9.4,1.2c2.7,1.1,5.5,2,7.1,4.8c2.9,3.4,7.8,2.9,11,5.6c-2.1,4.1-8.1,1.1-10.1,5.4
		C424.7,402.5,424.1,403.8,422.8,404.6z"/>
	<path class="st90" d="M392.9,397.6c-3.5,11.2-8.5,15.5-16.1,13c-3.4-1.1-6.4-3.6-9.5-5.4C375.8,402.5,384.1,399.2,392.9,397.6z"/>
	<path class="st91" d="M388.2,370.7c-3.3-2.1-6.7-4.3-10-6.4c-4.2-0.6-6.8-2.5-6.4-7.2c-3.5-4.6-3.9-11.5-12.6-12
		c-4.6-0.2-6.3-7.4-7.6-12c-2-6.8-3.2-13.9-3.8-21.2c-0.6-7.7,2.2-13.4,6.2-19.1c1.4-0.7,2.8-1.3,4.3-2c2.2,7.9,2,16.1,2.5,24.3
		c1,15.9,8.8,28.7,18.9,40.2c2.8,3.1,5.7,6.2,8.9,9C390.9,366.4,392,368.8,388.2,370.7z"/>
	<path class="st92" d="M371.8,357.1c2.1,2.4,4.3,4.8,6.4,7.2c-0.6,0.7-1.2,1.3-1.9,2c-5.5-2.4-10.4-5.5-14.5-10
		C365.6,353.1,368.8,354,371.8,357.1z"/>
	<path class="st65" d="M550.1,225.2c-1-5.5,0.2-11.4-3.1-16.4c4.7,2.2,5.9,7,7.8,11.2C557,224.7,552.6,224.2,550.1,225.2z"/>
	<path class="st65" d="M559,249.2c-1.7-4.9-4.9-9.4-3-15C564.7,237.7,558.7,244.1,559,249.2z"/>
	<path class="st93" d="M371.8,535.7c-1-2.5-2.1-5.1-3.1-7.6c0.4-2.7-2.6-5.8,1.2-8.3c1.6,1.7,3.2,3.4,4.8,5.1c3.5,0,5.1,3.3,8,4.4
		c4,2.5,8.5,4,12.6,6.5c18.4,6.1,37,6.3,55.9,2.4c10.2-0.6,19.6-5.3,29.9-5.6c3.7-0.1,7.5,0.4,11.1-0.5c1.7-0.9,3.9,0.2,5.6-1.3l0,0
		c4-1.4,8.1-1.5,12.2-1.4c1.2,0,2.8,0.5,3.5,0.7c1.3,0.3,1.4,0.5,1.5,0.6c0.8,1.3-2.4,4.5-2.9,5c-2.1,2.2-4,3.1-6.5,4.8
		c-2.5,1.6-5.2,2.8-7.4,4.9c-1.9,1.2-3.9,1.9-6,2.5c-5.6,1.6-11.1,3.5-16.6,5.6c-0.8,0.3-1.5,0.4-2.4,0.5c-4.7-0.4-8.4,3.1-12.9,3.5
		c-23.2,2.4-46.2,2.4-68.7-4.7C382.7,550,376,544.2,371.8,535.7z"/>
	<path class="st94" d="M344.9,487.4c7.7,5.7,16.6,4.4,25.3,4.5c3.2,6.3,1.6,12.2-1.5,18c-1.5-0.9-3-2.7-4.4-2.6
		c-10.3,0.6-14.9-7.7-21.1-13.4C339.9,490.8,339.8,488.4,344.9,487.4z"/>
	<path class="st95" d="M368.7,509.9c0.5-6,1-12,1.5-18c1.1-1.6,2.4-2.9,4.6-2.8c0.7,1.1,0.6,2.4,0.3,3.6c-1.8,6.5-2.6,11.1,6.3,14.4
		c10.3,3.8,9.5,17.1-0.4,23.4c-2.9-0.9-4.4-3.4-6.3-5.5C373.8,519.5,370.6,514.9,368.7,509.9z"/>
	<path class="st96" d="M491.6,545.8c1.8-1.5,3.8-2.2,6.1-1.7c1.2-1.8,2.8-2.5,5-2.2c4,7.1,11.4,12.7,10.9,22.1c-1.9,3-4.6,4.3-8.1,4
		c-2-0.4-3.7-1.5-4.7-3.3c-2.3-4.1-5.8-5.3-10-4.4c-4.6,1-7.1,4.2-7.6,8.9c-0.1,1.5-0.7,2.9-1.8,4c-5.9,3.3-12.3,3.3-18.8,3.4
		c-7.4,0.1-14.9-0.9-22.3,0.7c-1.6,0.5-3.3,0.5-5,0.3c-2.9-1.1-6-1-9-1.8c-1.2-0.4-2.2-1.2-3.1-2c-8.5-7.7-8.5-7.7-18.2-2.7
		c-1.8,0.6-3.6,0.7-5.4,0.4c-0.7-0.1-1.4-0.3-2.1-0.6c-4.2-2.5-9.2-3.5-13.2-6.2c-2.1-1.4-4.9-2.5-5.2-5.7c1.4-4.8,6.9-0.9,9-4.2
		c2.5-4.7,7-2.6,10-1.8c13,3.7,26.2,5.3,39.7,4.8c3.7-0.2,6.6,1,9.6,3.2c6,4.6,10.4,4.1,14.3-2.1c3.2-5.2,8.4-5.6,13.2-7.1l0.2-0.1
		C481,550.4,486.6,549,491.6,545.8z"/>
	<path class="st97" d="M435.1,575.7c1.3,0,2.5,0,3.8,0c5.1-0.9,10.2-1,15.3,0.1c0.2,4.1-3.1,3.6-5.4,3.9c-4.8,0.6-9.8,0.7-14.6,0.1
		c-4.3-0.6-3.7,2.1-4.2,4.4c-2.1,1.7-4.5,1.5-6.9,1.4c-4.4-1-8.9-0.9-13.3-1.3c-14.5-4.1-29.4-7.5-41.3-17.7
		c-2.2-1.9-5.1-3.4-3.7-7.1c2.9-1.8,2.9-4.5,2.4-7.4c4.6,0.5,6.7,4.2,9.3,7.4c7.2,4.1,14.5,8,22.5,10.4h-0.1
		C410.8,572.7,422.9,574.4,435.1,575.7z"/>
	<path class="st98" d="M475.1,551.8c-5.1,2.6-10,4.5-12.3,11.2c-1.9,5.7-12.6,5.9-16.7,0.7c-3.1-4-6.4-4.8-10.9-4.5
		c-12.4,0.7-24.3-2-36.1-5c-3.8-1-7.3-1.3-10.8,0.6c-9.5-0.2-11.7-1.9-13.5-10.8c-0.6-3-3.5-5-3-8.3c14.3,16.4,33.8,19.5,53.9,20.9
		C442.4,557.8,458.8,555.5,475.1,551.8z"/>
	<path class="st99" d="M398.9,569.7c-8.7-0.9-16.3-4.2-22.5-10.4c0.9-0.1,1.9-0.2,2.8-0.3C385,564,392.9,565.1,398.9,569.7z"/>
	<path class="st100" d="M482.8,410.8c-3.2,0.4-5.5,2.4-7.5,4.7c-1.2,1.9-2.7,3.1-5,1.6c-1.9-6.8-5.6-10.8-13.3-10.2
		c-3.4,0.3-6.4-2.2-9.7-3.3c-1.1-0.6-2.4-1.7-1.8-2.8c1-1.8,2.8-1.4,4.4-0.5c12,0.9,24,1.9,36,2.8
		C486.5,406.4,483.3,408.1,482.8,410.8z"/>
	<path class="st101" d="M449.8,400.4c-1,0.2-2,0.4-3,0.6c0.5,0.3,1,0.6,1.5,0.9c2,3.6-0.4,5.4-2.9,7.2c-9.4,1.9-17-1-22.5-9
		c-0.2-3.1,1.3-4.4,4.3-4.3c2.7,0,5.3-0.1,8-0.2c4.9,1.1,9.7,2.1,14.6,3.2C449.8,399.4,449.8,399.9,449.8,400.4z"/>
	<path class="st102" d="M388.2,370.7c0.5-1.5,1.8-2.7-0.3-4.5c-17.4-14.3-29.3-31.4-29.8-55.1c-0.1-4.6,0.6-9.7-1.9-14.3
		c-1.4-2.6,1.7-3.9,2-6c9.4-9.8,20.5-8.4,32-5.1c-0.6,5.2-8.4-0.8-7.9,5.6c5.6,2.3,5.5,5.2,1,8.8c-4.8,3.8-4.1,7.7-0.1,11.9
		c2.9,3,6.6,5.3,8.5,9.2c-0.8,3.6-4,3-6.5,3.8c-5.4,1.7-6.6,4.4-3,8.6c3.1,3.8,4.5,8,5.9,12.6c2.9,9.7,11.9,14.2,18.8,20.5
		c2,1.8,4.6,3,6.6,4.8c6.6,5.8,6.8,6.7,3.2,15.3c-3.5,0.5-6-2-9-2.9C401.2,379.6,394.7,375.1,388.2,370.7z"/>
	<path class="st103" d="M385.3,279c-1.5-2.5-2.5-5.5-0.9-7.8c6.4-8.9,9.3-19.7,15.5-28.7c0.8-1.2,1.4-3.1,3-3c2.5,0.2,1.5,2.7,2,4.2
		c0.3,0.9,1,1.6,1.5,2.5c2.9-0.8,4.3,1,5.4,3.3c0.3,1.2,0.2,2.3-0.2,3.5c-6.1,7.4-10.8,15.3-10.7,25.3c0,1.5-0.6,2.9-1.9,3.8
		c-0.5,2.6-1.9,3.5-3.9,1.5C392.3,280.7,388.8,280,385.3,279z"/>
	<path class="st104" d="M391.3,321.1c-6.2-2.1-9.7-7.3-13.4-12.1c-3.7-4.9,0.6-8,3.8-10.3c3.6-2.6,3.5-4.6,0.6-7.4
		c7.2,2.4,15.1-0.4,22.2,2.8c-1.4,2.4-4.6,1.4-6.6,3.5c1.6,3.4,5,3.4,8,4.2c7.9,2.1,9.4,4.9,4.5,11.1c-2.2,2.8,0.5,6.8-3.2,8.5
		c-4.6-1.1-4.4-4.6-4.2-8.1c-0.1-1,1.3-2.9-0.2-2.9c-2.1,0.1-3.9,1.9-4.8,3.8c-0.7,1.6,1.3,1.5,2.2,2.1c1.9,1,2.9,2.3,2.1,4.6
		C398.6,323.6,395,324.2,391.3,321.1z"/>
	<path class="st105" d="M407.7,321.1c-0.9-3.6-2-6.9,1.7-10.1c4.2-3.5,2.5-5.5-2.3-6.7c-3.5-0.9-7.9,0.7-10.5-3.6
		c-1-1.6-3.5-2.8-2.9-4.8c0.8-2.9,3.7-1.5,5.8-1.7c1.7-0.2,3.5-0.1,5.2-0.1c2.1,0.4,4.2,0.9,6.4,1.3c3.2-2.1,5.3,0.9,7.9,1.8
		c3,5.2,10.5,5.7,12.7,11.7c-1,3.6-0.4,6.7,2.7,9.4c2,1.8,4,4,2.5,7.1c-5,1.4-6.8-2.8-9.4-5.5c-1.5-1.6-2.1-3.9-3.5-5.6
		c-3.7-4.7-7.5-4.4-10.3,0.8c-1.3,2.4-1.5,5.3-3.5,7.3c-0.6,0.4-1.3,0.6-2,0.4c-0.4-0.4-0.6-0.7-0.6-1.2
		C407.5,321.3,407.6,321.1,407.7,321.1z"/>
	<path class="st106" d="M409.3,289.6c-1.1-0.9-2.1-1.9-3.2-2.8c-3.9-6.3-1.4-13.2-2-19.8c0.5-6.6,4.2-11.2,9.6-14.7
		c2.5-1,5.1-1,7.6,0c7.8,6.4,9,9.7,5.8,16.4c-4.1-0.2-7.9-4.7-12.3-0.9c-5.1,5.1-5.7,11.2-4,17.8
		C410.9,287.2,410.5,288.6,409.3,289.6z"/>
	<path class="st107" d="M414.1,253.9c-3.3,3.4-6.6,6.8-7.9,11.6c-2.2,6.9-0.6,14-1.2,21c-0.3,1.3,0.4,3.3-1.3,3.8
		c-1.6,0.4-1.7-1.2-1.9-2.4c-0.3-2.2-1-4.3-2.7-5.8c-0.9-11.9,1.6-22.4,11.8-29.9C412.2,252,413.4,252.4,414.1,253.9z"/>
	<path class="st108" d="M409.3,289.6c0-1.5,0-3,0-4.5c-2-7.1,1.1-12.9,4.8-18.6c3-1.1,5.9-3.2,9.1-0.4c-1.2,4.8-2.3,9.4-6.7,12.8
		c-3,2.3-1.7,6-0.7,9.1c0.5,1.6,1.3,3.4,3.4,3.5c1.7,0,2.4-1.5,3.4-2.6c2.2-2.3,1.6-7.2,6.6-6.8c1.1,1.2,1.4,2.7,1.3,4.2
		c-0.7,4-2.7,7.4-5,10.6c-2,2.4-4.4,3.6-7.4,1.8c-3.1,0.4-4.2-3.5-7.2-3.3C410.7,293.4,411.7,291.1,409.3,289.6z"/>
	<path class="st109" d="M404.9,286.5c-1.5-7.1-2.5-14.2,1.2-21c0,7.1,0,14.2,0,21.3C405.7,286.8,405.3,286.7,404.9,286.5z"/>
	<path class="st110" d="M364.7,559.3c7.1,8.6,16.6,13.5,26.9,16.9c5.9,1.9,11.7,3.8,17.6,5.7c-0.7,8.3-5.6,3.4-9.1,3
		c-8.8,0.2-15.1-6.8-23.4-7.9c-1.8-5.6-8.2-6.1-11.4-10.2c-1.7-2.1-3.6-4.1-5.5-6.1c0-1.6-0.1-3.2,1.5-4.3
		C362.4,557.4,363.5,558.3,364.7,559.3z"/>
	<path class="st111" d="M473.6,668.5c12.6-0.3,25,2.4,37.5,3.5c7.9,0.7,13.3,7.5,20.4,10.2c0.4,0.2,0.3,1.8,0.4,2.8
		c-4,3-5.9,8-10.3,10.6c-10.1,8.6-21.8,14.2-34.5,17.9c-14.5,3.6-29,5.8-44,3.9c-6.7-0.8-13.8,1.5-20.1-3.1
		c-3.7-2.7-5.9-5.3-3.5-9.9c-0.4-1-0.9-1.9-1.3-2.9c-0.4-0.4-0.5-0.9-0.5-1.3c0.1-0.5,0.1-0.7,0.2-0.7c1.1-1.2,2.3-2,3.9-0.8
		c0.5,0.6,0.9,1.2,1.2,1.9c1.3,6.8,7.1,7.2,12.1,7.8c13.9,1.6,27.5-1.9,40.6-4.9c12.3-2.8,24.4-8.7,33.9-17.9
		c1.8-1.7,4.4-3.4,3.6-6.1c-0.8-2.7-3.8-3.2-6.2-3.4c-7.9-0.8-15.8-2.1-23.8-2.2c-3.7,0-8.3,0.5-9.4-4.9L473.6,668.5z"/>
	<path class="st37" d="M419.6,704.5c1,6.3,9.2,11.6,17.8,12.1c16.7,1,33.3-0.8,49.8-3c-12.5,6-26,7.2-39.3,5.5
		c-7.2-0.9-13.8,0.7-20.7,0.5C417.6,717.6,414.6,711.6,419.6,704.5z"/>
	<path class="st112" d="M354,674.9c-6.5-0.6-3.2-7.4-6.1-10.5c-0.8-0.8,4.3-1.7,6.9-1.7c6.7-0.1,13.3,0,20,0
		c6.1-3.4,7.8,3.2,11.1,5.4c2.4,1.6,0.4,4.9-1.7,7s-4.3,3.4-7.1,1.2c-3.1-2.4-6-2.1-8.3,1.2c-1.1,0.3-2.4,0.4-2.8,1.8
		c-0.5,0.5-1,1.1-1.5,1.6c-3.5,1.5-5.7,1.3-5.3-3.5C359.8,672.1,356.9,673.4,354,674.9L354,674.9z"/>
	<path class="st72" d="M354,674.9c3.9-3.7,7.1-4.7,6.6,2.4c-0.3,3.8,1.9,3.3,4,3.6c-3,3.5-6.2,5.8-10.9,2.8c0.1-2.4,1.9-3.8,3.1-5.5
		C359.3,674.3,355.7,675.3,354,674.9z"/>
	<path class="st37" d="M395.9,701.6c-1.4-4,3.5-9.7-3.6-12.4c-1.5-0.6,0.5-3,1.7-4.2c5.2-5.9,14.7-7.6,24.3-4.2
		c-1.2,1.7-2.9,2-4.8,2.1c-3.8-0.3-7.2,0.1-8.8,4.4c-0.5,0.8-1.1,1.6-1.7,2.4c0,0.8-2.7,1.7,0.1,2.3c0.9-0.3,1.7-0.4,2.6-0.4
		c1.3,0.2,2.9,0.8,2.8,1.9c-0.4,6.1,3.8,7.4,8.3,8.5c-1,1.4-2.1,2.7-3.1,4.2c-1.5,2.3-3,4.9-6.3,4.3c-4-0.7-2.2-4.3-2.9-6.7
		c-0.4-1.5,1.4-5.1-2.9-3.6C400.5,703.2,399,705.6,395.9,701.6z"/>
	<path class="st113" d="M416.9,701.9c-1.6,0.4-3.3,1-4.9,1.2c-3.7,0.5-6.6,0.1-4.9-4.9c0.9-2.5,1.1-4.9-2.4-5.6
		c-0.1-4.8,3.5-6.1,7-6.9c2.9-0.6,5.7,1.6,4,4.1c-3.6,5.1,0.5,7.3,2.6,10.4c0,0.5,0,1,0,1.5C417.8,701.7,417.4,701.7,416.9,701.9z"
		/>
	<path class="st114" d="M395.9,701.6c2.6,2,4-0.6,5.9-1.4c2.3,3.5,2.4,7.1-0.1,10.6c-3.2-1.8-5.3-4.6-7.5-7.5
		C394.8,702.6,395.4,702.1,395.9,701.6z"/>
	<path class="st115" d="M488.6,644.8c-1,0-1.9-0.1-2.9-0.1c-0.5-0.6-0.6-1.3-0.3-2.1c7.2-10.3,2.8-21.1,1.6-31.8
		c-0.2-1.6-1.7-2.5-3.3-2.5c-2,0.1-3,1.5-3.4,3.4c-0.8,3.8-2.3,7.1-6.9,5.7c-4.7-1.5-5.5-5.3-3.7-9.7c0.9-1.6,2.9-0.7,4-1.9
		c6.5-2.7,13.1-4.3,20.2-1.8c2.7,0.9,5.1-1.2,7.5-2.6c3.1-1.9,5.7-5,9.9-4.6c3.3,12.6,7.4,24.9,7.5,38.2c0,4.3-0.6,8.1-4.6,10.1
		c-3.6,1.8-5.8-1.5-8.3-3.4c-4.5-3.5-8.9-8-12.8,0.7C492.4,644,490.5,644.6,488.6,644.8z"/>
	<path class="st116" d="M526.2,623.2c1.2-6.5-2.2-14-1.5-21.7c0.2-2.2-0.3-4.6,1.2-6.4c1.2-1.4,2.2-3.7,4.6-3.1
		c1.8,0.4,2.6,2.1,3.1,3.9c2.8,12.4,3.8,24.9,3.2,37.5c-0.2,3.1-0.8,7.6-4.6,7.4c-4-0.2-5.9-3.9-5.9-8.2
		C526.2,629.9,526.2,627.2,526.2,623.2z"/>
	<path class="st49" d="M518.5,584.8c8.1-4.2,16.5-7.4,25.5-9.1c-0.8,3.2-0.1,6.8-2.8,9.7c-2.8,3.1-5.7,5-9.5,2.1
		c-4.2-3.2-6.6-2.7-7.3,2.9c-0.3,2.3-2.1,3.2-4.2,3.5c-2.5,0-4.5-0.5-6.7-2.3c-5.5-4.6-11.2-2.7-12.6,4.1c-0.7,3.7-2.9,5.1-5.7,5.9
		c-3.2,0.9-4.4-1.9-5.3-4c-1.7-4.3-5.3-3.8-8.7-3.8c2-2.2,4.5-3.2,7.3-2.8c9,1,17-4.6,26.1-3.3C516.4,587.8,517.8,586.5,518.5,584.8
		z"/>
	<path class="st117" d="M386.8,608.8c-2.1-2.4-4-5-7.3-5.8c-6.3-1.7-8.4-6.1-7.7-12.2c3.6-4.8,7.3-4.4,11-0.2c2.1,2.4,4.7,3.5,8,3.2
		c2.3-0.2,4.5,0.2,6.2,2c5,5,10.1,8.7,16.1,1.3c3.9,7.6-0.4,13.8-1.2,20.2c-0.4,3.5-3.1,3.4-5.7,2
		C399.8,615.8,393.3,612.3,386.8,608.8z"/>
	<path class="st118" d="M421.2,615.3c1.1-5.1,2-10,3.1-14.8c0.7-2.9,2.8-4.1,5.6-3.4c3.2,0.8,3.2,3.1,2.5,5.9
		c-1,4.1-1.6,8.2-2.2,12.4c-0.5,3.4,0.1,8.1-4.6,7.9C421.1,623.1,423.1,617.7,421.2,615.3z"/>
	<path class="st119" d="M473.9,669c2.9,3.1,6.8,2.6,10.5,2.7c9.4,0.1,18.9,0.7,28,3.2c6.3,1.7,7.5,5.2,2.6,9.5
		c-8.6,7.5-17,15.9-29.3,17.3c-0.5,0.1-1.1,0-1.5,0.3c-14.8,8.6-31.4,7.6-47.6,9c-8.8,0.8-14.7-3.9-15.2-10.9
		c1.6-0.6,2.9,0.1,4.1,1.1c7.8,7.7,16.7,4.2,25.1,1.9c4.7-1.3,8.9-4.4,13.3-6.7c3.4-1.8,4.8-5,5-8.6c0.4-6.6-2.7-9-9.1-7.4
		c-3.4,0.8-6.9,3.7-10.4,0.2C457.6,676.7,465.8,672.9,473.9,669z"/>
	<path class="st120" d="M449.5,680.5c4.4,0.4,8.1-1.8,12-3.4c4.7-1.9,7.6-0.3,9.2,4.4c2.9,8.6,0.1,14.1-8.3,18.4
		c-9.2,4.7-18.4,8.7-29,7.7c-4.1-0.4-8-0.9-9.1-5.9c1.1-0.8,2.4-0.7,3.5-0.1c11.8,5.8,20.3-0.8,28.8-7.5c2.1-1.7,4.4-3.7,3-6.9
		c-1.2-2.8-3.8-2.9-6.3-2.8c-8.4,0.6-16.7,1.7-25.1,1.7c-5.3,0.1-10.7,0.4-15.4-3c-0.7-0.7-0.8-1.4-0.4-2.3c2-0.1,4-0.2,6-0.2
		C428.7,682.8,439.1,682.5,449.5,680.5z"/>
	<path class="st121" d="M422.8,583.3c2.4-0.1,4.9-0.1,7.3-0.2c6.4-2.9,13-0.5,19.5-1c4.5,0.8,8.8,0.1,13.2-0.7
		c14.8-2.8,30-3.3,44.5-7.8c2.8-0.9,5.9-0.3,8.7,0.9c1.8,1.5,2.1,2.6-0.5,3.6c-3.3,1.2-6.6,2.3-9,5.1c-2.5,0.2-4.7,1.1-6.5,2.9
		c-2.3-0.1-4.7-0.2-7-0.3c-9.7-0.4-19,2.4-28.6,3.2c-13.9,1.1-27.7,1.5-41.5-0.4c-2-0.3-4.5,0-4.6-2.6
		C418.2,582.9,421.7,584.8,422.8,583.3z"/>
	<path class="st122" d="M422.8,583.3c-1.1,0.9-3.1,1.9-3,2.7c0.1,1.7,2.1,1.5,3.6,1.7c20.7,2.2,41.3,0.8,61.9-2.5
		c2.7-0.4,5.4-1.2,7.9,0.6c-19.8,3.8-39.7,6.2-59.8,4.8c-11.2-0.8-22.7-0.5-33.3-5.7c3.3-0.4,7.4,2,9.1-3
		C413.8,581.6,418.4,581.9,422.8,583.3z"/>
	<path class="st123" d="M473.7,605.8c-1,0.5-2,1-3,1.5c-7.6,1.1-9.3,5.9-10,13c-0.7,7.2,1.3,14.3-0.1,21.5c-0.6,0.7-1.3,0.7-2,0
		c-6.1-2.6-14.8-1.1-16.4-10.5c0.4-8.1-0.8-16.2,0.9-24.3c0.9-4.7,3.6-6,7.3-3.5c3.4,2.3,5.9,1.9,9.4,0
		C464.6,600.9,469.2,603.9,473.7,605.8z"/>
	<path class="st38" d="M458.7,641.8c0.5,0,1.1-0.1,1.6-0.1c9.2-5.2,17.9-4.6,25.4,1.6c0,0.5,0,0.9,0.1,1.4
		C476.7,644.1,467.3,646.4,458.7,641.8z"/>
	<path class="st124" d="M506.6,583.1c1.6-5.2,7.5-4.3,10.6-7.3c-0.1-2.4,1.1-4.1,2.7-5.6c12.6-6.5,25.7-12.2,36.1-22.3
		c2.7-1.9,4.6-4.7,7.4-6.5c4.2,1.5,4,6,6.2,8.8c-0.2,1.6,0.2,3.5-1.9,4.4c-0.1-1.8-0.1-3.9-1.9-4.5c-1.8-0.5-2,1.8-2.8,2.8
		c-10.5,12.5-24.7,19-39.7,23.8C517.5,578.6,512,580.6,506.6,583.1z"/>
	<path class="st125" d="M473.7,91.8c-12-8.7-15.5-22.8-22.6-34.7c-4.2-7-1.3-13.8-1.4-20.8c3.1-8,13.2-12,24.4-10.1
		c24.3,4,40.2,19.7,53.4,38.6c11.7,16.6,18,35.4,18.2,55.9c0.1,8,4.5,15.4,3,23.6c0.9,8.2-1.3,16-2.3,24c-1.1,8.8-2,17.6-6.7,25.4
		c-3.9,3.3-7.7,6.7-9,12c-4-1.4-7.9-1.9-11.8,1.1c-1.3-3.6,1.3-4.3,2.7-5.6c9-3.7,11.7-11.3,14.8-20c5.8-16.3,5.7-32.8,5.2-49.4
		c-0.6-20.6-3.8-41.2-15.7-58.3c-12.9-18.6-27.7-36.3-52.6-39.7c-5-0.7-10.3-1.5-13.9,2.9c-4.6,5.6-5.7,12.3-2.3,18.9
		c4.2,8.2,7.7,16.7,13.2,24.2C472.8,83.1,476.3,86.8,473.7,91.8z"/>
	<path class="st54" d="M539.6,193.7c-1.4-6.5,2.1-12.2,3.7-18c2.8-10.4,1.4-21.4,5.3-31.5c2.8,6,2.3,12.3,0.4,18
		c-1.6,4.7-2.7,9.4-1.7,13.8C549.2,184.3,544.8,189,539.6,193.7z"/>
	<path class="st28" d="M391.3,321.1c3.5,0.6,6.9-1.4,10.4,0c2.9,0.2,4.1,2.4,5.2,4.7c1.9,3.8,4.2,8.1,7.9,9.6
		c11.5,4.9,16.6,15.8,24.3,24.2c2,2.3,3.9,4.8,6.2,6.8c6.7,4.6,11.9,4.4,17-1.4c2.9-3.3,5.7-6.9,7-11.3c0.8-1.7,1.9-3.1,3.3-4.4
		c4.5-3.8,8.5-8.2,12.7-12.3c4-3.9,8.1-5.4,13.3-3c3.6,1.7,7.5,2.6,11.3,3.9c12.8,4.6,23.4-4.7,21-17.9c-0.5-2.9-3-6.5,2.4-7.7
		c3.1,0,5.5,1.6,7.5,3.8c0.8,0.5,1,1.9,2.3,1.7c-0.3-0.7-0.9-0.9-1.5-1.3c-3.6-3.2-7.8-5.8-10.5-9.8c-0.2-1.4-2.3-3.4,1.1-3.7
		c1,0,2-0.1,3-0.1c13.9-0.5,27.6-0.2,40.4,6.2c0.9,1.9,3.2,3.2,2.2,5.9c-2.3,6.2-4.2,12.6-6.9,18.6c-2.1,4.7-4.2,9.5-6.4,14.1
		c-3.9,8.5-10.8,14.8-19.8,18c-2.1,0.7-3.6,1.5-4.5,3.3c-0.8,1.6-2.1,3.3-3.8,3.4c-6.9,0-11,3-12.1,10c-0.2,1.4-1.7,2.6-3.3,2.6
		c-13.1,0.3-24.5,8.2-37.7,8.4c-2.1,0-4.2,1.6-5.2,3.8c-7.7,0.3-17,0.2-27.4-1.2c-10.4-1.4-19.4-3.7-26.8-6.1
		c-0.7-0.1-1.5-0.2-2.4-0.5c-2.3-0.6-4-1.7-5.1-2.5c-0.7-1-2.1-2.9-1.9-3.2c7.4-10.3-4.5-10.6-8-14.5c-7.8-8.6-20.9-12.8-21.6-27.2
		c-0.1-2.5-1.5-4.8-3.8-6.1c-3.4-2-5-5.4-3.8-8.8c1.1-3.4,4.4-5.2,8.4-5C387.7,322.7,389.8,322.9,391.3,321.1z"/>
	<path class="st126" d="M532.2,303.2c-1.4,1-0.2,2,0,2.9c-5.7,1.6-15.9-2.8-19.5-8.4c0.1-3.2,0.8-6.2,2.4-9
		c6.4-7.9,1.4-15.1-1.2-22.5c-0.5-0.9-0.9-1.8-1.4-2.7c-1.3-4-4.9-6.2-7.4-9.3c-1.7-2.1-2-5-3.5-7.2c-2.2-3.2-5.3-5.4-9.3-3.7
		c-3.4,1.4-5,3.9-2.2,7.4c1.6,1.5,3.3,2.8,4,5c0.6,6.4-5.5,9.6-6.9,15.1c-3.3,7.9-2.8,16-1.6,24.1c0.5,3.5,1.1,6.9-2.2,9.5
		c-4.5,1.4-8.9,3.1-13.7,2.1c-1.2-0.3-2.2-1-3-1.8c-5.1-5.5-5.3-11.2-1.3-17.6c4.3-6.7,5.6-14.2,6.1-22.1c0.3-4.7,0.8-8.3-2-12.9
		c-2.6-4.4-5.6-5.2-9.6-5.3c-4.2-0.1-5,3.5-6,6.5c-1.9,6.2-2.3,12.7-3.9,19c-2.8,11.6-10.1,20.4-17,29.6c-6.8,2.7-9,1.2-9.1-6.4
		c1.6-2.9,3.1-5.9,4.7-8.8c0.7-11.4,2.9-23-3.2-33.7c-0.4-0.6-0.7-1.3-0.9-2.1c-0.1-1.2,0.2-2.3,1.1-3.1c0.4-3.9-0.1-6.6-4.7-8.5
		c-3-1.2-4.9-5.2-7.3-8c1.4-3.4,5.4-3.4,7.6-5.9c0-2.1,0.9-3.8,2.1-5.4c6-4.4,12.1-8.5,19.9-3.9c3.2-2.4,2.4-5.3,0.5-7.7
		c-4.2-5.3-8.8-1.1-13.7,0c5.3-5.9,0.2-15.3,7.7-20.3c1,0,2,0,3-0.1c1.6,3.9,1.7,8.4,4.6,11.9c6.9,6.2,13.5,13.3,24.2,7.7
		c0.9-4.6-1.8-9.3,0.1-13.9c2.6-3.6,5.2-7.3,8.7-10.2c0.5,0,1,0,1.5,0c11.5,3,11.6,3,17,13.6c0.4,0.9,0.6,1.9,0.9,2.8
		c3.1,6,8,10.2,13.2,14.5c3.1,2.6,3.3,8.8,7.2,12.1c0.3,0.3,0,2.1-0.5,2.6c-1.1,1-2.4,0.6-3-0.8c-1.2-2.9-2.7-5.4-6.1-5.8
		c-5,1-8.7-5.4-14-2.4c2.1,5.6,8.6,3.2,11.9,6.7c0.6,0.3,1.2,0.8,1.7,1.3c1.2,1.4,2.4,2.8,1.7,4.8c2,1.9,3.5,4,2.4,7
		c2.6,0,3.4-2,4.9-2.7c3.7-1.9,6.2-0.5,5.6,3.5c-1.3,8.7,1.9,16.4,3.6,24.6c2,9.4,3.3,18.9,9.5,26.8c1.3,1.7-0.7,3.2-2,4.3
		C531.7,298.1,530.2,300.2,532.2,303.2z"/>
	<path class="st127" d="M473.7,91.8c-4.8-12-13.1-22.1-18.5-33.8c-3.1-6.7-4-20.1,2-24.5c5.3-3.9,12.2-4.3,19.1-1.6
		c7.7,3,16.4,3.3,23.2,9.1c9.1,7.8,18.1,16,24.8,25.6c9.1,13.1,15.2,27.7,17.5,44.4c2.1,15.2,2.2,30.2,2.3,45.3
		c0.1,13.3-5.4,25.6-9.7,37.9c-1.6,4.7-6.2,9-12.8,6.9c0.1-0.9,0.2-1.8,0.3-2.7c0.7-6.9,3.3-13.2,5.6-19.5c7.9-21.4,8.7-43,1.8-64.8
		c-5.9-25.4-17.9-46.9-40.6-61.2c-4.5-3.8-9.9-5.4-15.5-6.9c-4.4-1.1-6.1,0.8-5.8,4.9c0.4,4.8,1.9,9.3,4,13.5
		c5,10,11,19.4,17.4,28.7c12.5,18,25.1,36,30.4,57.8c0.8,3.2,2.8,6.6-0.3,9.8c0.8,7.4,2,14.7,1.5,22.2c-0.1,1.7,0.2,3.6-0.3,5.2
		c-1.3,3.7-2.7,9.3-6.7,8.6c-4-0.8-0.9-5.8-1-9.1c-0.4-12.2-1.2-24.2-7.1-35.7c-4.6-9.1-8.2-18.9-12.5-28.3
		C487.6,112.3,481.1,101.8,473.7,91.8z"/>
	<path class="st128" d="M518.8,160.7c-2.9-18.6-11.2-34.8-21.3-50.4c-9.6-14.8-21-28.4-28.2-44.7c-2.7-6.1-5.4-12.3-4.4-19.4
		c0.4-2.8,1.4-4.6,4.2-3.7c7.2,2.3,15.2,2.7,20.8,8.9c-1.1,1.6-1.8,3.5-4.1,4c-2.1,0.2-3.8-1-5.6-1.8c-1.9-0.9-4-3-6-0.7
		c-1.5,1.9-0.8,4.3,0.1,6.4c4.9,11.2,11.4,21.5,18.8,31.2c15,19.5,27.2,40.4,32.4,64.8c0.9,4.1,2.6,8.2-0.9,12
		c-1.2,0.5-2.2,0.3-3.2-0.5C521.2,164.5,520.7,162.3,518.8,160.7z"/>
	<path class="st129" d="M521.6,166.8c1.1-0.1,2.2-0.1,3.3-0.2c3.1-8.3,0.9-16.9,1.7-25.4c0.3-3.8-0.8-8,3.1-10.8
		c2.6,0.7,2.6,2.8,2.5,4.7c-0.1,9.5,0.8,19-0.5,26c1.2-11.7,1.5-25.9-2.2-39.9c-0.9-3.3-1.5-6.3,1.5-8.8c3.8,12.4,6.3,24.8,5,37.9
		c-1.6,17-5.4,33.2-14.1,48c-1.9,0.3-2.8,3-6.3,1.5C524.5,190.1,521.6,178.2,521.6,166.8z"/>
	<path class="st130" d="M491.6,217.6c7.2-4.3,11.7,1.2,16.8,4.5c-0.2,1.3-0.1,2.4,1.1,3.1c0.7,0.8,0.9,1.7,0.3,2.6
		c-0.9,1.1-2,1.1-3.1,0.2l0,0c-3.3-2.2-6.9-3.5-10.7-4.6C493.2,222.8,490.1,221.8,491.6,217.6z"/>
	<path class="st131" d="M506.8,228.1c1.6-0.3,2.7-1,2.8-2.8c4,2.3,5.8,4.7,0.2,7.2C508.8,231,507.8,229.6,506.8,228.1z"/>
	<path class="st132" d="M338.9,75.4c-4.9-1-8.7,3.4-13.5,3c9.5-8.3,20.4-8.3,32.4-6.8c9.9,1.2,19.2,3.4,28.6,6.7
		c5.2,1.8,9.9,4.1,14,7.6c-7.3-0.8-13.2-5.2-20.1-7.3c-6.2-1.9-12.3-3.6-18.9-3.2C353.9,75.8,346.4,74.1,338.9,75.4z"/>
	<path class="st133" d="M419.5,144.4c-5.3-1.9-9-6.1-13.3-9.3c-14.2-10.5-29.8-18.6-45.4-26.8c-5.2-2.8-10.1-6.2-15.1-9.4
		c-0.7-0.5-1.4-1.5-1.4-2.4c-0.1-1.3,1.2-1.5,2.2-1.4c30.4,2.5,56.7,13.4,76.3,37.9c0.1,0.2,0.1,0.5,0.1,0.7
		C424.4,138.1,427.1,142.9,419.5,144.4z"/>
	<path class="st134" d="M449.5,183.1c6.7-6.4,17.2-5.5,21.3,1.7c1.5,1.7,0.7,3.3-0.1,5c-0.6,0.9-1.3,1.7-2,2.5
		c-3.4,4-3.5,11.5-11.4,10.5c-2.6-1.4-4.5-3.5-6.1-5.9c-1.4-4-5.2-7.5-3.1-12.4C448.5,184.1,449,183.6,449.5,183.1z"/>
	<path class="st135" d="M419.5,144.4c4.9-2.4,2.7-7,3.3-10.8c2.9,1.8,3.8,5.2,6,7.6c4.7,7.2,9.1,14.5,12,22.6c0.7,2.1,2.2,4-0.1,6
		C433.7,161.4,426.6,152.9,419.5,144.4z"/>
	<path class="st136" d="M467.5,191.1c0.7-0.6,1.4-1.3,2.1-1.9c3.2,0.8,2.1,2.8,1.4,4.7c0.1,2.6-0.5,5.2,1,7.7c1.8,2.9,1,5-2.5,5.8
		c-2.1-0.3-4.4-0.1-4.7-3C462.8,199.4,465.7,195.3,467.5,191.1z"/>
	<path class="st137" d="M336,96.3c-2.7-1.5-5.7-1.5-8.6-1.7c-1.3-0.1-2.6-0.7-2.7-2.1c-0.2-2.2,1.7-2.1,3.1-2.1
		c2.7-0.1,5.4-0.1,8.1-0.1C334.4,92.3,335.7,94.3,336,96.3z"/>
	<path class="st60" d="M467.5,191.1c-0.9,4.4-1.8,8.9-2.7,13.3c-2.5-0.3-5.3,0.7-7.5-1.5C463.7,201.6,463.3,194.4,467.5,191.1z"/>
	<path class="st60" d="M448.1,184.6c-0.9,4.6,3.8,7.8,3.1,12.4C447.4,193.5,445.2,189.7,448.1,184.6z"/>
	<path class="st69" d="M445.3,199.8c-4.2-2.9-4.3-7.4-4.6-11.9C443.1,191.5,444.2,195.7,445.3,199.8z"/>
	<path class="st138" d="M470.9,193.9c-0.5-1.6-0.9-3.1-1.4-4.7c0.4-1.5,0.8-2.9,1.2-4.4c2.3-1.5,4.4-3.9,7.5-1.5
		C478.4,188.6,474.1,190.8,470.9,193.9z"/>
	<path class="st139" d="M503.5,539.7c3.2-2.5,6.4-5,11.4-8.9c-7.1,0-12.1,0-17.2,0c5.3-4.8,12.3-2,18.3-4.1
		c11.8-4,21-11.4,29.6-19.9c0.3,1.9-2,4.4,1.1,5.8c-3.1,3.8-1.9,6.5,1.6,9.7c5,4.6,10.3,9.1,12.7,15.9c-1.8,2-4.1,2.6-6.7,2.1
		c-3.5-2.4-5.5-6.2-8-9.5c-4.2-5.3-8.6-6.7-14.5-3.2c-1.7,1-3.5,1.7-5.4,2.3c-5.6,1.3-8.6,6.5-13.5,8.8
		C509.8,540,507,543,503.5,539.7z"/>
	<path class="st140" d="M554.6,539.5c1.8-1.8,3.8-2.9,6.4-1.4c0.8,1.1,1.7,2.2,2.5,3.3c0.9,4.6-3.3,5.2-5.7,7.1
		c-2.8-0.7-5.3-2-6.9-4.7C550.6,541.1,551.6,539.4,554.6,539.5z"/>
	<path class="st141" d="M443.4,216c-6.7,0.9-13.9,0.5-19.1,6.1c-1.1,1-2.3,1.1-3.1-0.1c-1.6-2.4,0.8-3.9,1.6-5.8
		c3.4-3.6,7.8-5.7,12.5-7.1C441.9,207,443.8,208.8,443.4,216z"/>
	<path class="st74" d="M422.7,216.2c1,1.8-4,5.2,1.5,5.9c-0.4,1.6-1.5,2.5-2.9,3.3C415.8,221.4,419,218.8,422.7,216.2z"/>
	<path class="st142" d="M425.8,247.7c0,1,0,2,0.1,2.9c-2.6,1.2-4.4-0.5-5.8-2c-3.4-3.5-6.3-2.9-9.2,0.6c-1.5-1-2.9-2-4.4-3.1
		c2.6-10.7,3.7-11.2,12.2-4.6C421.1,243.4,423.4,245.6,425.8,247.7z"/>
	<path class="st143" d="M536.7,466.4c0.4,5.1,8.6,7.9,4.8,13.8c-5.2,8.1-10.5,16.8-20.7,19.5c-7.6,2-13.4,7.2-20.9,9.5
		c-5.2,1.6-8,6.8-6.6,12.8c0.6,2.8,1.2,5.3-1.6,7.3c-2,0.2-4.2-0.3-5.9,1.4c-1.6,1.9-3.6,2-5.7,1c-3.1-5.6,1.2-9,3.9-12.8
		c5.8-7.1,10-15.3,15.5-22.6c1.4-1.9,0.9-4.3,0.7-6.5c-0.4-4.6,0.4-8.6,4.2-12.1c4.2-4,2.2-9.8,2.2-14.8c0-4.9-1.8-9.9,1.2-14.5
		C519.7,446.5,535.6,456.5,536.7,466.4z"/>
	<path class="st139" d="M480,530.8c1.9,0,3.9-0.1,5.8-0.1c4,0,7.9,0.1,11.9,0.1c-1.1,1.5-2.8,1.5-4.4,1.6c-4.6,0.9-9.3,1.3-14,0.6
		C479.1,532.1,479.3,531.4,480,530.8z"/>
	<path class="st144" d="M536.7,466.4c-6.4-10.8-17.3-14.5-28.4-17.8c-1.2,1-2.5,1.6-4.1,1.4c-0.7-0.2-1.4-0.5-2-1
		c-0.4-0.7-0.5-1.4-0.4-2.1c0.3-0.7,0.7-1.3,1.1-1.9c2.5-1.9,3.4-7.5,8.4-3.9c0.4,3.8,3,4.8,6.4,6c10.6,3.7,20.1,9.1,24.8,20.2
		c0.2,0.6-0.1,1.4-0.1,2.2C539.4,470,538.7,466.9,536.7,466.4z"/>
	<path class="st145" d="M511.3,441c-5.2-1.6-3.5,5.7-7.4,5.8c-0.4-3.5-3.3-4.2-5.9-5.2c-1.6-2.2,0.1-3,1.8-3.6c0.3,0,0.7,0,1,0.1
		c1-0.1,1.9-0.2,2.9-0.3c6.7,0.1,13.3,0.2,20,0.1c2.8,0,5.4,0.5,7.5,2.5c4,3.7,0.1,3.3-2,3.8C523.1,443.3,517.5,440.4,511.3,441z"/>
	<path class="st146" d="M474,424.7c2.9-2.5,1.7-7.6,5.9-9.3c2.9,8.7,11,11.8,17.7,16.4c2.2,1.6,4.9,2.7,3.2,6.3h-0.1
		c-3.2,1.3-6.4,2.4-9.9,2.1c-6.5-0.5-10.5-5.8-15.9-8.5C472.4,430.4,471.3,427.4,474,424.7z"/>
	<path class="st147" d="M474,424.7c-0.2,3.3,1,6.3,4.4,6.7c5,0.6,6.7,6.6,11.8,6.7c2.3,1.4,5.4,0.6,7.4,2.7c4,0,10-2.1,6.3,6
		c-0.5,0.1-1,0.2-1.5,0.2c-2.6,1-5.2-1.8-7.9,0.1c-3.3,1.4-1.9,4.2-1.9,6.5c0,16-2.9,31.2-10.7,45.3c-1.4,2.6-2.5,5.5-5.4,7
		c-1.6,0.6-3,0.2-4.5-0.3c-5.5-4.4-10.7-9.1-14.2-15.3c-0.2-1.1,0-2.2,0.8-3.1c6.8,2.2,10.6-1.3,13.1-7
		c4.6-10.2,10.6-19.9,10.4-31.6c-0.1-6.3-2.6-10.5-9.2-11.7c-4.6-2.9-11.5-1.6-14.2-7.8c0.6-0.2,1.1-0.3,1.7-0.5
		c0.5-0.6,1.2-1.3,1.8-1.1c4.9,0.9,8.1-1.9,11.4-4.7C473.7,423.4,473.8,424.1,474,424.7z"/>
	<path class="st148" d="M473.5,422.7c-0.7,10.2-7.7,6.3-13.2,5.8c-2.7-1.9-7.2-1.3-7.9-5.9c-0.2-0.7-0.2-1.4,0.1-2.1
		c1.6-2.3,2.7-5.5,6.6-3.9c5.7,7.5,6.2,7.5,11.8,0.5c1.5-0.5,2.9-1,4.4-1.5C474.7,417.9,474.1,420.3,473.5,422.7z"/>
	<path class="st149" d="M383.8,481.4c0-0.5,0.1-1,0.1-1.5c2.3-1.3,3.2-3.3,3.2-5.9v0.1c9.1-2.3,17.7-5.5,25.3-11.3
		c1.2-0.9,3.3-1.8,4-0.5c3.1,5.5,10,7.1,12.6,12.9c1,5.1,3.5,8.4,9.3,8.5c3.3,0.1,6,2,5.8,5.5c-0.3,5,2.6,6.4,6.5,7.1
		c1.5,0.7,2.7,1.8,3.4,3.3c0.5,9.5-2.3,14-11.6,16.1c-6.5,1.5-13.1,2.7-19.8,3.3c-2.5,0.2-4.9-0.3-7.3-1.3c-7.2-3-8.3-5.9-5.3-13.2
		c0.3-1.2,0.7-2.3,1.2-3.5c1.7-3.6,2.1-7-1.1-10.1c-3.5-3.3-7-2.7-10.7-0.3c-1.6,0.8-2.7,2.1-3.9,3.4c-5.6,5.7-12.9,4.1-15.9-3.2
		C377.5,486,382.7,484.7,383.8,481.4z"/>
	<path class="st150" d="M473.7,435c7.8,0.8,10.3,6.2,10.6,13c0.6,12.2-5.4,22.5-10.4,33c-0.6,1.3-1.7,2.5-2.5,3.7
		c-5.2,8.5-5.2,8.5-12.8,2.8c-4.9-0.6-6.5-3-4.3-7.6c2.9-6.6-2.9-7.8-6.5-10.1c-1.3-0.8-2.7,0.4-3.4,2c-2.8,7-4.1,7.1-9.7,0.6
		c-3.6-5.8-2.7-12-1.6-18.2c0.3-0.7,0.8-1.3,1.3-1.8c7-0.5,13.5,1.2,19.3,5.1c3.3,2.2,6.5,4.8,10.9,4c5.5-0.9,11.2-2.1,13.5-7.9
		c2.4-5.9,0.6-11.2-3.9-15.6C473.6,437.1,473.2,436.1,473.7,435z"/>
	<path class="st151" d="M473.7,435c0.5,0.5,0.9,1,1.4,1.5c0.2,0.5,0.5,1,0.3,1.4c-4,8.6-12.1,13.3-19.9,16.3
		c-6.6,2.5-14.9,0.4-20.6-5.1c-5.2-5-5.4-11.3-3-17.9c0.7-1,1.8-1.6,2.8-2.3c8-3.1,15.9,0,23.9,0.1C463.7,431,468.7,433,473.7,435z"
		/>
	<path class="st152" d="M401.8,423c4.5,4.1,4.1,7.9-0.5,11.7c-1.4,1.1-2.9,2.7-2.4,4.4c2,6.8-1.3,8.4-7.2,7.9
		c-2.1-0.2-3.6,1.3-5.4,2.2c-2.8,1.4-5.2,5.4-8.9,1.2c-3.6-4-7.6-7.7-4.3-13.7c5.6-9.9,13-16.8,25.5-15.3
		C399.8,422,400.8,422.5,401.8,423z"/>
	<path class="st153" d="M453.4,421.5c-0.3,0.4-0.6,0.8-1,1.1c-11.2-0.1-22.1,0.4-32.2,6.4c-5.5,3.3-5.8-3.3-8.3-5.7
		c4.6-5.2,9.1-10.4,13.7-15.6c2-1.8,4.2-1.3,6.2-0.3c4.9,2.5,10.4,3,15.6,4.2C455.1,413.5,455.3,413.7,453.4,421.5z"/>
	<path class="st154" d="M434.7,428.9c-0.5,0.5-1,1-1.5,1.5c-4.1,5.3-3.3,10.9-0.8,16.5c0.9,1.9,3.2,3.3,2.4,5.9l-0.4,0.3
		c-2.5,3.1-3.4,7.1-5.6,10.3c-3.7,5.8-4.2-0.5-6-1.6c-2.3-4-1.8-8-0.3-12.1c0.2-0.5,0.4-0.9,0.5-1.4c0.6-2.2,4.5-4.4,1.8-6.4
		c-2.6-1.9-3.7,2.2-5.5,3.6c-0.3,0.3-0.9,0.2-1.4,0.3C415.6,437.4,422.9,430,434.7,428.9z"/>
	<path class="st155" d="M454.4,479.9c0.5,3.1,1.9,5.6,4.3,7.6c0.1,0.9,0.2,1.8,0.2,2.7c1,3.1,0.3,5.8-2,8.1c-0.9,0.7-1.9,1.1-3,1.1
		c-0.4,0-0.7-0.1-1.1-0.1c-1.1-0.5-2.1-1.1-3.2-1.6c-7.6-2.1-7.8-2.5-6.1-14.9C446,477.5,450,477.9,454.4,479.9z"/>
	<path class="st156" d="M443.5,482.8c0.5,5.6-2.4,12.6,6.1,14.9c-5.1,0.2-9.3-0.4-7.7-7.3c0.8-3.3-1.1-4.4-4.2-4.5
		c-6.9-0.2-10-3.7-8.8-10.6C431.9,481.4,438.3,480.9,443.5,482.8z"/>
	<path class="st157" d="M428.9,463.5c-0.4-4.6-0.6-9.2,5.6-10.3c1.5,6.4-3.1,12.9,0.3,19.2c-3-1.3-3.1-3.9-3.1-6.6
		C431.8,463.7,431.3,462.4,428.9,463.5z"/>
	<path class="st12" d="M407.7,402c2,0.4,3.5,1.4,1.7,3.4c-2.3,2.5-4.9,4.8-7.4,7.1c-1.1-0.5-2.2-1.1-3.3-1.6
		C401.1,407.3,404.3,404.5,407.7,402z"/>
	<path class="st156" d="M383.8,479.9c1,3.4-4.8,5.8-2.9,9.8c3.4,7,8.6,7.8,13.6,1.7c1.2-1.4,2.4-2.4,4.2-2.5c1.8,4.3-3.3,8.8,1,13.2
		c3.9,4,8.6-0.9,12.4,1.7c0.6,3.1-5.2,5.7-1.5,8.5c3.5,2.7,7.4,5.6,12.8,4.2c5.2-1.3,10.7-1.4,16-2.3c8.6-1.4,11.6-4.9,13.2-15
		c0-0.3,0.1-0.6,0.4-0.8c4.4,1.5,4.3,5,3.4,8.5c-1.3,5.6-1.3,11.3-1.1,16.9c0.1,2.2,0.2,4.4,1.3,6.5c3.8,7.3,3.7,7.4-4.6,8.8
		c-1.9,0.6-3.9,0.7-5.9,0.7c-3.6,0-5-1.7-3.9-5.3c0.4-1.4,1-2.9,1.1-4.3c0.2-3.3-1.4-5.7-4.3-7.3c-2.8-1.5-5.8-1.7-8.3,0.5
		c-2.4,2.1-3.5,4.5-2.6,7.9c2.6,9.8,2.4,9.9-7.8,9.9c-2,0-4,0-6,0c-7.2-1.7-14.7-1.5-21.5-4.6c-4.1-2-8.5-3.3-12-6.3
		c0.2-2.2,1.6-3.6,3.1-4.9c3.9-3.5,3.2-7.3,1.2-11.5c-2.1-4.5-5-7.6-10.3-6.7c-2.6,0.4-5.1,0.7-4.3-2.6c1.2-5.2,0.2-11.1,4.2-15.5
		C377.7,486.5,380.8,482.5,383.8,479.9z"/>
	<path class="st158" d="M453.4,421.5c0.9-5.6-1.4-7.3-7.1-8c-7-0.8-13.7-3.7-20.6-5.8c-0.9-1.1-1.9-2.1-2.8-3.2c0-1.4,0-2.9,0-4.3
		c6.9,4.2,13.8,8.2,22.3,7.7c4.1-0.9,7.6,1.2,11.3,2.2c3.2,0.9,4.6,3.5,2.2,6.8C455.5,416.8,456.2,421.2,453.4,421.5z"/>
	<path class="st159" d="M451.3,538.4c2.5-0.2,4.9-0.6,7.3-3.6c-6.5-1.1-6.2-5.7-6.1-10.3c0.1-6.7-0.5-13.5,2.1-20
		c1-2.6-0.1-4.3-1.5-6.1c0.9-0.3,1.9-0.5,2.8-0.8c4.7-2.6,7,1.2,9.9,3.6c1.8,1.5,2.9,5.1,6.4,2.5c1.1,0.6,2.1,1.1,3.2,1.7
		c2.1,4.3-1.9,6.4-3.2,9.5c-2.7,3.7-5.6,7.2-7.2,11.6c2.3,0.9,4.2-1.9,6.4-0.3c2,3.1,6.1,3.5,8.4,6.2c4.5,0,9-0.1,13.5-0.1
		c-13.9,2.6-27.9,5.1-41.8,7.7c-0.2-0.3-0.4-0.5-0.7-0.8C451,539,451.2,538.7,451.3,538.4z"/>
	<path class="st160" d="M503.5,539.7c6.7-0.2,10.8-5.2,15.6-8.6c2.2-1.6,4-3.6,7-3.1c1,3.6,1.6,7.2,2,10.9c0.8,6.2-2.7,12-7.8,13.9
		c-4.5,1.7-11.4-1.3-14.6-6.4c-0.9-1.4-0.4-4.4-3.6-3.5c-1.5,0.4-3,0.9-4.4,1.3C498.3,541,501.1,540.5,503.5,539.7z"/>
	<path class="st161" d="M382.8,539.4c7.3-0.7,11.3,2.8,16,3.9c8.3,1.9,16.6,2.6,25,2.6c1.5,0,4.1-0.7,3.9,2
		c-0.2,2.4-2.4,1.4-4.1,1.6c-10.7,1.4-21.1,0.6-31.2-3.5C389.2,544.7,386.6,542.8,382.8,539.4z"/>
	<path class="st159" d="M392.9,536.7c7.4,1.1,14.9,2.1,22.3,3.2c5.7,1,11.2,1.4,16.7-1.2c6.3-2.9,12.6,1.1,19,0.8l0.5,0.5
		c-18.4,5-36.7,3.2-54.9-0.9C395.2,538.9,394.1,537.6,392.9,536.7z"/>
	<path class="st98" d="M491.6,545.8c-4.6,4.4-10,6.5-16.3,5.9C480.4,548.9,486.1,547.4,491.6,545.8z"/>
	<path class="st162" d="M502.2,542.8c2.5-2.3,3.4-0.8,4.8,1.5c3,4.8,7.3,8.6,13.2,6.2c6.1-2.5,7.8-8.8,4.3-15.7
		c-1.7-3.3-0.6-4.9,1.6-6.9c3.8-1.8,7.5-3.7,11.3-5.4c1.7-0.8,3.6-1,4.8,0.6c4.1,5.5,10.5,9.3,12.4,16.5c-1.3,1.3-2.9,2.5-2.8,4.6
		c-0.2,3.6-2.8,5.7-5.4,7.5c-8.7,6-17.9,11.3-28.3,14c-2.1,0-4.1-0.1-5.3-2.2c0.5-3.8-2.4-5.8-4.4-8.3
		C505.3,551.5,504.3,546.9,502.2,542.8z"/>
	<path class="st99" d="M512.7,563.5c2,0.1,4,0.1,6,0.2c0.9,2.5-2.6,5.8,1.4,7.8c0,2.1-1.2,3.3-2.9,4.3c-6.5-0.5-12.8,0.7-19,2.5
		c-15.8,4.6-32.2,4.8-48.4,6.2c0.1-4.6,5.2-2.3,6.8-4.8c-0.7-1-1.9-1.4-2.4-2.6c-4.9-2.9-10.3-0.6-15.4-1.6
		c7.3-2.4,14.8-0.5,22.1-1.4c6.8-0.8,13.8-0.1,20.2-3.3c1-1.2,1.9-2.5,3.5-2.9c5.2-0.9,10.5-1.5,15.7-2.5c1.5,0.2,3,0.6,4.5,0.8
		C508,566.7,510.4,565.2,512.7,563.5z"/>
	<path class="st163" d="M404.9,569.6c10.5-8,12.2-7.6,21,4.8C418.2,575.9,411,575.5,404.9,569.6z"/>
	<path class="st162" d="M504.9,566.3c-1.4,0.1-2.9,0.3-4.3,0.4c-1-0.1-1.8-0.6-2.6-1.2c-6.4-4.8-7.1-4.6-11.9,1.9
		c-0.6,0.8-1.3,1.5-1.9,2.2c-1,0.4-2,0.9-3,1.3c-0.8-6.3,2.2-11,7.7-12.7c6-1.9,11.7-0.4,14.4,6.6
		C503.6,565.4,504.4,565.8,504.9,566.3z"/>
	<path class="st99" d="M404.9,569.6c6.5,3.8,13.5,5.4,21,4.8c3,0.6,6.3-0.6,9.2,1.2c-10.6,0.4-21.1,0.9-31.3-3
		c-1.9-0.7-3.8-1.2-4.9-3C400.9,569.6,402.9,569.6,404.9,569.6z"/>
	<path class="st164" d="M454.3,577.2c2.9,0.2,6-0.2,8.2,2.8c-3.1,4.6-8.9,1.8-12.6,4.5c-6.6,0.2-13.3,0.7-19.7-1.5
		c-0.8-0.4-1.7-1-2.6-1.3c-1.6-0.4-4-0.3-3.5-2.7c0.4-2,2.7-1.8,4.4-1.9C437.1,577.3,445.7,577.2,454.3,577.2z"/>
	<path class="st165" d="M458.7,417c-0.1-2.5-0.2-6.1-3.3-5.2c-4.9,1.5-7.1-2-10.2-3.8c1-2,3.1-3.4,3.1-6c5.8,1.7,11.6,2.9,17.7,3.3
		c7.7,0.5,3.7,7.5,4.8,11.7c-0.9,3,1.8,8.2-4.4,8.1C461.5,425,457.8,423,458.7,417z"/>
	<path class="st166" d="M410.8,249.2c0.3-2.3-0.7-5.3,2-6.5c2.9-1.3,4.9,1.2,6.9,2.8c2.1,1.7,4.1,3.4,6.1,5.1l0,0
		c1.3,5.3-1.8,4.1-4.8,3.2c-2.3,0-4.7,0-7,0c-1.1-0.6-2.2-1.2-3.3-1.8C410.8,251.2,410.8,250.2,410.8,249.2z"/>
	<path class="st167" d="M437.9,361.4c-3.5-4.6-9.2-7.7-10-14.3c-0.1-0.9-1.7-1.9-2.7-2.3c-11.3-4.4-18.4-13.1-23.5-23.6
		c0.1-2-1-3-2.8-3.3c0.5-3.5,2.1-5.9,6.1-5.7c0.1,3.2-1,6.8,2.8,8.9c0,0.5,0.1,0.9,0.2,1.4c3.3,2.7,6.2,5.7,9.2,8.7
		c5.5,5.4,11.8,7.2,19,3.6c2.6-1.3,4.7-1.3,6.5,1.3c4.8,6.6,11.5,8.2,19.1,7.3c2.7-0.3,5.5-0.7,7.7,1.5c0.3,0.7,0.2,1.5-0.1,2.2
		c-1.3,1.7-3.1,3-5,2.8C453.6,349.2,447.1,358.3,437.9,361.4z"/>
	<path class="st168" d="M405,312.2c-1.6,2.4-3.4,4.6-6.1,5.7c-1.8,0.6-3.6,0.6-4.7-1c-1-1.6,0.5-2.7,1.5-3.7c2-2.1,3.7-4.8,6.8-5.4
		c1.6-0.3,3.6-2,4.8-0.3C408.6,309.5,406.5,310.9,405,312.2z"/>
	<path class="st169" d="M482.8,303.2c2.4-2.4,1-5,0.6-7.7c-1.4-9.1-2.1-18.2,2.3-26.8c2.1,1.5,2.5,3.9,2,6
		c-2.4,8.8-0.5,17.6-0.2,27.3c0.1-2.1-0.2-3.2,0.2-4.4c2.1-3.2,1.9-6.9,2-10.5c0.2-3.6,0.1-7.5,5.1-8.3c1,0.8,1.4,1.8,1.6,3
		c-0.1,5.1-1.1,10.2,0.2,15.2c-0.2,3.4,2.1,5.4,4.4,7.4c0.2,0.7,0.1,1.4-0.3,2.1c-4,3.5-9.5,0.5-13.7,3.1c-1.7,0.7-3.4,1.3-5.1,1.7
		c-2.9-0.1-5,2.6-7.8,2.6c-3.4,0.1-5.9-2.1-8.9-3.3c-2.1-0.8-4.3-3-6.6-0.4c-0.9,1-1.7,2.1-3.1,2.5c-1.9,0-3.2-1.1-4.4-2.4
		c-4.8-3.6-9.8-5.5-15.6-1.9c-1.5,0.9-3.4,2.3-5.5,0.7c-4.5-2.7-9-5.5-11.8-10.2c2.7,0.2,4.6-1.1,5.9-3.3c2.8,6.5,3.8,7.1,7.7,4.7
		c12.5-5.9,24.5-4.6,35.8,3.1c0.5,0.5,1,0.9,1.5,1.4C474,306.8,478.3,304.1,482.8,303.2z"/>
	<path class="st170" d="M409.3,322.5c0-0.7,0-1.5,0.1-2.2c1-5.5,2.8-12,8.1-12.6c4.5-0.5,8.6,4.2,10.6,9.8c1.2,3.5,4.6,6.3,8.3,8
		c2-0.2,3.2,0.8,3.7,2.7c-2.7,7.1-10.2,10-19,6.5C415.7,332.4,411.1,328.6,409.3,322.5z"/>
	<path class="st171" d="M409.3,322.5c5.1,8.6,12.6,12.1,22.6,10.7c3.9-0.5,6.7-1.8,7.2-6c2-1.3,3.6-0.4,5.1,1
		c2.4,6.5,7.5,8.6,14,8.7c8.1,0.1,15.6-1.8,22.3-6.5c1.8-1.3,3.6-2.6,6-2.8c0.8,0,1.5,0.2,2.1,0.6c0.5,0.6,0.8,1.3,0.9,2
		c-3.4,8.4-13.2,15.6-20.4,15c-3.7,0.4-7.4,1.4-11,1.1c-7.9-0.5-15.2-2.5-18.5-11c-10.8,9.7-25.8,0-31.7-12.8
		C408.4,322.5,408.9,322.5,409.3,322.5z"/>
	<path class="st172" d="M443.7,328.5c-1.5-0.4-3-0.8-4.5-1.2c-0.9-0.6-1.8-1.2-2.6-1.8c-0.6-3.4-3.6-5.1-5.5-7.5
		c-2.3-2.8-4.1-5.6-1.1-9c6.2-4.7,12.6-7,20.1-2.9c1.4,0.8,2.5,1.4,2.7,3c-1.3,1.7-3.2,1.9-5.1,1.9c-1.5,0-3-0.3-4.4,0
		c-2.2,0.6-5.9,0.3-5.2,3.7c0.6,3.2,3.1,5.9,7,5.1c3-0.5,5.5-2.3,8.1-3.6c2.2-0.8,2.6-2.6,2.6-4.6c0.1-1.3,0.7-2.3,1.9-2.8
		c8.1,3.4,9.1,9.7,2.3,14.8c-2,1.5-4.2,2.5-6.6,3.3C450.2,327.7,447.2,329.6,443.7,328.5z"/>
	<path class="st107" d="M421,253.9c2.2-0.2,4.4-0.4,4.8-3.2c9.3,11.3,7.3,23.6,3,36c-0.1-1.6-0.1-3.1-0.2-4.7
		c-2.6-4.1-4.3-8.4-4.6-13.3c0.6-0.6,1.3-0.7,2-0.2C429.9,261.7,423.5,258.4,421,253.9z"/>
	<path class="st109" d="M414,267.5c-0.5,1.9,0.8,2.6,2.1,3.4c1,0.7,0.9,1.7,0.1,2.5c-6.3,5.6-6.3,5.6-6.9,11.7
		c-2.9-7.1-1.3-13.7,4.6-19.3c0.5,0.3,0.7,0.7,0.6,1.1C414.4,267.3,414.2,267.5,414,267.5z"/>
	<path class="st173" d="M414,267.5c0-0.5-0.1-1.1-0.1-1.6c4.7-2.3,9.3-4.5,12,2.6c-0.6,0.2-1.3,0.3-1.9,0.5
		c-1.1,0.1-1.6-0.4-1.6-1.5C419.6,263.2,416.8,267.1,414,267.5z"/>
	<path class="st174" d="M422.4,267.4c0.5,0.5,1.1,1,1.6,1.5c3.9,3.5,5.2,7.9,4.5,13c-1.7,3.6-3.3,7.2-5.2,10.6
		c-1.1,1.9-2.7,4-5.4,2.7c-4.6-2.3-5.2-7-5.8-11.3c-0.4-3.2-1.2-7.1,4.2-7.8c2.9-0.4,4.2-2.7,3-5.6
		C417.9,266.9,420.7,267.8,422.4,267.4z"/>
	<path class="st175" d="M412.4,682c5.3,1.5,10.7,2.1,16.3,1.8c5.4,1.2,10.9,0.3,16.3,0.6c7.2,0.4,9.3,3.9,6,10.3
		c-5,9.7-14.4,12.6-23.9,7.2c-1.9-1.1-4-2-5.9-3.2c-1,0.5-1.9,0.9-2.9,1.4c-1.2-1.5-2.7-0.4-4-0.5c-4.4-0.3-5.4-2.4-3-6.3
		c1.1-1.9,5.1-3.4,2.8-5.7c-2.4-2.5-4.6,1.4-6.9,2.4c-1,0.4-1.7,1.7-2.5,2.6c-0.5,0.5-1,1-1.5,1.5c-4.5,0-4.5-0.2-1.5-6
		c0.5-0.5,1.1-0.9,1.6-1.4C405.7,683.9,407.1,679.2,412.4,682z"/>
	<path class="st176" d="M421.2,698.8c2.1-0.2,3.8,0.5,5.6,1.5c9.8,5.5,18.2,2.6,22.7-7.5c1.5-3.5,1.5-5.4-3.2-6.7
		c-5.9-1.6-12.1,0.7-17.6-2.2c9,0.3,17.8-0.7,26.6-2.3c3.5-0.7,5.1,1.3,6.7,3.4c1.8,2.4,1.8,5.1,0.3,7.7
		c-4.3,7.3-22.2,14.3-30.6,12.4c-2.8-0.6-5-2-7.4-3.3c-0.9-0.5-1.9-1.1-2.8-1.6C421.3,699.6,421.2,699.2,421.2,698.8z"/>
	<path class="st176" d="M412.4,682c-4.7-1.7-5.5,4-9,4.6c0.4-5.8,3.9-7,8.9-5.8C412.3,681.3,412.3,681.7,412.4,682z"/>
	<path class="st113" d="M401.7,688.1c0.9,1.9-3.3,5,1.5,6c-0.4,1.6-1.3,2.8-3,2.5c-1.6-0.3-1.5-1.8-1.5-2.9
		C398.7,691.2,399.6,689.3,401.7,688.1z"/>
	<path class="st177" d="M485.7,643.2c-8.3-3.4-16.9-1.6-25.4-1.6c-4.9-9.9-1.9-20.2-0.9-30.2c0.7-6.7,6.1-6.7,11.3-4.1
		c0,1.5,0,3,0.1,4.5c0.2,3,1.8,4.7,4.8,4.3c2.9-0.4,2.2-2.6,1.7-4.6c-1-4.8,2.9-6.2,6-6.6c3.2-0.4,6.5,1.5,6.7,5.5
		c0.4,8.4,2.3,16.6,1.7,25.1C491.5,639.5,490.2,642.5,485.7,643.2z"/>
	<path class="st178" d="M520.1,571.5c-2.1-1-5.4,2.1-6.5-0.9c-1.4-4,4.5-3.7,5.1-6.9c11.8-5.1,23.5-10.5,33-19.5
		c2.9,0.2,5.5,0.9,6,4.4C547.6,560.1,534.3,566.5,520.1,571.5z"/>
	<path class="st179" d="M488.6,328.5c-0.5,0-0.9,0-1.4,0c-1-0.7-1.7-1.6-2.1-2.7c-2.4-10.7-0.3-13.1,10.3-12.1
		c4.1,0.4,8.4,1.1,12.8-2.4c-4.3-1.7-8.3-0.9-12-1.2c-3.6-0.3-7.6,0.8-10.4-2.6c4.8-2.6,10.4-0.1,15.3-2.6
		c8.2-5.1,16.2-1.6,23.9,1.1c3.4,1.2,9,1.5,8.7,7.5c-2.6,0.5-1.9,1.6-1.1,3.6c2.6,7,2.7,13.8-3.2,19.5c-4.8,4.6-15.6,6.7-21.4,3.2
		c-3.3-1.9-7.3-1.3-10.2-3.9c1.5-2.9,1.3-5.5-1.3-7.7C493.7,324.3,491.1,324.8,488.6,328.5z"/>
	<path class="st180" d="M437.9,361.4c-0.8-4.3,0.6-6.6,5.4-5.7c1.7,0.3,4.3,0.3,4.7-1.2c2.4-8.3,9.1-5.9,14.7-6.3
		c2.2-0.2,4.3-1,6.4-1.5c4.3-1.4,6.5-0.6,4.3,4.4c-0.9,1.1-1.7,2.2-2.6,3.3c-1.9,3.2-4.7,4.8-8.4,5.3c-5,0.7-9,2.4-8.9,8.8
		c0.1,3.2-2.2,3.4-4.7,2.2c-1.8-0.9-3.5-1.9-5.3-2.6C440.7,366.5,439.4,363.9,437.9,361.4z"/>
	<path class="st181" d="M473.6,351c0.5-3.4-1.4-4.4-4.3-4.4c0-0.5,0-0.9,0-1.4c7.8-3.3,14-8.7,19.5-15c1.3-5.7,4.2-7.1,8.9-3.1
		c6.2,5.5,6.2,6.7,0,9c-3.6-2.8-6.7-1.9-9.7,1.2C483.3,342,478.4,346.4,473.6,351z"/>
	<path class="st182" d="M443.6,367.8c2.6,0.6,5.2,1.3,7.8,1.9c-1.3-7.6,2.4-12.3,10.6-12.6c3.4-0.1,6.2-1.3,9-2.8
		c-1.1,6.2-4.8,10.9-9.4,14.8C455.9,373.9,450.4,373.3,443.6,367.8z"/>
	<path class="st183" d="M458.6,377.8c2-1.3,3.8-3.8,6.2-0.8c1.8,2.3,1.2,4.6-0.1,7c-2.7,4.6-6.8,6-11.9,6.2
		c-6.3,0.2-11-2.2-14.6-7.2c-0.7-1-0.8-2.3-1.4-3.4c-1.1-2.1-4.2-4.5-2.3-6.4c2.5-2.4,5.3,0.4,7.7,1.9c0.5,5.8,5.2,6.8,9.4,7.5
		C454.9,383.3,458,381.9,458.6,377.8z"/>
	<path class="st169" d="M533.6,313.6c-9.4-8.4-21.1-8.4-32.6-8.6c-0.2-0.3-0.4-0.5-0.6-0.8c1.6-5.3,8.4-1.2,10.4-5.8
		c0.4-0.6,0.8-1.1,1.4-1.5c0.6-0.3,1.3-0.3,1.9,0.1c5.3,4.6,11.7,6.8,18.1,9.1c3.5,3,7,6,10.5,9c0.9,2.9,0.5,4.5-2.9,2.8
		C538.7,315,535.4,315.4,533.6,313.6z"/>
	<path class="st184" d="M458.6,377.8c1.7,0.5,3.6,1.1,2,3.5c-2.5,3.7-6.2,5.1-10.3,3.9c-4.8-1.3-9.5-3.5-11.8-8.1
		c-1.1-2.2,2.2-1.6,3.6-2C447.2,379,452.9,378.2,458.6,377.8z"/>
	<path class="st185" d="M539.8,317.9c2,0.1,2.8-1.1,2.9-2.8c2.4,0.3,4.1,1.3,4.2,4c0,1.3-0.7,2.5-1.9,2.8
		C542,322.4,540.9,320,539.8,317.9z"/>
	<path class="st186" d="M467.6,303.3c-5.2,1.2-9.2-2.5-14-3.4c-7.4-1.3-14.6,0.6-21.8,0.3c11.2-13.1,17.6-28.1,19.5-45.3
		c1.3-11.1,5.8-13.4,16.2-9.9c1.1,0.4,3,1.4,2.9,2c-0.5,6.5,6,8.3,10.8,14.6c-6.4-3.3-8-2-7.6,2.3c1.1,10.8-2.8,20.4-8.7,29
		C461.5,298.1,468.8,299.4,467.6,303.3z"/>
	<path class="st187" d="M514,297c-0.4,0.1-0.9,0.2-1.4,0.1c-0.2-0.2-0.5-0.3-0.5-0.5c-0.2-7.5-2.5-14.6-5.1-21.6
		c2-4.8,0.9-9.1-3.8-11.2c-5.3-2.4-7.5,2.2-9.5,5.8c-3.1,5.6-3.2,11.8-3.6,18c-0.2,3.1,1,6.5-1.2,9.3c-0.1,0.5,0,1-0.2,1.5
		c-1.2,2.2,4.1,4.9,0.4,6c-4.2,1.2-2.9-3.2-3.6-5.6c-2.9-10.1-0.6-20.1,0.2-30.1c1.2-5.1,6.6-7.9,7.3-13.3c0.2-0.3,0.4-0.5,0.6-0.8
		c3.7-0.9,7.5,2.2,11.2-0.2c0.7-0.1,1.3,0,2,0.2c2.7,2.6,5.8,4.7,7.3,8.3c0.4,0.4,0.7,0.8,1.1,1.2c2.3,8.3,6.3,16.5,1.5,25.2
		C515,291.7,516.3,295,514,297z"/>
	<path class="st188" d="M506.8,255c-0.5,0-1,0.1-1.6,0.1c-1.5-0.2-2.5-1.2-3.3-2.3c-4.1-7.2-8.8-2.2-13.3-0.6
		c-4.9-2.8-2.1-6.4-0.8-9.6c1.5-3.5,5-2.5,7.8-2.3c8.1,0.7,8.5,8,11.3,13.3c0.3,0.3,0.4,0.6,0.3,0.9
		C507.1,254.9,506.9,255,506.8,255z"/>
	<path class="st189" d="M488.6,252.2c6.2-9.1,10.4-9.1,14.9,0.1c-3,2.1-6.9,0.6-9.9,2.5c-0.2,0.2-0.4,0.4-0.6,0.6
		C491.5,254.3,490.1,253.3,488.6,252.2z"/>
	<path class="st54" d="M516.6,289.5c1.9-8.5,0.2-16.9-1.5-25.2C521.5,275.3,522,283.3,516.6,289.5z"/>
	<path class="st131" d="M491.6,217.6c0.5,3,2.7,4.1,5.4,5.1c3.5,1.3,7.8,1.4,9.8,5.4c-4-1.3-8.1-2.4-12-3.9
		C491.9,223.1,489,221.6,491.6,217.6z"/>
	<path class="st186" d="M482.8,303.2c-4.3,2.4-8.7,4.5-13.6,1.5C473.7,304.2,478.3,303.7,482.8,303.2z"/>
	<path class="st54" d="M506.8,255c0-0.4,0.1-0.9,0.1-1.3c3,2.6,6.9,4.5,7.1,9.3C511.6,260.4,509.2,257.7,506.8,255z"/>
	<path class="st190" d="M530.9,112.5c-0.3,10.4,3.6,20.4,2.9,31c-0.5,7.6-0.3,15.3-3.1,22.7c0-8.9,0.1-17.8,0-26.8
		c0-2.9,0.9-6-1.4-8.6c-3.9-1.3-3.7-4.9-4.4-7.9c-2.9-13.3-6.5-26.4-13.2-38.4c-4.4-8.3-9.8-15.7-17.5-21.3c-2.6-2.7-6.6-4.2-7-8.6
		c-1-2.7,0.4-3.4,2.8-3.2C513.3,65.2,525.3,86.7,530.9,112.5z"/>
	<path class="st191" d="M487.1,54.7c2.8,2.1,5.8,4,7.7,7c7.4,5.9,11.8,14.2,18,21.2c9,12.4,11.6,27.1,14.9,41.5
		c0.5,2.2,1.1,4.3,1.6,6.5c-0.1,11.1,1,22.2-1.5,33.1c-0.4,1.7-0.3,1.7-2.9,2.7c-2.6-21.6-10.4-41-22.5-59
		c-10.1-15-22.2-28.7-29.3-45.6c-0.4-0.9-1.3-1.7-1.5-2.6c-0.6-3.4-2.1-7.5,0.5-10c3.1-2.9,6.4,0,9.4,1.8
		C483.2,52.5,485.1,53.6,487.1,54.7z"/>
	<path class="st192" d="M503.8,448.5c1.5,0,3,0.1,4.5,0.1c-0.9,8.1,1.8,16.1,1.1,24.3c-0.3,3.3-0.6,5.9-3.8,7.1
		c-2.9,1.1-3.8,3.6-3.1,6c2,7.1-0.9,12.4-5.2,17.5c-4.4,5.2-6.5,12-11.7,16.7c-1.3-1.2-1.6-2.8-1.5-4.4c0.7-5,3.2-9.1,6.6-12.7
		c7.6-12.4,10.1-26.2,10.5-40.4C501.2,457.9,500,452.7,503.8,448.5z"/>
	<path class="st193" d="M527.8,468.6c0.2,4-1.2,8.2-7.6,8.3c-7.2,0.1-8.4-5.5-8.8-10.7c-0.4-4.9,1.7-10.3,7.5-9.8
		C524.4,456.8,527.9,461.2,527.8,468.6z"/>
	<path class="st194" d="M485.8,515.9c-0.1,1.5-0.2,2.9-0.3,4.4c-3,2.9-4.4,6.6-5.5,10.5c-0.1,0.6-0.2,1.1-0.2,1.7
		c-4.1-0.4-9.6,1.4-9.4-5.9c-0.8-0.9-0.9-2-0.7-3.2c1.5-2.9,2.7-6.2,6.7-6.5C479.9,520.8,482.4,514.2,485.8,515.9z"/>
	<path class="st195" d="M503.8,448.5c0.9,18-1,35.5-8.7,52.1c-0.8,1.8-1.3,3.8-3.5,4.5c-3.5-5.6,1.4-9.8,2.9-14.3
		c1.5-4.7,1.9-8.5-2.5-11.5c-1.6-5.1,0.1-10.2,0.5-15.2c0.4-5.1,0.3-10.2,0.7-15.3c0.9-2.4,2.5-2.5,4.4-1.3c1.4,0.9,2.8,1.6,4.6,1
		C502.7,448.4,503.2,448.5,503.8,448.5z"/>
	<path class="st196" d="M502.2,448.4c-0.2,1.5-0.3,3.4-2,3.4c-3,0-3.4-3-4.8-4.9c-1-0.5-1-1,0-1.5c4-6.6,4.9,0.2,7.1,1.6
		C502.3,447.5,502.3,447.9,502.2,448.4z"/>
	<path class="st197" d="M497.6,440.8c-2.9,0.2-5.3-0.7-7.4-2.7c3.5,0,7,0,10.5,0C499.6,439,498.6,439.9,497.6,440.8z"/>
	<path class="st197" d="M495.4,445.4c0,0.5,0,1,0,1.5c0.6,11-0.6,21.9-2.3,32.8c-0.8,14.5-5.9,27.2-16.5,37.5c-2,2.1-4,4.2-6,6.3
		c-6.1-3.1-0.1-6.3-0.1-9.4c1.6-2.9,3.2-5.8,4.8-8.6c11.1-16.7,15.1-35.4,15-55.2C490.4,447.7,488.7,441.8,495.4,445.4z"/>
	<path class="st198" d="M472.3,503.8c-1,4.6-2.9,5.7-6.1,1.5c-2.7-3.5-5-7.5-10.2-7.6c1-2.5,2-5,2.9-7.5
		C463.4,494.8,467.8,499.3,472.3,503.8z"/>
	<path class="st199" d="M412.3,503.8c-4.1,1-7.6,5.1-12.5,1.7c-5.7-4.1-6.1-8.3-1-16.7c3.9-4.6,7.9-3.8,12.2-0.5
		C417.1,493.1,415.8,498.4,412.3,503.8z"/>
	<path class="st200" d="M434.9,452.8c-7.9-4.2-5.7-12.2-6.5-18.8c-0.2-2.2,2.4-3.4,4.8-3.6c1,3.9-1.7,7.7-0.2,11.7
		c4.4,11.3,19.6,15,27.9,6c4.3-4.6,11.8-4.9,14.1-11.6c6.9,3.4,6.8,9.5,6.2,15.9c-0.6,6.4-5.6,8.1-10.4,10.1
		c-7.2,3.1-13.3,1.8-19-3.7C447.3,454.4,440.3,455.7,434.9,452.8z"/>
	<path class="st201" d="M451,539.5c-9.3,0.6-18.6,1.3-27.9,1.7c-2.6,0.1-5.5,0.7-7.8-1.3c2,0,4-0.1,6-0.1c8.1-0.1,8.1-0.1,4.2-7.3
		c-2.6-4.8,0.2-8.1,3.2-11.2c3.8-3.9,8.3-3.2,12.4-0.8s6.7,6.1,5.1,11.2c-0.6,1.9-1.7,3.5-2.6,5.4c2.5,2,5.4,0.5,7.9,1.2
		C451.3,538.8,451.2,539.2,451,539.5z"/>
	<path class="st202" d="M470.6,514.1c1,3.1-2.9,6.3,0.1,9.4c-0.1,1-0.2,2-0.3,3c-1.2,1.2-2.3,2.5-3.7,3.6c-1.5,1.1-3.3,1-4.7-0.2
		c-1.5-1.3-0.8-2.9,0.1-4C465,522.1,466.8,517.4,470.6,514.1z"/>
	<path class="st203" d="M484.2,569.6c-0.5-5.2,1.8-8.9,6.7-10.1c5.7-1.4,7.8,3,9.7,7.2C495.6,570,489.9,569.9,484.2,569.6z"/>
	<path class="st204" d="M441.5,354c-4.4-0.7-8.9-1.3-9.5-6.6c-0.3-2.7,2-4.3,4.5-3.4c4.2,1.6,10.2,1.7,11.2,6.9
		C448.3,354.6,443.9,353.6,441.5,354z"/>
	<path class="st205" d="M452.7,325.4c1.1-0.5,2.3-0.9,3.4-1.4c8.5-4.3,9-8.2,1.7-14.9c-2-3.7,1-2.8,2.7-2.6c5,0.6,8.8,4,13.2,5.9
		c1.3,0.7,2.7,1.1,3.8,2.1c4.4,4.1,7.5,8.6,6,15c-5.4,6.6-13.5,6.7-20.9,8c-3.4,0.6-7-0.2-9.8-2.6
		C449.2,331.8,447.7,328.6,452.7,325.4z"/>
	<path class="st206" d="M508.3,274.5c0.1,0.7,0,1.7,0.4,2.1c7,5.8,6.1,13,4,20.5l0,0c-1.3,2-0.4,6.3-4.7,5.1
		c-4.4-1.2-10.8,4.2-13.3-3.7c-2.8-5.4-2.5-10.9,0-16.3c2-1.9,5.9-2.5,4.2-7c-0.6-1.6,1.1-3,2.9-3.7
		C504.6,271.4,507.5,270.6,508.3,274.5z"/>
	<path class="st207" d="M482.7,328.6c-1.6-5-3-10.2-7.4-13.6c2.3-1.6,3.2-4.6,6-5.8c1.5-0.6,3-1.1,4.4-1.7c7.2,0,14.5,0,21.7,0.1
		c2.2,0,4.8-0.2,5,3c0.2,2.7-1.7,3.8-4,4.7c-4.4,1.8-8.9,1.6-13.3,1.2c-9.6-0.8-10.2-0.3-8,9.1C485.9,326.8,485.6,329.6,482.7,328.6
		z"/>
	<path class="st208" d="M508.3,274.5c-2.1-2.5-4.9-0.8-7.3-1.1c-3.2,0.6-3,5.1-6.3,5.6c-4,4.2-3.1,9.5-3.4,14.6
		c-0.1,1.2,2,4.7-2.2,3.2c-0.4-10.6-2.4-21.5,3.8-31.2c2.3-3.5,5-7.2,10.2-5.5c5.7,1.8,7.9,6.3,8.2,11.9
		C511.2,274.2,509.9,274.6,508.3,274.5z"/>
	<path class="st209" d="M494.7,279c1.3-2.8,2.1-6.1,6.3-5.6c-0.2,0.5-0.5,0.9-0.5,1.4c0.2,2.4,4.3,3.7,1.7,6.9
		c-2.3,2.8-5,0.1-7.4,0.6C494.7,281.2,494.7,280.1,494.7,279z"/>
	<path class="st210" d="M446.7,309c2,0,4,0.1,6.1,0.1c1,0.9,2,1.7,3,2.6c3.2,3,5.1,5.6-1.5,6.2C450.3,316.3,445.2,315.4,446.7,309z"
		/>
	<path class="st187" d="M494.7,298.6c5.3,5.1,13.5,4.4,17.9-1.5c0.9,4.3-0.7,6.4-5.3,6.2c-2.4-0.1-4.8-0.4-7,0.9
		C496.3,304.5,493.9,303.2,494.7,298.6z"/>
	<path class="st211" d="M481.3,309.2c-1.7,2.2-1.1,6.8-6,5.8c-0.6-0.9-1.1-1.8-1.7-2.7C476.5,312.1,477.9,308.2,481.3,309.2z"/>
	<path class="st212" d="M482.7,328.6c1.5-1,3-2,4.4-3c0,1,0,1.9,0,2.9c-9.2,8.1-20,11.6-32.2,10.5c-8.6-0.7-12.1-4.1-11.3-10.5
		c2.7-2,5.8-2.6,9-3.1c-2.2,5.7,1.4,11,8.4,10.3C468.6,335,477.2,336.1,482.7,328.6z"/>
	<path class="st213" d="M497.7,327.1c-4-2.1-6.9-0.6-8.9,3.1c-0.1-0.6-0.1-1.1-0.2-1.7c0.6-2-1.2-5.3,1.4-6
		C493.4,321.6,496,324,497.7,327.1z"/>
	<path class="st214" d="M446.7,309c1,4.3,6,5.2,7.6,9c-1.7,1-3.4,2.1-5.1,3c-6.2,3.1-13.2,0-15.3-6.6c-0.4-1.4-0.3-3.1,0.9-3.2
		C438.8,310.9,442.1,306.4,446.7,309z"/>
	<path class="st215" d="M493.6,254.8c2.4-4.7,5.9-4.5,9.9-2.5c0.6,0.9,1.2,1.9,1.7,2.8C501.2,261.3,497.4,257.1,493.6,254.8z"/>
	<path class="st216" d="M512.7,82.9c-8-5.4-11.8-14.2-18-21.2C503.3,66.6,508.4,74.4,512.7,82.9z"/>
	<path class="st217" d="M476.7,517.2c6.9-11.9,12-24.5,16.5-37.5c5.9-1.8,7.1,0.7,5.3,5.9c-2.2,6.5-4.6,12.9-6.8,19.4
		c-1.9,3.6-3.9,7.2-5.8,10.8c-1.7,0.7-2.6,2.2-3.6,3.7c-0.9,1.4-2,3.4-3.9,2.8C475.7,521.7,477.3,519,476.7,517.2z"/>
</g>
<g>
	<path class="st218" d="M34.5,738.4c12.8,0.1,23.9,0.3,35.1-1c5.5-0.6,10.6,0.8,13.1,6.1c2.6,5.8,4.4,12-0.2,18
		c-2.7,3.6-8.8,4.7-11.5,1.2c-6.8-8.7-16.1-7.9-25.3-7.8c-1.7,0-2.4,0.7-2.8,2.3c-0.8,2.7-1,5.4-0.9,8.1c0.1,1.5-0.4,3.4,1.8,3.6
		c1.9,0.1,4.3,0.9,5.4-1.6c0.7-1.5,1.2-3.2,1.7-4.8c1-3,3.3-4.3,6.2-4.7c2.7-0.4,5,0.3,6.9,2.5c6.8,8,3.6,27.4-0.6,32.3
		c-2.1,2.5-4.7,3.4-7.8,2.7c-2.8-0.6-4.3-2.6-4.9-5.3c-0.3-1.5-0.9-3-1.3-4.4c-0.6-1.8-2-1.6-3.4-1.4c-1.4,0.2-2.8,0.3-3.2,2
		c-0.1,0.5,0,1-0.1,1.5c-1,12.5,3.1,15.7,16.7,12.5c4.3-1,8.2-2.6,11.1-6.7c4.8-6.6,9.4-8.2,13.8-5.8c4.9,2.6,5.8,6.3,3.6,14.5
		c-1.2,4.5-3.3,8.7-6.1,12.4c-2.1,2.8-5,4.2-8.6,3.5c-12.1-2.1-24.3-1.6-36.4-1.4c-10.3,0.2-20.6,0.5-30.9-0.6
		c-2.7-0.3-4.6-1.6-5.4-4.1c-0.8-2.4-1.1-5.3,1.5-6.5c8.6-4,8.3-11.9,8.7-19.3c0.5-8.7,0.1-17.5,0.1-26.3c0-3.6-1.4-6.3-4.9-7.7
		c-3.3-1.4-5.7-3.9-5-7.5c0.7-3.5,3.3-5.7,7.3-6.2C17.5,737.6,26.8,739,34.5,738.4z"/>
	<path class="st219" d="M302.1,736.6c12.3-0.1,21.8,3.4,31.7,4.1c5.9,0.4,10,7.3,12,13c2,5.5,2.4,11.8-3,16.7
		c-5.7,5.1-14.3,4.7-19.1-1.4c-3.4-4.4-7.2-8.3-12.5-10.5c-3-1.2-5.9-1.6-9-0.8c-6.7,1.6-9,4.1-9.1,11c-0.2,9.6,4.3,16.7,12.5,21.5
		c7.8,4.6,15.6,4.9,23.2-0.5c1.3-0.9,2.6-1.7,3.9-2.4c2.9-1.5,5.8-3.2,8.9-0.2c3.1,3,4.9,6,3.6,10.8c-1.4,5.4-5,8.4-9,11.3
		c-15.6,11.3-46.2,12.9-66-4.3c-15.4-13.3-14.4-36.7-4.9-49.1C275.4,742.9,288.6,737.5,302.1,736.6z"/>
	<path class="st220" d="M461.9,793.7c-1.5,2.5-2.8,4.7-4.1,6.8c-1.1,1.8-1.2,3.1,0.1,5.1c3.1,4.7,2,8.4-3.4,9.9
		c-7.7,2.1-15.6,2.5-23.3,0.2c-4.3-1.3-5.5-8-1.6-9.9c11.8-5.8,14.5-18,20.8-27.6c3.1-4.7,5.7-9.7,9-14.3c4.9-6.9,9.6-7.2,14.8-0.6
		c4.6,5.7,8.6,11.9,13,18.3c4.7-5.9,7-12.8,11.5-18.4c4.4-5.6,8.1-6.1,12.8-0.9c5.7,6.3,8.9,14.2,13.4,21.3
		c4.9,7.6,9.2,15.6,17.8,20.2c3.9,2.1,3.3,7-0.8,9.7c-2.9,1.9-6.3,2.6-9.7,3c-7.7,1-15.4,1.5-23-0.3c-5.8-1.3-8-5.3-6.3-11.1
		c1.2-3.9-1.1-6.9-2.9-10c-0.7-1.2-1.7-1-2.2,0.3c-0.7,1.4-1.5,2.8-1.8,4.2c-1.3,5-3.9,9.2-7.4,12.8c-2.8,2.9-5.5,6.6-10.4,5
		c-5.5-1.8-10.3-4.3-11.5-11.1C466,801.9,466.4,797.1,461.9,793.7z"/>
	<path class="st221" d="M887.5,813.9c0,2.9,2,3.9,3.7,5.2c2.2,1.6,4.4,3.8,3.8,6.8c-0.6,3.1-3.1,4.7-6,5.7
		c-9.2,3.2-18.6,2.6-27.9,1.3c-3.8-0.5-7.9,0-11.4-2.6c-4.6-3.4-4.7-7.3-0.1-10.6c2.3-1.7,5.2-2.8,6.2-6.2c-1.6-0.8-2.9,0.3-4.1,0.8
		c-15.6,7.2-34.8-5-35.8-25c-0.9-16.5,11.6-28.9,29.1-30.1c5.8-0.4,11.7-0.8,17.5,0.5c12.1,2.6,24-0.4,35.9-0.9
		c18-0.6,28.2,11.2,28.2,27.9c-0.1,16.1-11.1,28.8-27.1,29.8C895.3,816.8,891.6,814.7,887.5,813.9z"/>
	<path class="st222" d="M218.7,809.9c-6.2,3.2-11.7,6.5-18.8,6.2c-10.8-0.4-17.7-5.5-20.4-15.9c-1-3.8,0.4-7.5,0.5-11.2
		c0.2-5.4,0.3-10.3-5-14.1c-4.1-2.9-3.3-7,1.3-9.4c8.4-4.2,17.4-6.5,26.7-6.7c6.5-0.2,8,2.1,7.3,8.7c-0.9,8.3-1.6,16.7-1.5,25.1
		c0,3.3,1,5.5,4.3,5.8c3.2,0.2,4.8-1.8,5.2-5c0.9-7.1,2.5-14.1-4.5-19.6c-2.9-2.3-2.3-5.3,1-7.1c9.1-5.3,19.2-7.3,29.6-7.6
		c4.4-0.1,5.5,3.4,5.8,7.1c0.5,6.4-1,12.7-1.2,19c-0.1,2.7-0.2,5.5-0.3,8.2c-0.1,3,0,5.3,3.4,7.1c3.9,2.1,3.2,6.9-1,9.6
		c-7.5,4.8-16,5.5-24.6,5.8C220.4,816.2,220.4,816,218.7,809.9z"/>
	<path class="st223" d="M595.8,770.7c-1-0.4-1.9-0.8-2.9-1c-3.4-0.8-5.9-0.4-4.9,4.1c0.1,0.5,0.1,1,0,1.5c-0.7,4.8-0.1,6.8,6.2,6.3
		c9.1-0.7,18.1,1.9,24.3,9.8c6,7.5,3.1,18.9-5.6,23c-4.5,2.1-9.2,3.7-14.4,3.2c-9.6-1-19.2,0.2-28.8,0c-5.2-0.1-10.2-1.1-15-2.9
		c-6.7-2.4-7.8-8.4-2.3-13c2.7-2.2,3.9-4.5,3.6-7.9c-0.3-3.1-0.2-6.2,0-9.3c0.2-2.8-0.8-4.7-2.7-6.8c-7.4-8-5.6-13.9,5.1-17
		c14.5-4.2,29.1-3.6,43.8-1.8c4.5,0.5,8.4,2.8,11.7,6c4.3,4,5.4,8.7,2.7,12.1c-2.9,3.7-8.3,3.9-13.3,0.6c-0.1-1.1,0.6-1.4,1.5-1.6
		c0.9-0.1,1.7,0,2.6,0.2c2.5,0.4,5,0.5,6.2-2.3c1.3-3.1-0.4-5.2-2.7-7.1c-3.3-2.7-7.1-4.7-11.2-4.8c-13.2-0.4-26.4-2.1-39.5,1.7
		c-1.2,0.3-2.3,0.7-3.4,1.2c-4.1,2.2-5.2,5.5-2.1,8.7c7.2,7.5,4.1,16.4,3.9,24.9c0,2.1-2,3.5-3.4,5c-3.7,3.9-3.1,6.3,2.1,8.2
		c8.1,2.9,16.5,3.2,25,2.3c5-0.5,9.9-0.9,14.9,0.1c5.8,1.1,11-1,15.6-4.2c7.1-4.9,7.1-14.6-0.1-19.7c-6-4.2-12.7-6.7-20.4-5.6
		c-6.6,1-7.9-0.2-8-7c0-1.2-0.1-2.4,0-3.6c0.2-2.8-0.9-6.4,2.8-7.6c3.7-1.2,7.5-1,10.2,2.7C597.3,770.4,596.9,771,595.8,770.7z"/>
	<path class="st224" d="M772.4,764.3c11.7-8.3,23.2-6.2,30.8-0.5c9.5,7.1,12.8,25.1,7.4,35.8c-7,14.1-17,18-37,14.5
		c-0.1,2.9,2.7,2.8,4.2,3.9c2.5,1.8,5.5,3.6,5,7.1c-0.5,3.8-3.7,5.6-7,6.8c-1.6,0.6-3.3,1-5,1.1c-10.1,0.7-20.2,2.2-29.9-2
		c-6.4-2.8-7.4-7.4-1.9-11.5c3.7-2.7,4.6-6,4.6-10c0-7.9-0.1-15.8,0.1-23.7c0.1-3.2-0.8-5.1-4.1-6.1c-2.7-0.8-5-2.2-5.4-5.5
		c-0.4-3.5,1.8-5.3,4.4-6.8c8.7-5.1,18.3-7.5,28.3-8.5C770.3,758.7,772.7,759.7,772.4,764.3z"/>
	<path class="st225" d="M640.4,781c-4.1-0.4-8.5-0.6-10.7-4.8c-1.4-2.7-1.2-5.8,0.8-8.3c1.9-2.4,4.1-4.8,7-6
		c10.9-4.7,22.5-5.4,33.9-2.9c13.2,2.9,18.8,11.9,18,26.1c-0.1,2.4-0.3,4.8-0.4,7.2c-0.2,2.9-0.2,5.3,3.5,6.8c3,1.2,4.3,4.5,2.3,8.3
		c-4.1,7.7-23.3,13.9-29.9,5.9c-1.8-2.2-3.4-1.6-5.7-0.1c-7.4,4.9-22.8,3.6-29.2-2.1c-8.5-7.7-6.6-20.9,3.7-26.4
		c2.1-1.1,4.4-1.9,6.6-2.8c4.1-2.3,8.4-3.8,13.2-3.1c1.3,0.2,2.9,0.4,3.3-1.5c0.3-1.6,0.1-3.2-1.3-4.1c-1.5-1-2.6,0.2-3.5,1.2
		C648.8,777.6,645.2,780.3,640.4,781z"/>
	<path class="st226" d="M385.5,795c-2.5,4.7-4.6,8.1-6.3,11.7c-5.8,12.1-13.9,11.6-24.6,9.7c-3.2-0.6-4.8-3.1-5.1-6.4
		c-0.3-3.5,2.4-5.1,4.8-6c5.4-2.1,7.8-6.8,11.2-10.9c-15-6.3-16.6-21.1-5.2-29.4c4.6-3.4,10.3-5.6,15.9-5.4
		c12,0.5,23.9-0.4,35.9-0.4c4.5,0,6.4,2.1,6.3,6.7c-0.2,10.1,0,20.3-0.1,30.4c0,2.9,0.6,5,2.8,7.2c5.2,5.5,4.1,10-3,12.9
		c-10,4-20.2,2.9-30.3,0.4c-3.9-1-5.6-6.9-3.9-11.5C384.7,801.7,386.1,799.3,385.5,795z"/>
	<path class="st227" d="M147.2,817.3c-5.1-0.4-10.8,0.9-16.3-1.4c-6.3-2.7-7.6-6.7-3.3-12c3-3.6,1-6.3-0.8-9.2
		c-0.4-0.7-1-1.2-2.1-0.6c-3.2,1.6-5.4,9-3.4,12.1c3.1,4.9,2.3,7.1-3.1,9.2c-7.3,2.9-14.9,2.1-22.4,1.4c-2.7-0.3-5.1-1.8-5.8-5
		c-0.6-2.9-0.2-5.5,2.6-6.5c8.8-3.2,11-11.6,15-18.5c4.9-8.6,9.2-17.6,16-24.9c4.6-5,9.3-5.1,14-0.1c4.7,5,8.4,10.8,12.1,16.5
		c2.9,4.4,5.6,9,7.9,13.7c2.5,5,5,9.6,10.8,11.7c2.3,0.8,4.1,3,3.7,5.7c-0.5,3.1-2.7,5-5.6,6.2C160.4,817.8,154,817.1,147.2,817.3z"
		/>
	<path class="st228" d="M715.1,791.2c7.6,0,13.9,5.4,13.9,12c0,7.3-5.9,12.8-13.8,12.8c-7.9,0-14.2-5.5-14.2-12.4
		C701.1,796.5,707,791.3,715.1,791.2z"/>
	<path class="st229" d="M640.4,781c4.1-2.4,8.4-4.4,11.3-8.6c1-1.5,3.1-2.8,4.9-1.3c2.4,2,2.6,5.1,2,8.1c-0.6,3-2.6,1-4,0.9
		c-4.8-0.4-9.5,0.4-14.1,1.8C640.4,781.5,640.4,781.2,640.4,781z"/>
	<path class="st230" d="M604.4,776.7c-0.4,0.4-0.8,0.7-1.2,1.1c-2.9-1.9-5.1-4.6-7.5-7.1c0.4-0.4,0.8-0.7,1.3-1.1
		C601.3,770.1,603.4,772.8,604.4,776.7z"/>
	<path class="st231" d="M51.7,752.9c-10.9,0-12.1,1.2-11.8,12.3c0.1,2.5,0.1,5.2,3.3,5.4c3.1,0.3,6.8,1.2,8.1-3.3
		c0.3-1.1,0.8-2.2,1.1-3.4c0.6-2.7,2.5-4.1,5.1-4.4c2.7-0.4,4.4,0.9,5.9,3.2c4.2,6.8,2.5,13.9,1.6,21c-0.2,1.5-0.8,3-1.3,4.4
		c-1.2,3.1-3,5.5-6.8,5.2c-3.6-0.3-4.1-3-4.8-5.8c-0.8-3.3-1.5-6.3-6.3-5.6c-4.7,0.7-5.2,3.3-5.1,7.2c0.1,13,0.3,13.4,13.2,13.3
		c7.5,0,14.2-1.7,18.7-8.5c1.1-1.7,2.8-3.1,4.5-4.2c4.4-2.9,9.7,0,9.9,5.2c0.2,4.8-1.4,9.2-3.6,13.3c-4.1,8-5.2,8-14.2,7
		c-10.8-1.2-21.6-0.6-32.4-0.6c-10.1,0-20.3,0.7-30.4-0.6c-2.1-0.3-3.6-0.9-4.1-3.1c-0.4-1.6-0.6-3.4,1-4.1
		c9.6-4.2,8.8-13.2,9.4-21.1c0.6-8.6,0.2-17.2,0.1-25.8c0-4.3-1.6-7.7-5.9-9.4c-2.4-1-4.6-2.6-4.1-5.2c0.5-2.8,2.7-4.2,5.9-4.8
		c4.7-0.9,9.2-0.1,13.8-0.1c15.8-0.2,31.6,0.6,47.4-1c4.6-0.5,8.8,0.5,10.9,5.1c2.4,4.9,3.6,10.1,0.4,15.2c-2.2,3.7-6.3,4.1-9.6,1.3
		C62.6,753,62.6,753,51.7,752.9z"/>
	<path class="st232" d="M301.4,738.7c13-0.2,22.2,3.6,32.1,3.7c7.4,0.1,13.9,16.8,10.3,23.4c-3.8,7.1-13.4,8.2-18.5,1.7
		c-4.2-5.2-8.7-9.6-15.3-11.7c-2.1-0.7-4-0.9-6-0.6c-12.7,2-16.9,13-10.1,26c5.6,10.7,22.7,20.2,36,10c1.2-0.9,2.7-1.6,4-2.3
		c2.1-1.2,4.2-2.6,6.5-0.3c2.2,2.3,4,4.3,3,8.1c-1,3.7-2.9,6.4-5.7,8.9c-14.3,12.8-46.4,14.2-61,1.3c-1.5-1.4-3.2-2.7-4.8-3.8
		c-16.1-11.3-13.9-34.5-4.7-46.3C276.9,744.4,289.6,739.4,301.4,738.7z"/>
	<path class="st233" d="M521.4,814.9c-3.9-0.1-7.9,0.3-11.8-0.8c-4.5-1.4-6-4-4.7-8.4c1.5-5.3-1.4-9.3-4.3-13.1
		c-1-1.4-2.5-1.6-3.7,0.3c-1.3,2.1-2.4,4.1-3,6.5c-1.2,4.6-3.7,8.5-7,11.8c-2.2,2.2-4.3,5.5-8.1,4.2c-4.6-1.5-9-3.5-10-9.2
		c-0.8-4.3-0.8-8.9-3.9-12.6c-2.2-2.6-3.9-3.2-5.6,0.4c-1,2-2.2,3.9-3.3,5.8c-1.5,2.4-1.9,4.5,0.3,6.9c2.8,3,1.2,5.8-2.1,6.8
		c-7.2,2.2-14.6,2.2-21.8,0.5c-3.2-0.8-4.1-5.4-1.2-6.8c12.2-5.8,14.7-18.7,21.3-28.5c3.1-4.5,5.6-9.4,8.8-13.9
		c4-5.4,7.3-5.5,11.4-0.3c4,5.1,7.5,10.7,11.3,16c3.1,4.3,4.1,4.2,6.9-0.3c3.3-5.4,5.8-11.3,9.8-16.3c3.2-4,5.6-4.3,9.2-0.7
		c4.9,5,7.3,11.5,11,17.3c4.5,6.9,8.2,14.4,14.3,20.1c1.5,1.4,3.1,2.8,4.9,3.8c1.7,1,3.4,1.7,3.2,4.1c-0.2,2.2-1.9,3.2-3.6,4
		C533.8,814.9,527.6,815.1,521.4,814.9z"/>
	<path class="st232" d="M872.1,831.7c-5.4,1.1-11.3-1.1-17.2-1.4c-2.9-0.2-5.8-1.7-6.6-4.9c-0.8-3.2,2.5-3.6,4.2-5.1
		c0.4-0.3,0.9-0.5,1.3-0.8c2.4-2,5.5-4.7,3.9-7.6c-1.5-2.7-4.7,0-6.8,0.9c-12.3,5.2-24.4-1.7-29.6-10.9c-6.6-11.9-3.4-26.4,6.2-34
		c9.2-7.3,19.8-7.4,30.4-6.4c10.8,1,21.5,1.3,32.3,0c6.7-0.8,13.6-1.3,20.4,1.4c5,2,8.3,5.3,10.9,9.7c5.4,9.4,3.7,24.8-3.6,32.8
		c-8.4,9.2-16.8,11.3-28.7,7c-1.2-0.4-2.6-1.8-3.7-0.6c-1.2,1.2-0.4,2.9,0.1,4.4c0.7,2.1,2.2,3.3,4,4.5c1.8,1.2,3.9,2.8,3.2,5.4
		c-0.5,2.1-2.5,3-4.5,3.9C883.4,832,878.1,831.9,872.1,831.7z"/>
	<path class="st234" d="M221.1,784.4c1-3.9-0.8-7.8-4.8-10.9c-2.7-2.1-2.8-4,0.6-5.8c8.5-4.5,17.7-6.2,27.2-6.9
		c2.8-0.2,3.8,1.8,4.1,4.3c0.6,4.8,0.1,9.6-0.6,14.4c-0.9,5.8-0.5,11.7-0.7,17.5c-0.1,2.3,1.3,3.3,2.9,4.4c3.7,2.4,3.9,5,0.4,7.1
		c-8.2,5-17.4,5.6-26.8,5.5c-1.6,0-1.8-1.2-2-2.4c-0.7-4.4-2.8-4.1-6-2.1c-4.7,2.9-9.7,4.5-15.5,4.7c-10.2,0.3-20.9-8.8-18.2-21.3
		c0.9-4,0.9-8.2,0.1-12.3c-0.6-2.9-2.6-4.6-4.7-6.4c-3.4-2.9-3.3-5.2,0.6-7.1c8.1-3.9,16.8-5.9,25.8-6.4c4.4-0.2,5.8,2.1,5.2,6.1
		c-1.4,8.6-1.8,17.3-1.8,26c0,4.7,2.3,7.3,6.6,7.6c3.9,0.3,6.1-2.3,7.1-6.1C221.2,791.4,220.8,788.5,221.1,784.4z"/>
	<path class="st235" d="M604.4,776.7c-2.3-2.5-4.4-5.2-7.4-7c-1.4-0.7-2.7-1.6-4.1-2c-5.7-1.4-7-0.4-7,5.4c0,3.4-0.9,7.6,0.7,10
		c1.9,3,5.9-0.3,9.1,0c6.4,0.7,12.6,2.3,17.8,6c9.4,6.7,7.7,19.2-2.8,23.9c-3.6,1.6-7.3,3.2-11.4,2.6c-9.3-1.2-18.5,0.2-27.7,0.1
		c-5.4,0-10.5-1.1-15.6-2.7c-6.2-2-7.1-5.9-2.1-10c3.1-2.6,4.4-5.5,4-9.4c-0.2-2.7-0.2-5.5,0-8.2c0.2-3.6-0.7-6.4-3.4-9.1
		c-6.1-6.2-4.7-10.8,3.5-13.4c13.6-4.3,27.5-3.1,41.3-2.4c4.7,0.2,9.1,2.6,12.9,5.8c3,2.6,4.7,5.5,2.9,8.9c-1.9,3.6-5.5,3.6-9,2.4
		C605.6,777.4,605,777,604.4,776.7z"/>
	<path class="st234" d="M771.9,810.6c-1.2,4.5,0,6.9,3.6,8.6c2.5,1.2,6.1,2.5,5.1,6.1c-0.9,3.3-4,4.6-7.5,5.2
		c-10.6,1.7-21.1,2.9-31.4-1.3c-5.2-2.1-5.8-5.4-0.9-8.4c4.3-2.6,4.8-6.3,4.9-10.3c0.2-8.2,0-16.5,0.1-24.7c0-3.9-1.2-6.6-5.2-7.7
		c-2.1-0.6-4.3-1.5-4.4-4.3c-0.1-2.5,1.9-3.4,3.7-4.5c8.1-4.8,17-7,26.3-8.2c2.3-0.3,4.4-0.3,4.4,3.2c0,3.7,2,2.8,4,1.3
		c8.2-6.3,17.1-6,25.6-1.2c7.5,4.2,10.4,11.4,10.6,19.9c0.4,14.6-6.5,25.7-18.3,29.3C785.1,815.7,778.6,813.6,771.9,810.6z"/>
	<path class="st231" d="M658.8,760c5,0.1,8.9-0.4,12.5,0.8c13.6,4.6,15.9,10.7,16.1,24.7c0,2.6-0.3,5.1-0.6,7.7
		c-0.4,3.4,0.3,5.8,3.9,7.3c3.3,1.3,3.7,4,1.5,7c-4.2,5.8-20.2,11.4-26.7,3.8c-2.4-2.8-4.5-1.8-7.1,0c-6.8,4.6-21.2,3.5-27.2-1.9
		c-7.5-6.8-5.6-18.6,3.8-23.1c6.7-3.2,13.7-5.5,21.4-3.6c2.4,0.6,3.8,0,4-3c0.1-1.9,0.1-3.8-0.3-5.6c-0.5-2.5-1.5-4.9-4.1-5.4
		c-2.4-0.4-4.9,0.6-6.3,2.8c-1.8,2.9-4.6,4.6-7.4,6.3c-3.5,2.1-9.2,1.1-10.7-1.9c-1.7-3.5-0.5-6.4,2.5-9
		C641.8,760.1,650.9,760.2,658.8,760z"/>
	<path class="st236" d="M416.3,780.9c0,3.8,0.1,7.6,0,11.3c-0.2,4.7,0.1,8.8,4,12.5c3.5,3.2,2.6,6.2-2.1,8.3
		c-9.7,4.3-19.8,3.6-29.7,0.7c-3.1-0.9-4.4-4.6-3.1-8.2c0.9-2.4,2.3-4.6,2.4-7.3c0-1.5,1-3.2-1.1-3.9c-1.7-0.5-3.1,0.4-3.9,1.8
		c-1.9,3.2-3.8,6.5-5.4,9.9c-4.4,8.8-13.8,12.4-22.5,8.5c-1.8-0.8-3.1-2.1-3.3-4.3c-0.3-2.5,1.5-3.6,3.2-4.1
		c5.5-1.7,8.3-6.4,11.5-10.5c1.6-2,2.2-4-1.5-5.3c-6-2.1-9.7-6.7-9.8-13.1c-0.1-6.8,4.1-11.1,10-13.6c6.5-2.8,13.1-3.8,20.5-2.9
		c7.2,0.9,14.7-0.2,22.1-0.6c8.3-0.5,8.8-0.2,8.8,8C416.3,772.3,416.3,776.6,416.3,780.9z"/>
	<path class="st237" d="M147.1,815.3c-4.8-0.4-10.2,0.8-15.4-1.3c-5-2.1-5.8-4.8-2.5-9c2.8-3.7,2-9.5-1.5-12.4
		c-1.2-1-2.4-1.1-3.8-0.4c-4.5,2.3-7,11-4.2,15.1c2,2.9,1.9,4.6-1.9,6.1c-7.2,2.8-14.5,2.1-21.9,1.4c-2.1-0.2-3.7-1.6-4.2-4
		c-0.5-2.1,0.5-3.5,2.2-4.1c9-3.2,11.2-11.8,15.2-18.9c4.9-8.4,9-17.3,15.8-24.5c4.1-4.3,7.3-4.6,11.1-0.1c5.8,6.8,11.1,13.9,15,22
		c2.4,4.9,5.3,9.6,8.2,14.2c1.6,2.5,3.9,4.2,6.7,5.4c2.1,0.9,4.4,2.1,3.9,4.7c-0.4,2.2-2.3,3.5-4.6,4.4
		C159.5,815.7,153.5,815.2,147.1,815.3z"/>
	<path class="st238" d="M715.2,793.3c6.8,0,11.7,4.3,11.8,10.1c0.1,6.1-4.9,10.5-12,10.5c-6.6,0-11.8-4.5-11.9-10.2
		C703,797.6,708,793.3,715.2,793.3z"/>
	<path class="st239" d="M882.8,788.2c0.5-5.2-0.4-10.2,2.9-14.7c2.3-3.1,4.4-3.4,7.3-1.4c6.6,4.6,8.8,20.6,3.7,26.8
		c-2.6,3.2-6.3,3.5-9.9,2.5c-3.3-0.9-4.3-3.6-4-6.9C883,792.3,882.8,790.1,882.8,788.2z"/>
	<path class="st240" d="M860.4,788.3c-0.1,2.7,0.1,5.5-0.5,8.2c-1.2,5.7-6.6,7.3-10.8,3.3c-5.1-4.8-6.7-19.5-2.7-25.1
		c1.8-2.5,4.4-4.2,7.5-3.7c3.2,0.5,4.9,3.1,5.5,6.1C860.3,780.7,860.5,784.5,860.4,788.3z"/>
	<path class="st241" d="M596.3,798.8c0.3,3.8-1.7,6.4-6.1,6.6c-4.1,0.2-6.5-3.6-6.3-9.9c0.1-3,1.1-5.3,4.8-5.1
		C593.4,790.6,596.4,793.6,596.3,798.8z"/>
	<path class="st242" d="M769.4,788.5c0-2.9-0.1-5.8,0-8.7c0.1-2.7,1.8-4.5,4.1-5.4c2.1-0.8,4.2-0.4,6.2,1.2
		c5.7,4.8,7.8,16.1,4.2,22.6c-2.3,4.1-6,5.2-10,4.3c-4.2-0.9-5.5-4.1-4.8-8.3c0.3-1.8,0.1-3.8,0.1-5.6
		C769.2,788.5,769.3,788.5,769.4,788.5z"/>
	<path class="st243" d="M657.7,789c3.6-0.3,4.4,2,4.4,4.9c0,7-1.9,9.9-6.3,9.8c-4-0.1-6.3-3.1-6.1-7.8
		C649.8,791.8,653.2,789,657.7,789z"/>
	<path class="st244" d="M386.6,767.2c3.2-0.5,5.6,1,5.1,4.7c-1.1,8.1-0.6,9.6-6.4,10.1c-4.5,0.4-7-2.3-7.2-7.2
		C377.9,770.2,381,767.2,386.6,767.2z"/>
	<path class="st245" d="M884.9,788.3c0.6-4.8-0.6-9.2,2.1-13.1c1.6-2.4,3-2.8,5.3-0.9c4.8,4,6.7,17.8,3.1,23c-2,2.8-4.8,3.1-7.8,2.4
		c-2.8-0.6-2.9-2.9-2.8-5.3C885,792.1,884.9,789.8,884.9,788.3z"/>
	<path class="st245" d="M858,788.2c0,2.6,0.3,5.2-0.1,7.7c-0.7,4.1-4.4,5.1-7.5,2.3c-4.3-3.9-5.8-18.1-2.3-22.6
		c1.4-1.8,3.4-3.2,5.7-2.6c2,0.6,3.3,2.5,3.6,4.5c0.5,3.5,0.6,7.1,0.9,10.6C858.3,788.2,858.2,788.2,858,788.2z"/>
	<path class="st229" d="M594.5,797.5c-0.2,3.3-0.9,6-4.2,5.9c-5.5-0.1-3.1-5.1-4.2-7.8c-0.6-1.5,0.6-3.4,2.9-3
		C592.2,792.9,594.4,794.4,594.5,797.5z"/>
	<path class="st245" d="M771.5,788.2c0-2.4,0-4.8,0-7.2c-0.1-2.3,0.8-4.1,2.9-4.9c2-0.7,3.6,0.4,5,1.8c4,3.9,5.5,13.8,3,18.8
		c-1.8,3.5-4.7,4.4-8.2,3.7c-3.5-0.7-3.6-3.5-3.2-6.5c0.2-1.9,0-3.8,0-5.6C771.2,788.2,771.4,788.2,771.5,788.2z"/>
	<path class="st246" d="M651.7,796.7c0-4.1,2.3-5.4,5.6-5.6c2.5-0.2,3.3,1.6,2.6,3.2c-1.1,2.5,1.3,7.3-4,7.4
		C652.4,801.7,651.8,799.1,651.7,796.7z"/>
	<path class="st246" d="M385.7,780c-4.5-0.1-5.6-2.2-5.6-5.4c0.1-4.4,2.9-5.4,6.5-5.5c2.7-0.1,3.6,1.5,3,3.5
		C388.7,775.4,390.5,780.3,385.7,780z"/>
</g>
</svg>
