<?xml version="1.0" encoding="UTF-8"?>
<svg xmlns="http://www.w3.org/2000/svg" xmlns:xlink="http://www.w3.org/1999/xlink" width="810pt" height="809.999993pt" viewBox="0 0 810 809.999993" version="1.2">
<defs>
<clipPath id="clip1">
  <path d="M 271.195312 259.5 L 538.945312 259.5 L 538.945312 527.25 L 271.195312 527.25 Z M 271.195312 259.5 "/>
</clipPath>
<clipPath id="clip2">
  <path d="M 81 98.53125 L 750.75 98.53125 L 750.75 768.28125 L 81 768.28125 Z M 81 98.53125 "/>
</clipPath>
</defs>
<g id="surface1">
<path style=" stroke:none;fill-rule:nonzero;fill:rgb(100%,100%,100%);fill-opacity:1;" d="M 107.511719 313.136719 L 719.335938 313.136719 L 719.335938 436 L 107.511719 436 Z M 107.511719 313.136719 "/>
<path style=" stroke:none;fill-rule:nonzero;fill:rgb(100%,100%,100%);fill-opacity:1;" d="M 107.488281 326.660156 C 105.921875 326.660156 104.363281 326.738281 102.804688 326.890625 C 101.246094 327.042969 99.703125 327.273438 98.167969 327.578125 C 96.632812 327.882812 95.117188 328.265625 93.617188 328.71875 C 92.121094 329.171875 90.648438 329.699219 89.203125 330.296875 C 87.757812 330.898438 86.34375 331.566406 84.964844 332.304688 C 83.582031 333.039062 82.242188 333.84375 80.941406 334.714844 C 79.640625 335.582031 78.382812 336.515625 77.175781 337.507812 C 75.964844 338.5 74.808594 339.550781 73.699219 340.65625 C 72.59375 341.761719 71.542969 342.921875 70.550781 344.128906 C 69.558594 345.339844 68.628906 346.597656 67.757812 347.898438 C 66.886719 349.199219 66.085938 350.539062 65.347656 351.917969 C 64.609375 353.300781 63.941406 354.710938 63.339844 356.160156 C 62.742188 357.605469 62.214844 359.078125 61.761719 360.574219 C 61.308594 362.070312 60.929688 363.585938 60.621094 365.121094 C 60.316406 366.65625 60.085938 368.203125 59.933594 369.761719 C 59.78125 371.320312 59.703125 372.878906 59.703125 374.445312 C 59.703125 376.011719 59.78125 377.570312 59.933594 379.128906 C 60.085938 380.6875 60.316406 382.230469 60.621094 383.765625 C 60.929688 385.300781 61.308594 386.820312 61.761719 388.316406 C 62.214844 389.8125 62.742188 391.285156 63.339844 392.730469 C 63.941406 394.175781 64.609375 395.589844 65.347656 396.96875 C 66.085938 398.351562 66.886719 399.691406 67.757812 400.992188 C 68.628906 402.292969 69.558594 403.550781 70.550781 404.757812 C 71.542969 405.96875 72.59375 407.128906 73.699219 408.234375 C 74.808594 409.339844 75.964844 410.390625 77.175781 411.382812 C 78.382812 412.375 79.640625 413.308594 80.941406 414.175781 C 82.242188 415.046875 83.582031 415.847656 84.964844 416.585938 C 86.34375 417.324219 87.757812 417.992188 89.203125 418.59375 C 90.648438 419.191406 92.121094 419.71875 93.617188 420.171875 C 95.117188 420.625 96.632812 421.007812 98.167969 421.3125 C 99.703125 421.617188 101.246094 421.847656 102.804688 422 C 104.363281 422.152344 105.921875 422.230469 107.488281 422.230469 C 109.054688 422.230469 110.613281 422.152344 112.171875 422 C 113.730469 421.847656 115.277344 421.617188 116.8125 421.3125 C 118.347656 421.007812 119.863281 420.625 121.359375 420.171875 C 122.859375 419.71875 124.328125 419.191406 125.773438 418.59375 C 127.222656 417.992188 128.632812 417.324219 130.015625 416.585938 C 131.394531 415.847656 132.734375 415.046875 134.035156 414.175781 C 135.335938 413.308594 136.59375 412.375 137.804688 411.382812 C 139.011719 410.390625 140.171875 409.339844 141.277344 408.234375 C 142.382812 407.128906 143.433594 405.96875 144.425781 404.757812 C 145.417969 403.550781 146.351562 402.292969 147.21875 400.992188 C 148.089844 399.691406 148.894531 398.351562 149.632812 396.96875 C 150.367188 395.589844 151.035156 394.175781 151.636719 392.730469 C 152.234375 391.285156 152.761719 389.8125 153.214844 388.316406 C 153.671875 386.820312 154.050781 385.300781 154.355469 383.765625 C 154.660156 382.230469 154.890625 380.6875 155.042969 379.128906 C 155.195312 377.570312 155.273438 376.011719 155.273438 374.445312 C 155.273438 372.878906 155.195312 371.320312 155.042969 369.761719 C 154.890625 368.203125 154.660156 366.65625 154.355469 365.121094 C 154.050781 363.585938 153.671875 362.070312 153.214844 360.574219 C 152.761719 359.078125 152.234375 357.605469 151.636719 356.160156 C 151.035156 354.710938 150.367188 353.300781 149.632812 351.917969 C 148.894531 350.539062 148.089844 349.199219 147.21875 347.898438 C 146.351562 346.597656 145.417969 345.339844 144.425781 344.128906 C 143.433594 342.921875 142.382812 341.761719 141.277344 340.65625 C 140.171875 339.550781 139.011719 338.5 137.804688 337.507812 C 136.59375 336.515625 135.335938 335.582031 134.035156 334.714844 C 132.734375 333.84375 131.394531 333.039062 130.015625 332.304688 C 128.632812 331.566406 127.222656 330.898438 125.773438 330.296875 C 124.328125 329.699219 122.859375 329.171875 121.359375 328.71875 C 119.863281 328.265625 118.347656 327.882812 116.8125 327.578125 C 115.277344 327.273438 113.730469 327.042969 112.171875 326.890625 C 110.613281 326.738281 109.054688 326.660156 107.488281 326.660156 Z M 107.488281 326.660156 "/>
<path style=" stroke:none;fill-rule:nonzero;fill:rgb(100%,100%,100%);fill-opacity:1;" d="M 33.214844 499.199219 C 31.652344 499.199219 30.089844 499.277344 28.53125 499.429688 C 26.972656 499.582031 25.429688 499.8125 23.894531 500.117188 C 22.359375 500.421875 20.84375 500.800781 19.34375 501.257812 C 17.847656 501.710938 16.375 502.238281 14.929688 502.835938 C 13.484375 503.433594 12.070312 504.105469 10.691406 504.839844 C 9.308594 505.578125 7.96875 506.382812 6.667969 507.253906 C 5.367188 508.121094 4.109375 509.054688 2.902344 510.046875 C 1.691406 511.039062 0.535156 512.089844 -0.574219 513.195312 C -1.679688 514.300781 -2.730469 515.460938 -3.722656 516.667969 C -4.714844 517.878906 -5.644531 519.132812 -6.515625 520.4375 C -7.386719 521.738281 -8.1875 523.078125 -8.925781 524.457031 C -9.664062 525.839844 -10.332031 527.25 -10.929688 528.699219 C -11.53125 530.144531 -12.058594 531.613281 -12.511719 533.113281 C -12.964844 534.609375 -13.34375 536.125 -13.652344 537.660156 C -13.957031 539.195312 -14.183594 540.742188 -14.339844 542.300781 C -14.492188 543.855469 -14.570312 545.417969 -14.570312 546.984375 C -14.570312 548.546875 -14.492188 550.109375 -14.339844 551.667969 C -14.183594 553.226562 -13.957031 554.769531 -13.652344 556.304688 C -13.34375 557.839844 -12.964844 559.355469 -12.511719 560.855469 C -12.058594 562.351562 -11.53125 563.824219 -10.929688 565.269531 C -10.332031 566.714844 -9.664062 568.128906 -8.925781 569.507812 C -8.1875 570.890625 -7.386719 572.230469 -6.515625 573.53125 C -5.644531 574.832031 -4.714844 576.089844 -3.722656 577.296875 C -2.730469 578.507812 -1.679688 579.664062 -0.574219 580.773438 C 0.535156 581.878906 1.691406 582.929688 2.902344 583.921875 C 4.109375 584.914062 5.367188 585.84375 6.667969 586.714844 C 7.96875 587.585938 9.308594 588.386719 10.691406 589.125 C 12.070312 589.863281 13.484375 590.53125 14.929688 591.128906 C 16.375 591.730469 17.847656 592.257812 19.34375 592.710938 C 20.84375 593.164062 22.359375 593.542969 23.894531 593.851562 C 25.429688 594.15625 26.972656 594.382812 28.53125 594.539062 C 30.089844 594.691406 31.652344 594.769531 33.214844 594.769531 C 34.78125 594.769531 36.34375 594.691406 37.898438 594.539062 C 39.457031 594.382812 41.003906 594.15625 42.539062 593.851562 C 44.074219 593.542969 45.589844 593.164062 47.085938 592.710938 C 48.585938 592.257812 50.054688 591.730469 51.5 591.128906 C 52.949219 590.53125 54.359375 589.863281 55.742188 589.125 C 57.121094 588.386719 58.460938 587.585938 59.761719 586.714844 C 61.0625 585.84375 62.320312 584.914062 63.53125 583.921875 C 64.738281 582.929688 65.898438 581.878906 67.003906 580.773438 C 68.109375 579.664062 69.160156 578.507812 70.152344 577.296875 C 71.144531 576.089844 72.078125 574.832031 72.945312 573.53125 C 73.816406 572.230469 74.621094 570.890625 75.359375 569.507812 C 76.09375 568.128906 76.765625 566.714844 77.363281 565.269531 C 77.960938 563.824219 78.488281 562.351562 78.941406 560.855469 C 79.398438 559.355469 79.777344 557.839844 80.082031 556.304688 C 80.386719 554.769531 80.617188 553.226562 80.769531 551.667969 C 80.921875 550.109375 81 548.546875 81 546.984375 C 81 545.417969 80.921875 543.855469 80.769531 542.300781 C 80.617188 540.742188 80.386719 539.195312 80.082031 537.660156 C 79.777344 536.125 79.398438 534.609375 78.941406 533.113281 C 78.488281 531.613281 77.960938 530.144531 77.363281 528.699219 C 76.765625 527.25 76.09375 525.839844 75.359375 524.457031 C 74.621094 523.078125 73.816406 521.738281 72.945312 520.4375 C 72.078125 519.132812 71.144531 517.878906 70.152344 516.667969 C 69.160156 515.460938 68.109375 514.300781 67.003906 513.195312 C 65.898438 512.089844 64.738281 511.039062 63.53125 510.046875 C 62.320312 509.054688 61.0625 508.121094 59.761719 507.253906 C 58.460938 506.382812 57.121094 505.578125 55.742188 504.839844 C 54.359375 504.105469 52.949219 503.433594 51.5 502.835938 C 50.054688 502.238281 48.585938 501.710938 47.085938 501.257812 C 45.589844 500.800781 44.074219 500.421875 42.539062 500.117188 C 41.003906 499.8125 39.457031 499.582031 37.898438 499.429688 C 36.34375 499.277344 34.78125 499.199219 33.214844 499.199219 Z M 33.214844 499.199219 "/>
<path style=" stroke:none;fill-rule:nonzero;fill:rgb(100%,100%,100%);fill-opacity:1;" d="M 95.257812 546.984375 L 413.527344 546.984375 L 413.527344 572.375 L 95.257812 572.375 Z M 95.257812 546.984375 "/>
<path style=" stroke:none;fill-rule:nonzero;fill:rgb(100%,100%,100%);fill-opacity:1;" d="M 410.796875 546.984375 L 729.066406 546.984375 L 729.066406 572.375 L 410.796875 572.375 Z M 410.796875 546.984375 "/>
<g clip-path="url(#clip1)" clip-rule="nonzero">
<path style=" stroke:none;fill-rule:nonzero;fill:rgb(96.859741%,92.939758%,88.238525%);fill-opacity:1;" d="M 538.945312 393.375 C 538.945312 395.566406 538.890625 397.757812 538.785156 399.945312 C 538.675781 402.132812 538.515625 404.316406 538.300781 406.5 C 538.085938 408.679688 537.816406 410.851562 537.496094 413.019531 C 537.175781 415.1875 536.800781 417.34375 536.371094 419.496094 C 535.945312 421.644531 535.464844 423.78125 534.933594 425.90625 C 534.398438 428.03125 533.816406 430.140625 533.179688 432.238281 C 532.542969 434.335938 531.855469 436.414062 531.117188 438.476562 C 530.378906 440.539062 529.59375 442.585938 528.753906 444.609375 C 527.914062 446.632812 527.027344 448.636719 526.089844 450.617188 C 525.152344 452.597656 524.167969 454.550781 523.136719 456.484375 C 522.105469 458.417969 521.023438 460.324219 519.898438 462.203125 C 518.773438 464.082031 517.601562 465.933594 516.382812 467.753906 C 515.164062 469.574219 513.902344 471.367188 512.597656 473.125 C 511.292969 474.886719 509.945312 476.613281 508.554688 478.304688 C 507.167969 480 505.734375 481.65625 504.265625 483.28125 C 502.792969 484.90625 501.28125 486.492188 499.734375 488.039062 C 498.183594 489.589844 496.597656 491.101562 494.972656 492.570312 C 493.351562 494.042969 491.691406 495.472656 490 496.863281 C 488.304688 498.253906 486.578125 499.601562 484.820312 500.90625 C 483.058594 502.210938 481.269531 503.472656 479.445312 504.691406 C 477.625 505.90625 475.773438 507.078125 473.894531 508.203125 C 472.015625 509.332031 470.109375 510.410156 468.175781 511.445312 C 466.246094 512.476562 464.289062 513.460938 462.308594 514.398438 C 460.328125 515.335938 458.324219 516.222656 456.300781 517.0625 C 454.277344 517.898438 452.234375 518.6875 450.171875 519.425781 C 448.109375 520.164062 446.027344 520.851562 443.929688 521.488281 C 441.835938 522.121094 439.722656 522.707031 437.597656 523.238281 C 435.472656 523.773438 433.335938 524.25 431.1875 524.679688 C 429.039062 525.105469 426.878906 525.480469 424.714844 525.800781 C 422.546875 526.125 420.371094 526.390625 418.191406 526.605469 C 416.011719 526.820312 413.828125 526.984375 411.636719 527.089844 C 409.449219 527.199219 407.261719 527.25 405.070312 527.25 C 402.878906 527.25 400.6875 527.199219 398.5 527.089844 C 396.3125 526.984375 394.128906 526.820312 391.949219 526.605469 C 389.765625 526.390625 387.59375 526.125 385.425781 525.800781 C 383.257812 525.480469 381.101562 525.105469 378.953125 524.679688 C 376.804688 524.25 374.664062 523.773438 372.539062 523.238281 C 370.414062 522.707031 368.304688 522.121094 366.207031 521.488281 C 364.109375 520.851562 362.03125 520.164062 359.96875 519.425781 C 357.90625 518.6875 355.863281 517.898438 353.835938 517.0625 C 351.8125 516.222656 349.8125 515.335938 347.832031 514.398438 C 345.851562 513.460938 343.894531 512.476562 341.960938 511.445312 C 340.027344 510.410156 338.125 509.332031 336.242188 508.203125 C 334.363281 507.078125 332.515625 505.90625 330.691406 504.691406 C 328.871094 503.472656 327.078125 502.210938 325.320312 500.90625 C 323.558594 499.601562 321.832031 498.253906 320.140625 496.863281 C 318.445312 495.472656 316.789062 494.042969 315.164062 492.570312 C 313.542969 491.101562 311.953125 489.589844 310.40625 488.039062 C 308.855469 486.492188 307.347656 484.90625 305.875 483.28125 C 304.402344 481.65625 302.972656 480 301.582031 478.304688 C 300.191406 476.613281 298.84375 474.886719 297.539062 473.125 C 296.234375 471.367188 294.972656 469.574219 293.757812 467.753906 C 292.539062 465.933594 291.367188 464.082031 290.242188 462.203125 C 289.113281 460.324219 288.035156 458.417969 287.003906 456.484375 C 285.96875 454.550781 284.984375 452.597656 284.046875 450.617188 C 283.109375 448.636719 282.222656 446.632812 281.386719 444.609375 C 280.546875 442.585938 279.757812 440.539062 279.019531 438.476562 C 278.28125 436.414062 277.59375 434.335938 276.960938 432.238281 C 276.324219 430.140625 275.738281 428.03125 275.207031 425.90625 C 274.675781 423.78125 274.195312 421.644531 273.765625 419.496094 C 273.339844 417.34375 272.964844 415.1875 272.644531 413.019531 C 272.320312 410.851562 272.054688 408.679688 271.839844 406.5 C 271.625 404.316406 271.464844 402.132812 271.355469 399.945312 C 271.25 397.757812 271.195312 395.566406 271.195312 393.375 C 271.195312 391.1875 271.25 388.996094 271.355469 386.808594 C 271.464844 384.621094 271.625 382.433594 271.839844 380.253906 C 272.054688 378.074219 272.320312 375.898438 272.644531 373.734375 C 272.964844 371.566406 273.339844 369.40625 273.765625 367.257812 C 274.195312 365.109375 274.675781 362.972656 275.207031 360.847656 C 275.738281 358.722656 276.324219 356.609375 276.960938 354.515625 C 277.59375 352.417969 278.28125 350.339844 279.019531 348.277344 C 279.757812 346.210938 280.546875 344.167969 281.386719 342.144531 C 282.222656 340.121094 283.109375 338.117188 284.046875 336.136719 C 284.984375 334.15625 285.96875 332.199219 287.003906 330.269531 C 288.035156 328.335938 289.113281 326.429688 290.242188 324.550781 C 291.367188 322.671875 292.539062 320.820312 293.757812 319 C 294.972656 317.179688 296.234375 315.386719 297.539062 313.628906 C 298.84375 311.867188 300.191406 310.140625 301.582031 308.445312 C 302.972656 306.753906 304.402344 305.09375 305.875 303.472656 C 307.347656 301.847656 308.855469 300.261719 310.40625 298.710938 C 311.953125 297.164062 313.542969 295.652344 315.164062 294.183594 C 316.789062 292.710938 318.445312 291.28125 320.140625 289.890625 C 321.832031 288.5 323.558594 287.152344 325.320312 285.847656 C 327.078125 284.542969 328.871094 283.28125 330.691406 282.0625 C 332.515625 280.847656 334.363281 279.675781 336.242188 278.546875 C 338.125 277.421875 340.027344 276.34375 341.960938 275.308594 C 343.894531 274.277344 345.851562 273.292969 347.832031 272.355469 C 349.8125 271.417969 351.8125 270.53125 353.835938 269.691406 C 355.863281 268.855469 357.90625 268.066406 359.96875 267.328125 C 362.03125 266.589844 364.109375 265.902344 366.207031 265.265625 C 368.304688 264.628906 370.414062 264.046875 372.539062 263.511719 C 374.664062 262.980469 376.804688 262.5 378.953125 262.074219 C 381.101562 261.648438 383.257812 261.273438 385.425781 260.949219 C 387.59375 260.628906 389.765625 260.359375 391.949219 260.144531 C 394.128906 259.929688 396.3125 259.769531 398.5 259.664062 C 400.6875 259.554688 402.878906 259.5 405.070312 259.5 C 407.261719 259.5 409.449219 259.554688 411.636719 259.664062 C 413.828125 259.769531 416.011719 259.929688 418.191406 260.144531 C 420.371094 260.359375 422.546875 260.628906 424.714844 260.949219 C 426.878906 261.273438 429.039062 261.648438 431.1875 262.074219 C 433.335938 262.5 435.472656 262.980469 437.597656 263.511719 C 439.722656 264.046875 441.835938 264.628906 443.929688 265.265625 C 446.027344 265.902344 448.109375 266.589844 450.171875 267.328125 C 452.234375 268.066406 454.277344 268.855469 456.300781 269.691406 C 458.324219 270.53125 460.328125 271.417969 462.308594 272.355469 C 464.289062 273.292969 466.246094 274.277344 468.175781 275.308594 C 470.109375 276.34375 472.015625 277.421875 473.894531 278.546875 C 475.773438 279.675781 477.625 280.847656 479.445312 282.0625 C 481.269531 283.28125 483.058594 284.542969 484.820312 285.847656 C 486.578125 287.152344 488.304688 288.5 490 289.890625 C 491.691406 291.28125 493.351562 292.710938 494.972656 294.183594 C 496.597656 295.652344 498.183594 297.164062 499.734375 298.710938 C 501.28125 300.261719 502.792969 301.847656 504.265625 303.472656 C 505.734375 305.09375 507.167969 306.753906 508.554688 308.445312 C 509.945312 310.140625 511.292969 311.867188 512.597656 313.628906 C 513.902344 315.386719 515.164062 317.179688 516.382812 319 C 517.601562 320.820312 518.773438 322.671875 519.898438 324.550781 C 521.023438 326.429688 522.105469 328.335938 523.136719 330.269531 C 524.167969 332.199219 525.152344 334.15625 526.089844 336.136719 C 527.027344 338.117188 527.914062 340.121094 528.753906 342.144531 C 529.59375 344.167969 530.378906 346.210938 531.117188 348.277344 C 531.855469 350.339844 532.542969 352.417969 533.179688 354.515625 C 533.816406 356.609375 534.398438 358.722656 534.933594 360.847656 C 535.464844 362.972656 535.945312 365.109375 536.371094 367.257812 C 536.800781 369.40625 537.175781 371.566406 537.496094 373.734375 C 537.816406 375.898438 538.085938 378.074219 538.300781 380.253906 C 538.515625 382.433594 538.675781 384.621094 538.785156 386.808594 C 538.890625 388.996094 538.945312 391.1875 538.945312 393.375 Z M 538.945312 393.375 "/>
</g>
<path style=" stroke:none;fill-rule:nonzero;fill:rgb(96.859741%,92.939758%,88.238525%);fill-opacity:1;" d="M 377.78125 466.710938 L 315.109375 403.609375 C 312.125 400.625 312.125 395.933594 315.109375 392.949219 L 336.425781 371.632812 C 339.410156 368.648438 344.101562 368.648438 347.085938 371.632812 L 382.046875 406.59375 L 461.773438 320.042969 C 464.757812 317.058594 469.449219 316.632812 472.433594 319.617188 L 494.175781 339.65625 C 497.160156 342.640625 497.589844 347.332031 494.605469 350.316406 L 388.867188 465.855469 C 385.882812 469.695312 380.765625 469.695312 377.78125 466.710938 Z M 377.78125 466.710938 "/>
<g clip-path="url(#clip2)" clip-rule="nonzero">
<path style=" stroke:none;fill-rule:nonzero;fill:rgb(96.859741%,92.939758%,88.238525%);fill-opacity:1;" d="M 751.113281 433.589844 C 751.113281 439.070312 750.980469 444.550781 750.710938 450.027344 C 750.441406 455.507812 750.039062 460.972656 749.5 466.429688 C 748.960938 471.886719 748.292969 477.328125 747.488281 482.75 C 746.683594 488.175781 745.746094 493.578125 744.675781 498.953125 C 743.605469 504.332031 742.40625 509.679688 741.070312 515 C 739.738281 520.320312 738.277344 525.601562 736.6875 530.851562 C 735.09375 536.097656 733.375 541.304688 731.527344 546.464844 C 729.679688 551.628906 727.707031 556.742188 725.609375 561.808594 C 723.511719 566.875 721.289062 571.886719 718.945312 576.84375 C 716.601562 581.800781 714.136719 586.695312 711.550781 591.53125 C 708.964844 596.367188 706.261719 601.140625 703.445312 605.84375 C 700.625 610.546875 697.691406 615.175781 694.644531 619.734375 C 691.601562 624.296875 688.441406 628.777344 685.175781 633.179688 C 681.910156 637.585938 678.539062 641.90625 675.058594 646.144531 C 671.582031 650.386719 668 654.535156 664.316406 658.597656 C 660.636719 662.660156 656.855469 666.632812 652.976562 670.507812 C 649.101562 674.386719 645.128906 678.167969 641.066406 681.847656 C 637.003906 685.53125 632.851562 689.113281 628.613281 692.589844 C 624.375 696.070312 620.054688 699.441406 615.648438 702.707031 C 611.246094 705.976562 606.761719 709.132812 602.203125 712.179688 C 597.644531 715.222656 593.011719 718.15625 588.308594 720.976562 C 583.605469 723.796875 578.835938 726.496094 574 729.082031 C 569.164062 731.667969 564.269531 734.132812 559.3125 736.476562 C 554.355469 738.820312 549.34375 741.042969 544.277344 743.140625 C 539.210938 745.238281 534.097656 747.210938 528.933594 749.058594 C 523.769531 750.90625 518.566406 752.625 513.320312 754.21875 C 508.070312 755.808594 502.789062 757.273438 497.46875 758.605469 C 492.148438 759.9375 486.800781 761.136719 481.421875 762.207031 C 476.046875 763.277344 470.644531 764.214844 465.21875 765.019531 C 459.796875 765.824219 454.355469 766.496094 448.898438 767.03125 C 443.441406 767.570312 437.972656 767.972656 432.496094 768.242188 C 427.019531 768.511719 421.539062 768.644531 416.058594 768.644531 C 410.574219 768.644531 405.09375 768.511719 399.617188 768.242188 C 394.140625 767.972656 388.671875 767.570312 383.214844 767.03125 C 377.757812 766.496094 372.316406 765.824219 366.894531 765.019531 C 361.46875 764.214844 356.070312 763.277344 350.691406 762.207031 C 345.3125 761.136719 339.964844 759.9375 334.644531 758.605469 C 329.324219 757.273438 324.042969 755.808594 318.792969 754.21875 C 313.546875 752.625 308.34375 750.90625 303.179688 749.058594 C 298.015625 747.210938 292.902344 745.238281 287.835938 743.140625 C 282.769531 741.042969 277.757812 738.820312 272.800781 736.476562 C 267.84375 734.132812 262.949219 731.667969 258.113281 729.082031 C 253.277344 726.496094 248.507812 723.796875 243.804688 720.976562 C 239.101562 718.15625 234.46875 715.222656 229.910156 712.179688 C 225.351562 709.132812 220.867188 705.976562 216.464844 702.707031 C 212.058594 699.441406 207.738281 696.070312 203.5 692.589844 C 199.261719 689.113281 195.109375 685.53125 191.046875 681.847656 C 186.984375 678.167969 183.011719 674.386719 179.136719 670.507812 C 175.257812 666.632812 171.480469 662.660156 167.796875 658.597656 C 164.113281 654.535156 160.53125 650.386719 157.054688 646.144531 C 153.574219 641.90625 150.203125 637.585938 146.9375 633.179688 C 143.671875 628.777344 140.515625 624.296875 137.46875 619.734375 C 134.421875 615.175781 131.488281 610.546875 128.667969 605.84375 C 125.851562 601.140625 123.148438 596.367188 120.5625 591.53125 C 117.976562 586.695312 115.511719 581.800781 113.167969 576.84375 C 110.824219 571.886719 108.601562 566.875 106.503906 561.808594 C 104.40625 556.742188 102.433594 551.628906 100.585938 546.464844 C 98.738281 541.304688 97.019531 536.097656 95.425781 530.851562 C 93.835938 525.601562 92.375 520.320312 91.042969 515 C 89.707031 509.679688 88.507812 504.332031 87.4375 498.953125 C 86.367188 493.578125 85.429688 488.175781 84.625 482.75 C 83.820312 477.328125 83.152344 471.886719 82.613281 466.429688 C 82.074219 460.972656 81.671875 455.507812 81.402344 450.027344 C 81.132812 444.550781 81 439.070312 81 433.589844 C 81 428.105469 81.132812 422.625 81.402344 417.148438 C 81.671875 411.671875 82.074219 406.203125 82.613281 400.746094 C 83.152344 395.289062 83.820312 389.847656 84.625 384.425781 C 85.429688 379 86.367188 373.601562 87.4375 368.222656 C 88.507812 362.84375 89.707031 357.496094 91.042969 352.175781 C 92.375 346.855469 93.835938 341.574219 95.425781 336.328125 C 97.019531 331.078125 98.738281 325.875 100.585938 320.710938 C 102.433594 315.546875 104.40625 310.433594 106.503906 305.367188 C 108.601562 300.300781 110.824219 295.289062 113.167969 290.332031 C 115.511719 285.375 117.976562 280.480469 120.5625 275.644531 C 123.148438 270.808594 125.851562 266.039062 128.667969 261.335938 C 131.488281 256.632812 134.421875 252 137.46875 247.441406 C 140.515625 242.882812 143.671875 238.398438 146.9375 233.996094 C 150.203125 229.589844 153.574219 225.269531 157.054688 221.03125 C 160.53125 216.792969 164.113281 212.640625 167.796875 208.578125 C 171.480469 204.515625 175.257812 200.546875 179.136719 196.667969 C 183.011719 192.789062 186.984375 189.011719 191.046875 185.328125 C 195.109375 181.644531 199.261719 178.066406 203.5 174.585938 C 207.738281 171.109375 212.058594 167.734375 216.464844 164.46875 C 220.867188 161.203125 225.351562 158.046875 229.910156 155 C 234.46875 151.953125 239.101562 149.019531 243.804688 146.199219 C 248.507812 143.382812 253.277344 140.679688 258.113281 138.09375 C 262.949219 135.511719 267.84375 133.046875 272.800781 130.699219 C 277.757812 128.355469 282.769531 126.136719 287.835938 124.035156 C 292.902344 121.9375 298.015625 119.964844 303.179688 118.117188 C 308.34375 116.269531 313.546875 114.550781 318.796875 112.960938 C 324.042969 111.367188 329.324219 109.90625 334.644531 108.574219 C 339.964844 107.242188 345.3125 106.039062 350.691406 104.96875 C 356.070312 103.898438 361.46875 102.960938 366.894531 102.160156 C 372.316406 101.355469 377.757812 100.683594 383.214844 100.144531 C 388.671875 99.609375 394.140625 99.203125 399.617188 98.933594 C 405.09375 98.667969 410.574219 98.53125 416.058594 98.53125 C 421.539062 98.53125 427.019531 98.667969 432.496094 98.933594 C 437.972656 99.203125 443.441406 99.609375 448.898438 100.144531 C 454.355469 100.683594 459.796875 101.355469 465.21875 102.160156 C 470.644531 102.960938 476.046875 103.898438 481.421875 104.96875 C 486.800781 106.039062 492.148438 107.242188 497.46875 108.574219 C 502.789062 109.90625 508.070312 111.367188 513.320312 112.960938 C 518.566406 114.550781 523.769531 116.269531 528.933594 118.117188 C 534.097656 119.964844 539.210938 121.9375 544.277344 124.035156 C 549.34375 126.136719 554.355469 128.355469 559.3125 130.699219 C 564.269531 133.046875 569.164062 135.511719 574 138.09375 C 578.835938 140.679688 583.605469 143.382812 588.308594 146.199219 C 593.011719 149.019531 597.644531 151.953125 602.203125 155 C 606.761719 158.046875 611.246094 161.203125 615.648438 164.46875 C 620.054688 167.734375 624.375 171.109375 628.613281 174.585938 C 632.851562 178.066406 637.003906 181.644531 641.066406 185.328125 C 645.128906 189.011719 649.101562 192.789062 652.976562 196.667969 C 656.855469 200.546875 660.636719 204.515625 664.316406 208.578125 C 668 212.640625 671.582031 216.792969 675.058594 221.03125 C 678.539062 225.269531 681.910156 229.589844 685.175781 233.996094 C 688.441406 238.398438 691.601562 242.882812 694.644531 247.441406 C 697.691406 252 700.625 256.632812 703.445312 261.335938 C 706.261719 266.039062 708.964844 270.808594 711.550781 275.644531 C 714.136719 280.480469 716.601562 285.375 718.945312 290.332031 C 721.289062 295.289062 723.511719 300.300781 725.609375 305.367188 C 727.707031 310.433594 729.679688 315.546875 731.527344 320.710938 C 733.375 325.875 735.09375 331.078125 736.6875 336.328125 C 738.277344 341.574219 739.738281 346.855469 741.070312 352.175781 C 742.40625 357.496094 743.605469 362.84375 744.675781 368.222656 C 745.746094 373.601562 746.683594 379 747.488281 384.425781 C 748.292969 389.847656 748.960938 395.289062 749.5 400.746094 C 750.039062 406.203125 750.441406 411.671875 750.710938 417.148438 C 750.980469 422.625 751.113281 428.105469 751.113281 433.589844 Z M 751.113281 433.589844 "/>
</g>
<path style=" stroke:none;fill-rule:nonzero;fill:rgb(90.589905%,32.548523%,32.548523%);fill-opacity:1;" d="M 347.765625 617.121094 L 190.90625 459.199219 C 183.4375 451.730469 183.4375 439.992188 190.90625 432.519531 L 244.261719 379.167969 C 251.730469 371.699219 263.46875 371.699219 270.9375 379.167969 L 358.433594 466.667969 L 557.976562 250.054688 C 565.445312 242.585938 577.183594 241.519531 584.652344 248.988281 L 639.070312 299.140625 C 646.542969 306.609375 647.609375 318.347656 640.140625 325.816406 L 375.507812 614.988281 C 368.039062 624.59375 355.234375 624.59375 347.765625 617.121094 Z M 347.765625 617.121094 "/>
</g>
</svg>
